%TF.GenerationSoftware,KiCad,Pcbnew,8.0.1*%
%TF.CreationDate,2024-05-11T18:36:51+02:00*%
%TF.ProjectId,Dron Wi-Fi ESP32,44726f6e-2057-4692-9d46-692045535033,rev?*%
%TF.SameCoordinates,Original*%
%TF.FileFunction,Soldermask,Top*%
%TF.FilePolarity,Negative*%
%FSLAX46Y46*%
G04 Gerber Fmt 4.6, Leading zero omitted, Abs format (unit mm)*
G04 Created by KiCad (PCBNEW 8.0.1) date 2024-05-11 18:36:51*
%MOMM*%
%LPD*%
G01*
G04 APERTURE LIST*
G04 Aperture macros list*
%AMRoundRect*
0 Rectangle with rounded corners*
0 $1 Rounding radius*
0 $2 $3 $4 $5 $6 $7 $8 $9 X,Y pos of 4 corners*
0 Add a 4 corners polygon primitive as box body*
4,1,4,$2,$3,$4,$5,$6,$7,$8,$9,$2,$3,0*
0 Add four circle primitives for the rounded corners*
1,1,$1+$1,$2,$3*
1,1,$1+$1,$4,$5*
1,1,$1+$1,$6,$7*
1,1,$1+$1,$8,$9*
0 Add four rect primitives between the rounded corners*
20,1,$1+$1,$2,$3,$4,$5,0*
20,1,$1+$1,$4,$5,$6,$7,0*
20,1,$1+$1,$6,$7,$8,$9,0*
20,1,$1+$1,$8,$9,$2,$3,0*%
G04 Aperture macros list end*
%ADD10C,0.000000*%
%ADD11RoundRect,0.225000X-0.225000X-0.250000X0.225000X-0.250000X0.225000X0.250000X-0.225000X0.250000X0*%
%ADD12RoundRect,0.200000X0.200000X0.275000X-0.200000X0.275000X-0.200000X-0.275000X0.200000X-0.275000X0*%
%ADD13RoundRect,0.112500X0.212132X-0.053033X-0.053033X0.212132X-0.212132X0.053033X0.053033X-0.212132X0*%
%ADD14C,0.300000*%
%ADD15R,1.700000X1.700000*%
%ADD16O,1.700000X1.700000*%
%ADD17RoundRect,0.150000X0.388909X-0.601041X0.601041X-0.388909X-0.388909X0.601041X-0.601041X0.388909X0*%
%ADD18RoundRect,0.250000X0.601041X-0.954594X0.954594X-0.601041X-0.601041X0.954594X-0.954594X0.601041X0*%
%ADD19C,0.650000*%
%ADD20R,0.600000X1.450000*%
%ADD21R,0.300000X1.450000*%
%ADD22O,1.000000X2.100000*%
%ADD23O,1.000000X1.600000*%
%ADD24RoundRect,0.200000X-0.275000X0.200000X-0.275000X-0.200000X0.275000X-0.200000X0.275000X0.200000X0*%
%ADD25RoundRect,0.150000X-0.512500X-0.150000X0.512500X-0.150000X0.512500X0.150000X-0.512500X0.150000X0*%
%ADD26RoundRect,0.225000X0.250000X-0.225000X0.250000X0.225000X-0.250000X0.225000X-0.250000X-0.225000X0*%
%ADD27C,0.900000*%
%ADD28R,0.600000X1.300000*%
%ADD29R,1.150000X0.700000*%
%ADD30RoundRect,0.112500X0.053033X0.212132X-0.212132X-0.053033X-0.053033X-0.212132X0.212132X0.053033X0*%
%ADD31RoundRect,0.200000X-0.200000X-0.275000X0.200000X-0.275000X0.200000X0.275000X-0.200000X0.275000X0*%
%ADD32RoundRect,0.250000X-2.500000X0.250000X-2.500000X-0.250000X2.500000X-0.250000X2.500000X0.250000X0*%
%ADD33RoundRect,0.250000X-1.250000X0.550000X-1.250000X-0.550000X1.250000X-0.550000X1.250000X0.550000X0*%
%ADD34RoundRect,0.218750X-0.218750X-0.256250X0.218750X-0.256250X0.218750X0.256250X-0.218750X0.256250X0*%
%ADD35RoundRect,0.150000X0.601041X0.388909X0.388909X0.601041X-0.601041X-0.388909X-0.388909X-0.601041X0*%
%ADD36RoundRect,0.250000X0.954594X0.601041X0.601041X0.954594X-0.954594X-0.601041X-0.601041X-0.954594X0*%
%ADD37RoundRect,0.225000X0.225000X0.250000X-0.225000X0.250000X-0.225000X-0.250000X0.225000X-0.250000X0*%
%ADD38R,1.500000X0.900000*%
%ADD39R,0.900000X1.500000*%
%ADD40C,0.600000*%
%ADD41R,4.200000X4.200000*%
%ADD42RoundRect,0.150000X-0.601041X-0.388909X-0.388909X-0.601041X0.601041X0.388909X0.388909X0.601041X0*%
%ADD43RoundRect,0.250000X-0.954594X-0.601041X-0.601041X-0.954594X0.954594X0.601041X0.601041X0.954594X0*%
%ADD44RoundRect,0.062500X0.337500X0.062500X-0.337500X0.062500X-0.337500X-0.062500X0.337500X-0.062500X0*%
%ADD45RoundRect,0.062500X0.062500X0.337500X-0.062500X0.337500X-0.062500X-0.337500X0.062500X-0.337500X0*%
%ADD46R,3.350000X3.350000*%
%ADD47RoundRect,0.200000X0.275000X-0.200000X0.275000X0.200000X-0.275000X0.200000X-0.275000X-0.200000X0*%
%ADD48RoundRect,0.150000X-0.587500X-0.150000X0.587500X-0.150000X0.587500X0.150000X-0.587500X0.150000X0*%
%ADD49RoundRect,0.150000X-0.388909X0.601041X-0.601041X0.388909X0.388909X-0.601041X0.601041X-0.388909X0*%
%ADD50RoundRect,0.250000X-0.601041X0.954594X-0.954594X0.601041X0.601041X-0.954594X0.954594X-0.601041X0*%
%ADD51R,0.800000X0.350000*%
%ADD52R,0.350000X0.850000*%
%ADD53R,2.700000X2.600000*%
%ADD54RoundRect,0.112500X-0.053033X-0.212132X0.212132X0.053033X0.053033X0.212132X-0.212132X-0.053033X0*%
%ADD55RoundRect,0.218750X0.256250X-0.218750X0.256250X0.218750X-0.256250X0.218750X-0.256250X-0.218750X0*%
%ADD56R,0.700000X1.525000*%
%ADD57R,3.402000X2.513000*%
%ADD58RoundRect,0.218750X0.218750X0.256250X-0.218750X0.256250X-0.218750X-0.256250X0.218750X-0.256250X0*%
%ADD59RoundRect,0.225000X-0.017678X0.335876X-0.335876X0.017678X0.017678X-0.335876X0.335876X-0.017678X0*%
%ADD60RoundRect,0.112500X-0.112500X0.187500X-0.112500X-0.187500X0.112500X-0.187500X0.112500X0.187500X0*%
%ADD61RoundRect,0.100000X-0.225000X-0.100000X0.225000X-0.100000X0.225000X0.100000X-0.225000X0.100000X0*%
%ADD62RoundRect,0.250000X-0.250000X-0.475000X0.250000X-0.475000X0.250000X0.475000X-0.250000X0.475000X0*%
%ADD63RoundRect,0.225000X-0.250000X0.225000X-0.250000X-0.225000X0.250000X-0.225000X0.250000X0.225000X0*%
%ADD64RoundRect,0.250000X1.000000X0.650000X-1.000000X0.650000X-1.000000X-0.650000X1.000000X-0.650000X0*%
G04 APERTURE END LIST*
D10*
G36*
X195570737Y-60797097D02*
G01*
X193448567Y-62919267D01*
X189789697Y-59257857D01*
X191906787Y-57131877D01*
X195570737Y-60797097D01*
G37*
G36*
X184290737Y-71847097D02*
G01*
X182168567Y-73969267D01*
X178509697Y-70307857D01*
X180626787Y-68181877D01*
X184290737Y-71847097D01*
G37*
G36*
X99939267Y-59291433D02*
G01*
X96277857Y-62950303D01*
X94151877Y-60833213D01*
X97817097Y-57169263D01*
X99939267Y-59291433D01*
G37*
G36*
X111589267Y-70831433D02*
G01*
X107927857Y-74490303D01*
X105801877Y-72373213D01*
X109467097Y-68709263D01*
X111589267Y-70831433D01*
G37*
G36*
X195369267Y-154581433D02*
G01*
X191707857Y-158240303D01*
X189581877Y-156123213D01*
X193247097Y-152459263D01*
X195369267Y-154581433D01*
G37*
G36*
X184009267Y-143531433D02*
G01*
X180347857Y-147190303D01*
X178221877Y-145073213D01*
X181887097Y-141409263D01*
X184009267Y-143531433D01*
G37*
G36*
X99940737Y-156437097D02*
G01*
X97818567Y-158559267D01*
X94159697Y-154897857D01*
X96276787Y-152771877D01*
X99940737Y-156437097D01*
G37*
G36*
X99943775Y-156413783D02*
G01*
X97821605Y-158535953D01*
X94162735Y-154874543D01*
X96279825Y-152748563D01*
X99943775Y-156413783D01*
G37*
G36*
X195355953Y-154578395D02*
G01*
X191694543Y-158237265D01*
X189568563Y-156120175D01*
X193233783Y-152456225D01*
X195355953Y-154578395D01*
G37*
G36*
X195573775Y-60813783D02*
G01*
X193451605Y-62935953D01*
X189792735Y-59274543D01*
X191909825Y-57148563D01*
X195573775Y-60813783D01*
G37*
G36*
X99945953Y-59258395D02*
G01*
X96284543Y-62917265D01*
X94158563Y-60800175D01*
X97823783Y-57136225D01*
X99945953Y-59258395D01*
G37*
G36*
X111625953Y-70848395D02*
G01*
X107964543Y-74507265D01*
X105838563Y-72390175D01*
X109503783Y-68726225D01*
X111625953Y-70848395D01*
G37*
G36*
X184293775Y-71903783D02*
G01*
X182171605Y-74025953D01*
X178512735Y-70364543D01*
X180629825Y-68238563D01*
X184293775Y-71903783D01*
G37*
G36*
X184045953Y-143518395D02*
G01*
X180384543Y-147177265D01*
X178258563Y-145060175D01*
X181923783Y-141396225D01*
X184045953Y-143518395D01*
G37*
G36*
X111313342Y-144753876D02*
G01*
X109191172Y-146876046D01*
X105532302Y-143214636D01*
X107649392Y-141088656D01*
X111313342Y-144753876D01*
G37*
G36*
X114650000Y-115800000D02*
G01*
X111650010Y-115800000D01*
X111650010Y-113800000D01*
X114650000Y-113800000D01*
X114650000Y-115800000D01*
G37*
G36*
X114650000Y-112050000D02*
G01*
X111650010Y-112050000D01*
X111650010Y-110050000D01*
X114650000Y-110050000D01*
X114650000Y-112050000D01*
G37*
G36*
X114650000Y-105600000D02*
G01*
X111650010Y-105600000D01*
X111650010Y-103600000D01*
X114650000Y-103600000D01*
X114650000Y-105600000D01*
G37*
G36*
X114630000Y-101880000D02*
G01*
X111630010Y-101880000D01*
X111630010Y-99880000D01*
X114630000Y-99880000D01*
X114630000Y-101880000D01*
G37*
G36*
X98090000Y-101900000D02*
G01*
X95090010Y-101900000D01*
X95090010Y-99900000D01*
X98090000Y-99900000D01*
X98090000Y-101900000D01*
G37*
G36*
X98110000Y-105570000D02*
G01*
X95110010Y-105570000D01*
X95110010Y-103570000D01*
X98110000Y-103570000D01*
X98110000Y-105570000D01*
G37*
G36*
X98090000Y-115820000D02*
G01*
X95090010Y-115820000D01*
X95090010Y-113820000D01*
X98090000Y-113820000D01*
X98090000Y-115820000D01*
G37*
G36*
X98080000Y-112070000D02*
G01*
X95080010Y-112070000D01*
X95080010Y-110070000D01*
X98080000Y-110070000D01*
X98080000Y-112070000D01*
G37*
G36*
X194600000Y-101860000D02*
G01*
X191600010Y-101860000D01*
X191600010Y-99860000D01*
X194600000Y-99860000D01*
X194600000Y-101860000D01*
G37*
G36*
X194620000Y-105630000D02*
G01*
X191620010Y-105630000D01*
X191620010Y-103630000D01*
X194620000Y-103630000D01*
X194620000Y-105630000D01*
G37*
G36*
X178050000Y-101890000D02*
G01*
X175050010Y-101890000D01*
X175050010Y-99890000D01*
X178050000Y-99890000D01*
X178050000Y-101890000D01*
G37*
G36*
X178050000Y-105600000D02*
G01*
X175050010Y-105600000D01*
X175050010Y-103600000D01*
X178050000Y-103600000D01*
X178050000Y-105600000D01*
G37*
G36*
X178030000Y-112060000D02*
G01*
X175030010Y-112060000D01*
X175030010Y-110060000D01*
X178030000Y-110060000D01*
X178030000Y-112060000D01*
G37*
G36*
X178040000Y-115810000D02*
G01*
X175040010Y-115810000D01*
X175040010Y-113810000D01*
X178040000Y-113810000D01*
X178040000Y-115810000D01*
G37*
G36*
X194600000Y-115800000D02*
G01*
X191600010Y-115800000D01*
X191600010Y-113800000D01*
X194600000Y-113800000D01*
X194600000Y-115800000D01*
G37*
G36*
X194599990Y-112070000D02*
G01*
X191600000Y-112070000D01*
X191600000Y-110070000D01*
X194599990Y-110070000D01*
X194599990Y-112070000D01*
G37*
D11*
%TO.C,C15*%
X160110000Y-119410000D03*
X161660000Y-119410000D03*
%TD*%
D12*
%TO.C,R4*%
X134852407Y-97441822D03*
X133202407Y-97441822D03*
%TD*%
D13*
%TO.C,D1*%
X129400000Y-122550000D03*
X127915076Y-121065076D03*
%TD*%
D14*
%TO.C,REF\u002A\u002A*%
X122340000Y-121420000D03*
%TD*%
D12*
%TO.C,R18*%
X147160000Y-101705000D03*
X145510000Y-101705000D03*
%TD*%
D15*
%TO.C,J7*%
X132500000Y-109000000D03*
D16*
X132500000Y-111540000D03*
X132500000Y-114080000D03*
X132500000Y-116620000D03*
X132500000Y-119160000D03*
X132500000Y-121700000D03*
%TD*%
D14*
%TO.C,REF\u002A\u002A*%
X134200000Y-134340000D03*
%TD*%
D17*
%TO.C,J6*%
X161475000Y-125075000D03*
X162358883Y-124191117D03*
D18*
X162429594Y-128645889D03*
X165929772Y-125145711D03*
%TD*%
D19*
%TO.C,J1*%
X148320000Y-91950000D03*
X142540000Y-91950000D03*
D20*
X148680000Y-93395000D03*
X147880000Y-93395000D03*
D21*
X146680000Y-93395000D03*
X145680000Y-93395000D03*
X145180000Y-93395000D03*
X144180000Y-93395000D03*
D20*
X142980000Y-93395000D03*
X142180000Y-93395000D03*
X142180000Y-93395000D03*
X142980000Y-93395000D03*
D21*
X143680000Y-93395000D03*
X144680000Y-93395000D03*
X146180000Y-93395000D03*
X147180000Y-93395000D03*
D20*
X147880000Y-93395000D03*
X148680000Y-93395000D03*
D22*
X149750000Y-92480000D03*
D23*
X149750000Y-88300000D03*
D22*
X141110000Y-92480000D03*
D23*
X141110000Y-88300000D03*
%TD*%
D14*
%TO.C,REF\u002A\u002A*%
X122340000Y-93550000D03*
%TD*%
D24*
%TO.C,R19*%
X125040000Y-106675000D03*
X125040000Y-108325000D03*
%TD*%
D14*
%TO.C,REF\u002A\u002A*%
X135650000Y-134330000D03*
%TD*%
D25*
%TO.C,U5*%
X151625000Y-99350000D03*
X151625000Y-100300000D03*
X151625000Y-101250000D03*
X153900000Y-101250000D03*
X153900000Y-99350000D03*
%TD*%
D12*
%TO.C,R14*%
X136675000Y-108600000D03*
X135025000Y-108600000D03*
%TD*%
%TO.C,R5*%
X126300000Y-99840000D03*
X124650000Y-99840000D03*
%TD*%
D14*
%TO.C,REF\u002A\u002A*%
X177140000Y-121360000D03*
%TD*%
D26*
%TO.C,C1*%
X140205000Y-97910000D03*
X140205000Y-96360000D03*
%TD*%
D14*
%TO.C,REF\u002A\u002A*%
X177150000Y-93540000D03*
%TD*%
%TO.C,REF\u002A\u002A*%
X136390000Y-130340000D03*
%TD*%
D27*
%TO.C,SW1*%
X136575000Y-86875000D03*
X133575000Y-86875000D03*
D28*
X137325000Y-88950000D03*
X134325000Y-88950000D03*
X132825000Y-88950000D03*
D29*
X138875000Y-87925000D03*
X138875000Y-85825000D03*
X131275000Y-87925000D03*
X131275000Y-85825000D03*
%TD*%
D30*
%TO.C,D3*%
X130332462Y-92157538D03*
X128847538Y-93642462D03*
%TD*%
D14*
%TO.C,REF\u002A\u002A*%
X112550000Y-94230000D03*
%TD*%
D11*
%TO.C,C12*%
X155455000Y-129150000D03*
X157005000Y-129150000D03*
%TD*%
D31*
%TO.C,R6*%
X135535000Y-105355000D03*
X137185000Y-105355000D03*
%TD*%
D32*
%TO.C,J5*%
X162400000Y-106050000D03*
X162400000Y-108050000D03*
D33*
X164650000Y-103650000D03*
X164650000Y-110450000D03*
%TD*%
D14*
%TO.C,REF\u002A\u002A*%
X122340000Y-94280000D03*
%TD*%
D34*
%TO.C,LED1*%
X157680000Y-86120000D03*
X159255000Y-86120000D03*
%TD*%
D14*
%TO.C,*%
X167330000Y-121350000D03*
%TD*%
D28*
%TO.C,T2*%
X124600000Y-98100000D03*
X126500000Y-98100000D03*
X125550000Y-96000000D03*
%TD*%
D14*
%TO.C,REF\u002A\u002A*%
X177140000Y-96440000D03*
%TD*%
D35*
%TO.C,J4*%
X161954111Y-91279594D03*
X161070227Y-90395712D03*
D36*
X165525000Y-90325000D03*
X162024822Y-86824822D03*
%TD*%
D12*
%TO.C,R15*%
X134500000Y-90575000D03*
X132850000Y-90575000D03*
%TD*%
D14*
%TO.C,REF\u002A\u002A*%
X112560000Y-120730000D03*
%TD*%
%TO.C,REF\u002A\u002A*%
X122340000Y-119990000D03*
%TD*%
D28*
%TO.C,T3*%
X163915000Y-97405000D03*
X165815000Y-97405000D03*
X164865000Y-95305000D03*
%TD*%
D12*
%TO.C,R10*%
X157055000Y-127500000D03*
X155405000Y-127500000D03*
%TD*%
D14*
%TO.C,REF\u002A\u002A*%
X112550000Y-120010000D03*
%TD*%
%TO.C,*%
X167340000Y-119220000D03*
%TD*%
%TO.C,REF\u002A\u002A*%
X177140000Y-119200000D03*
%TD*%
D37*
%TO.C,C16*%
X144060000Y-101705000D03*
X142510000Y-101705000D03*
%TD*%
D38*
%TO.C,U6*%
X153592407Y-128700000D03*
X153592407Y-127430000D03*
X153592407Y-126160000D03*
X153592407Y-124890000D03*
X153592407Y-123620000D03*
X153592407Y-122350000D03*
X153592407Y-121080000D03*
X153592407Y-119810000D03*
X153592407Y-118540000D03*
X153592407Y-117270000D03*
X153592407Y-116000000D03*
X153592407Y-114730000D03*
X153592407Y-113460000D03*
X153592407Y-112190000D03*
D39*
X150552407Y-110940000D03*
X149282407Y-110940000D03*
X148012407Y-110940000D03*
X146742407Y-110940000D03*
X145472407Y-110940000D03*
X144202407Y-110940000D03*
X142932407Y-110940000D03*
X141662407Y-110940000D03*
X140392407Y-110940000D03*
X139122407Y-110940000D03*
D38*
X136092407Y-112190000D03*
X136092407Y-113460000D03*
X136092407Y-114730000D03*
X136092407Y-116000000D03*
X136092407Y-117270000D03*
X136092407Y-118540000D03*
X136092407Y-119810000D03*
X136092407Y-121080000D03*
X136092407Y-122350000D03*
X136092407Y-123620000D03*
X136092407Y-124890000D03*
X136092407Y-126160000D03*
X136092407Y-127430000D03*
X136092407Y-128700000D03*
D40*
X147047407Y-122122500D03*
X147047407Y-120597500D03*
X145522407Y-122122500D03*
D41*
X145522407Y-121360000D03*
D40*
X145522407Y-120597500D03*
X143997407Y-122122500D03*
X143997407Y-120597500D03*
%TD*%
D11*
%TO.C,C5*%
X138765000Y-99860000D03*
X140315000Y-99860000D03*
%TD*%
D14*
%TO.C,REF\u002A\u002A*%
X122350000Y-95000000D03*
%TD*%
%TO.C,REF\u002A\u002A*%
X153390000Y-130430000D03*
%TD*%
D31*
%TO.C,R13*%
X160870000Y-113475000D03*
X162520000Y-113475000D03*
%TD*%
D14*
%TO.C,*%
X167340000Y-95720000D03*
%TD*%
D42*
%TO.C,J2*%
X127541206Y-124099911D03*
X128425089Y-124983794D03*
D43*
X123970317Y-125054505D03*
X127470495Y-128554683D03*
%TD*%
D14*
%TO.C,REF\u002A\u002A*%
X122330000Y-96450000D03*
%TD*%
%TO.C,*%
X167350000Y-94260000D03*
%TD*%
D26*
%TO.C,C17*%
X140530000Y-108805000D03*
X140530000Y-107255000D03*
%TD*%
D14*
%TO.C,REF\u002A\u002A*%
X122340000Y-119260000D03*
%TD*%
%TO.C,*%
X153340000Y-134340000D03*
%TD*%
D44*
%TO.C,U3*%
X137012407Y-102886822D03*
X137012407Y-102386822D03*
X137012407Y-101886822D03*
X137012407Y-101386822D03*
X137012407Y-100886822D03*
X137012407Y-100386822D03*
X137012407Y-99886822D03*
D45*
X136062407Y-98936822D03*
X135562407Y-98936822D03*
X135062407Y-98936822D03*
X134562407Y-98936822D03*
X134062407Y-98936822D03*
X133562407Y-98936822D03*
X133062407Y-98936822D03*
D44*
X132112407Y-99886822D03*
X132112407Y-100386822D03*
X132112407Y-100886822D03*
X132112407Y-101386822D03*
X132112407Y-101886822D03*
X132112407Y-102386822D03*
X132112407Y-102886822D03*
D45*
X133062407Y-103836822D03*
X133562407Y-103836822D03*
X134062407Y-103836822D03*
X134562407Y-103836822D03*
X135062407Y-103836822D03*
X135562407Y-103836822D03*
X136062407Y-103836822D03*
D46*
X134562407Y-101386822D03*
%TD*%
D28*
%TO.C,T1*%
X125400000Y-118100000D03*
X123500000Y-118100000D03*
X124450000Y-120200000D03*
%TD*%
D31*
%TO.C,R1*%
X123625000Y-116225000D03*
X125275000Y-116225000D03*
%TD*%
D14*
%TO.C,REF\u002A\u002A*%
X177140000Y-119930000D03*
%TD*%
%TO.C,REF\u002A\u002A*%
X135680000Y-130330000D03*
%TD*%
D31*
%TO.C,U8*%
X156750000Y-106070000D03*
X158400000Y-106070000D03*
%TD*%
%TO.C,R12*%
X154520000Y-87700000D03*
X156170000Y-87700000D03*
%TD*%
%TO.C,R17*%
X149160000Y-106955000D03*
X150810000Y-106955000D03*
%TD*%
%TO.C,R20*%
X149165000Y-108510000D03*
X150815000Y-108510000D03*
%TD*%
D14*
%TO.C,REF\u002A\u002A*%
X177160000Y-94990000D03*
%TD*%
%TO.C,REF\u002A\u002A*%
X134930000Y-134340000D03*
%TD*%
%TO.C,REF\u002A\u002A*%
X112560000Y-94950000D03*
%TD*%
%TO.C,REF\u002A\u002A*%
X112540000Y-96400000D03*
%TD*%
%TO.C,REF\u002A\u002A*%
X122350000Y-120710000D03*
%TD*%
%TO.C,REF\u002A\u002A*%
X177150000Y-94270000D03*
%TD*%
D47*
%TO.C,U2*%
X157500000Y-92875000D03*
X157500000Y-91225000D03*
%TD*%
D48*
%TO.C,U4*%
X157725000Y-94375000D03*
X157725000Y-96275000D03*
X159600000Y-95325000D03*
%TD*%
D49*
%TO.C,J3*%
X128414594Y-90670889D03*
X127530711Y-91554772D03*
D50*
X127460000Y-87100000D03*
X123959822Y-90600178D03*
%TD*%
D37*
%TO.C,C7*%
X152782500Y-102930000D03*
X151232500Y-102930000D03*
%TD*%
D11*
%TO.C,C13*%
X155455000Y-125950000D03*
X157005000Y-125950000D03*
%TD*%
D15*
%TO.C,J8*%
X157275000Y-109000000D03*
D16*
X157275000Y-111540000D03*
X157275000Y-114080000D03*
X157275000Y-116620000D03*
X157275000Y-119160000D03*
X157275000Y-121700000D03*
%TD*%
D14*
%TO.C,REF\u002A\u002A*%
X136360000Y-134340000D03*
%TD*%
%TO.C,*%
X167340000Y-93530000D03*
%TD*%
%TO.C,*%
X154710000Y-134340000D03*
%TD*%
D24*
%TO.C,R16*%
X125050000Y-109750000D03*
X125050000Y-111400000D03*
%TD*%
D14*
%TO.C,REF\u002A\u002A*%
X155370000Y-130450000D03*
%TD*%
%TO.C,REF\u002A\u002A*%
X177150000Y-95700000D03*
%TD*%
D31*
%TO.C,R2*%
X133187407Y-95911822D03*
X134837407Y-95911822D03*
%TD*%
D37*
%TO.C,C14*%
X160180000Y-98140000D03*
X158630000Y-98140000D03*
%TD*%
D24*
%TO.C,R21*%
X125030000Y-103250000D03*
X125030000Y-104900000D03*
%TD*%
D47*
%TO.C,R3*%
X136307407Y-97486822D03*
X136307407Y-95836822D03*
%TD*%
D14*
%TO.C,REF\u002A\u002A*%
X112550000Y-93500000D03*
%TD*%
D26*
%TO.C,C4*%
X138665000Y-97920000D03*
X138665000Y-96370000D03*
%TD*%
D31*
%TO.C,R7*%
X135535000Y-106880000D03*
X137185000Y-106880000D03*
%TD*%
%TO.C,R8*%
X151187500Y-104460000D03*
X152837500Y-104460000D03*
%TD*%
D14*
%TO.C,REF\u002A\u002A*%
X177130000Y-122100000D03*
%TD*%
%TO.C,REF\u002A\u002A*%
X112550000Y-121440000D03*
%TD*%
D51*
%TO.C,U9*%
X146850000Y-107275000D03*
X146850000Y-106775000D03*
X146850000Y-106275000D03*
X146850000Y-105775000D03*
X146850000Y-105275000D03*
X146850000Y-104775000D03*
D52*
X146100000Y-104050000D03*
X145600000Y-104050000D03*
X145100000Y-104050000D03*
X144600000Y-104050000D03*
X144100000Y-104050000D03*
X143600000Y-104050000D03*
D51*
X142850000Y-104775000D03*
X142850000Y-105275000D03*
X142850000Y-105775000D03*
X142850000Y-106275000D03*
X142850000Y-106775000D03*
X142850000Y-107275000D03*
D52*
X143600000Y-108000000D03*
X144100000Y-108000000D03*
X144600000Y-108000000D03*
X145100000Y-108000000D03*
X145600000Y-108000000D03*
X146100000Y-108000000D03*
D53*
X144850000Y-106025000D03*
%TD*%
D14*
%TO.C,*%
X154040000Y-134340000D03*
%TD*%
D54*
%TO.C,D5*%
X160225000Y-122825000D03*
X161709924Y-121340076D03*
%TD*%
D55*
%TO.C,LED4*%
X123420000Y-111365000D03*
X123420000Y-109790000D03*
%TD*%
D14*
%TO.C,REF\u002A\u002A*%
X122340000Y-95710000D03*
%TD*%
D56*
%TO.C,IC1*%
X151890000Y-95500000D03*
X153160000Y-95500000D03*
X154430000Y-95500000D03*
X155700000Y-95500000D03*
X155700000Y-90076000D03*
X154430000Y-90076000D03*
X153160000Y-90076000D03*
X151890000Y-90076000D03*
D57*
X153795000Y-92788000D03*
%TD*%
D14*
%TO.C,*%
X167340000Y-120620000D03*
%TD*%
D11*
%TO.C,C11*%
X160225000Y-99750000D03*
X161775000Y-99750000D03*
%TD*%
D14*
%TO.C,REF\u002A\u002A*%
X122330000Y-122160000D03*
%TD*%
D26*
%TO.C,C10*%
X158540000Y-129400000D03*
X158540000Y-127850000D03*
%TD*%
D58*
%TO.C,LED2*%
X153080000Y-86120000D03*
X151505000Y-86120000D03*
%TD*%
D12*
%TO.C,Rprog1*%
X153600000Y-97400000D03*
X151950000Y-97400000D03*
%TD*%
D59*
%TO.C,C6*%
X131318008Y-93641992D03*
X130221992Y-94738008D03*
%TD*%
D26*
%TO.C,C18*%
X140510000Y-104655000D03*
X140510000Y-103105000D03*
%TD*%
D55*
%TO.C,LED6*%
X123410000Y-104860000D03*
X123410000Y-103285000D03*
%TD*%
D14*
%TO.C,REF\u002A\u002A*%
X112550000Y-95660000D03*
%TD*%
D60*
%TO.C,D4*%
X162025000Y-95075000D03*
X162025000Y-97175000D03*
%TD*%
D14*
%TO.C,REF\u002A\u002A*%
X112540000Y-122180000D03*
%TD*%
%TO.C,REF\u002A\u002A*%
X134960000Y-130340000D03*
%TD*%
D61*
%TO.C,U1*%
X128800000Y-105050000D03*
X128800000Y-105700000D03*
X128800000Y-106350000D03*
X130700000Y-106350000D03*
X130700000Y-105700000D03*
X130700000Y-105050000D03*
%TD*%
D14*
%TO.C,REF\u002A\u002A*%
X112550000Y-119280000D03*
%TD*%
D37*
%TO.C,C2*%
X128750000Y-117700000D03*
X127200000Y-117700000D03*
%TD*%
D14*
%TO.C,*%
X167360000Y-95010000D03*
%TD*%
D62*
%TO.C,C8*%
X155622500Y-101100000D03*
X157522500Y-101100000D03*
%TD*%
D55*
%TO.C,LED5*%
X123410000Y-108285000D03*
X123410000Y-106710000D03*
%TD*%
D14*
%TO.C,REF\u002A\u002A*%
X177150000Y-120650000D03*
%TD*%
%TO.C,REF\u002A\u002A*%
X134230000Y-130340000D03*
%TD*%
D12*
%TO.C,R9*%
X165590000Y-99155000D03*
X163940000Y-99155000D03*
%TD*%
%TO.C,U7*%
X158400000Y-104550000D03*
X156750000Y-104550000D03*
%TD*%
D63*
%TO.C,C3*%
X149862500Y-99305000D03*
X149862500Y-100855000D03*
%TD*%
D14*
%TO.C,*%
X167340000Y-122040000D03*
%TD*%
%TO.C,*%
X155430000Y-134340000D03*
%TD*%
D11*
%TO.C,C9*%
X155592500Y-99330000D03*
X157142500Y-99330000D03*
%TD*%
D14*
%TO.C,REF\u002A\u002A*%
X154740000Y-130440000D03*
%TD*%
D58*
%TO.C,LED3*%
X153100000Y-87730000D03*
X151525000Y-87730000D03*
%TD*%
D64*
%TO.C,D2*%
X146950000Y-97475000D03*
X142950000Y-97475000D03*
%TD*%
D14*
%TO.C,REF\u002A\u002A*%
X154150000Y-130460000D03*
%TD*%
%TO.C,*%
X167340000Y-119950000D03*
%TD*%
%TO.C,*%
X167340000Y-96450000D03*
%TD*%
D28*
%TO.C,T4*%
X162550000Y-115325000D03*
X160650000Y-115325000D03*
X161600000Y-117425000D03*
%TD*%
D31*
%TO.C,R11*%
X154505000Y-86120000D03*
X156155000Y-86120000D03*
%TD*%
M02*
