%TF.GenerationSoftware,KiCad,Pcbnew,8.0.1*%
%TF.CreationDate,2024-05-11T18:36:51+02:00*%
%TF.ProjectId,Dron Wi-Fi ESP32,44726f6e-2057-4692-9d46-692045535033,rev?*%
%TF.SameCoordinates,Original*%
%TF.FileFunction,Copper,L2,Bot*%
%TF.FilePolarity,Positive*%
%FSLAX46Y46*%
G04 Gerber Fmt 4.6, Leading zero omitted, Abs format (unit mm)*
G04 Created by KiCad (PCBNEW 8.0.1) date 2024-05-11 18:36:51*
%MOMM*%
%LPD*%
G01*
G04 APERTURE LIST*
%TA.AperFunction,NonConductor*%
%ADD10C,0.000000*%
%TD*%
%TA.AperFunction,ComponentPad*%
%ADD11R,1.700000X1.700000*%
%TD*%
%TA.AperFunction,ComponentPad*%
%ADD12O,1.700000X1.700000*%
%TD*%
%TA.AperFunction,ComponentPad*%
%ADD13O,1.000000X2.100000*%
%TD*%
%TA.AperFunction,ComponentPad*%
%ADD14O,1.000000X1.600000*%
%TD*%
%TA.AperFunction,HeatsinkPad*%
%ADD15C,0.600000*%
%TD*%
%TA.AperFunction,ViaPad*%
%ADD16C,0.800000*%
%TD*%
%TA.AperFunction,Conductor*%
%ADD17C,0.250000*%
%TD*%
%TA.AperFunction,Conductor*%
%ADD18C,1.270000*%
%TD*%
%TA.AperFunction,Conductor*%
%ADD19C,1.524000*%
%TD*%
%TA.AperFunction,Conductor*%
%ADD20C,1.016000*%
%TD*%
%TA.AperFunction,Conductor*%
%ADD21C,0.635000*%
%TD*%
%TA.AperFunction,Conductor*%
%ADD22C,0.200000*%
%TD*%
G04 APERTURE END LIST*
D10*
%TA.AperFunction,NonConductor*%
G36*
X99921878Y-59266421D02*
G01*
X96256658Y-62930371D01*
X94134488Y-60808201D01*
X97795898Y-57149331D01*
X99921878Y-59266421D01*
G37*
%TD.AperFunction*%
%TA.AperFunction,NonConductor*%
G36*
X114640668Y-115801741D02*
G01*
X111640678Y-115801741D01*
X111640678Y-113801741D01*
X114640668Y-113801741D01*
X114640668Y-115801741D01*
G37*
%TD.AperFunction*%
%TA.AperFunction,NonConductor*%
G36*
X178039828Y-101882541D02*
G01*
X175039838Y-101882541D01*
X175039838Y-99882541D01*
X178039828Y-99882541D01*
X178039828Y-101882541D01*
G37*
%TD.AperFunction*%
%TA.AperFunction,NonConductor*%
G36*
X195551301Y-60812009D02*
G01*
X193429131Y-62934179D01*
X189763911Y-59270229D01*
X191889891Y-57153139D01*
X195551301Y-60812009D01*
G37*
%TD.AperFunction*%
%TA.AperFunction,NonConductor*%
G36*
X194600628Y-112067941D02*
G01*
X191600638Y-112067941D01*
X191600638Y-110067941D01*
X194600628Y-110067941D01*
X194600628Y-112067941D01*
G37*
%TD.AperFunction*%
%TA.AperFunction,NonConductor*%
G36*
X98080628Y-115801741D02*
G01*
X95080638Y-115801741D01*
X95080638Y-113801741D01*
X98080628Y-113801741D01*
X98080628Y-115801741D01*
G37*
%TD.AperFunction*%
%TA.AperFunction,NonConductor*%
G36*
X184295470Y-71895400D02*
G01*
X182173300Y-74017570D01*
X178508080Y-70353620D01*
X180634060Y-68236530D01*
X184295470Y-71895400D01*
G37*
%TD.AperFunction*%
%TA.AperFunction,NonConductor*%
G36*
X114640668Y-105616341D02*
G01*
X111640678Y-105616341D01*
X111640678Y-103616341D01*
X114640668Y-103616341D01*
X114640668Y-105616341D01*
G37*
%TD.AperFunction*%
%TA.AperFunction,NonConductor*%
G36*
X195352560Y-154594233D02*
G01*
X191691150Y-158253103D01*
X189565170Y-156136013D01*
X193230390Y-152472063D01*
X195352560Y-154594233D01*
G37*
%TD.AperFunction*%
%TA.AperFunction,NonConductor*%
G36*
X194600628Y-115795391D02*
G01*
X191600638Y-115795391D01*
X191600638Y-113795391D01*
X194600628Y-113795391D01*
X194600628Y-115795391D01*
G37*
%TD.AperFunction*%
%TA.AperFunction,NonConductor*%
G36*
X178039828Y-105616341D02*
G01*
X175039838Y-105616341D01*
X175039838Y-103616341D01*
X178039828Y-103616341D01*
X178039828Y-105616341D01*
G37*
%TD.AperFunction*%
%TA.AperFunction,NonConductor*%
G36*
X98080628Y-112067941D02*
G01*
X95080638Y-112067941D01*
X95080638Y-110067941D01*
X98080628Y-110067941D01*
X98080628Y-112067941D01*
G37*
%TD.AperFunction*%
%TA.AperFunction,NonConductor*%
G36*
X111355538Y-144771379D02*
G01*
X109233368Y-146893549D01*
X105574498Y-143232139D01*
X107691588Y-141106159D01*
X111355538Y-144771379D01*
G37*
%TD.AperFunction*%
%TA.AperFunction,NonConductor*%
G36*
X98080628Y-105616341D02*
G01*
X95080638Y-105616341D01*
X95080638Y-103616341D01*
X98080628Y-103616341D01*
X98080628Y-105616341D01*
G37*
%TD.AperFunction*%
%TA.AperFunction,NonConductor*%
G36*
X114640668Y-101882541D02*
G01*
X111640678Y-101882541D01*
X111640678Y-99882541D01*
X114640668Y-99882541D01*
X114640668Y-101882541D01*
G37*
%TD.AperFunction*%
%TA.AperFunction,NonConductor*%
G36*
X99932781Y-156426368D02*
G01*
X97810611Y-158548538D01*
X94151741Y-154887128D01*
X96268831Y-152761148D01*
X99932781Y-156426368D01*
G37*
%TD.AperFunction*%
%TA.AperFunction,NonConductor*%
G36*
X184038391Y-143496953D02*
G01*
X180376981Y-147155823D01*
X178251001Y-145038733D01*
X181916221Y-141374783D01*
X184038391Y-143496953D01*
G37*
%TD.AperFunction*%
%TA.AperFunction,NonConductor*%
G36*
X178039828Y-115801741D02*
G01*
X175039838Y-115801741D01*
X175039838Y-113801741D01*
X178039828Y-113801741D01*
X178039828Y-115801741D01*
G37*
%TD.AperFunction*%
%TA.AperFunction,NonConductor*%
G36*
X194600628Y-101882541D02*
G01*
X191600638Y-101882541D01*
X191600638Y-99882541D01*
X194600628Y-99882541D01*
X194600628Y-101882541D01*
G37*
%TD.AperFunction*%
%TA.AperFunction,NonConductor*%
G36*
X111625619Y-70845525D02*
G01*
X107960399Y-74509475D01*
X105838229Y-72387305D01*
X109499639Y-68728435D01*
X111625619Y-70845525D01*
G37*
%TD.AperFunction*%
%TA.AperFunction,NonConductor*%
G36*
X98080628Y-101882541D02*
G01*
X95080638Y-101882541D01*
X95080638Y-99882541D01*
X98080628Y-99882541D01*
X98080628Y-101882541D01*
G37*
%TD.AperFunction*%
%TA.AperFunction,NonConductor*%
G36*
X178039828Y-112067941D02*
G01*
X175039838Y-112067941D01*
X175039838Y-110067941D01*
X178039828Y-110067941D01*
X178039828Y-112067941D01*
G37*
%TD.AperFunction*%
%TA.AperFunction,NonConductor*%
G36*
X194600628Y-105635391D02*
G01*
X191600638Y-105635391D01*
X191600638Y-103635391D01*
X194600628Y-103635391D01*
X194600628Y-105635391D01*
G37*
%TD.AperFunction*%
%TA.AperFunction,NonConductor*%
G36*
X114640668Y-112067941D02*
G01*
X111640678Y-112067941D01*
X111640678Y-110067941D01*
X114640668Y-110067941D01*
X114640668Y-112067941D01*
G37*
%TD.AperFunction*%
D11*
%TO.P,J7,1,Pin_1*%
%TO.N,GND*%
X132500000Y-109000000D03*
D12*
%TO.P,J7,2,Pin_2*%
%TO.N,+3V3*%
X132500000Y-111540000D03*
%TO.P,J7,3,Pin_3*%
%TO.N,/RXD2*%
X132500000Y-114080000D03*
%TO.P,J7,4,Pin_4*%
%TO.N,/TXD2*%
X132500000Y-116620000D03*
%TO.P,J7,5,Pin_5*%
%TO.N,/SDA*%
X132500000Y-119160000D03*
%TO.P,J7,6,Pin_6*%
%TO.N,/SCL*%
X132500000Y-121700000D03*
%TD*%
D13*
%TO.P,J1,S1,SHIELD*%
%TO.N,GND*%
X149750000Y-92480000D03*
D14*
X149750000Y-88300000D03*
D13*
X141110000Y-92480000D03*
D14*
X141110000Y-88300000D03*
%TD*%
D15*
%TO.P,U6,39,GND*%
%TO.N,GND*%
X147047407Y-122122500D03*
X147047407Y-120597500D03*
X145522407Y-122122500D03*
X145522407Y-120597500D03*
X143997407Y-122122500D03*
X143997407Y-120597500D03*
%TD*%
D11*
%TO.P,J8,1,Pin_1*%
%TO.N,GND*%
X157275000Y-109000000D03*
D12*
%TO.P,J8,2,Pin_2*%
%TO.N,+BATT*%
X157275000Y-111540000D03*
%TO.P,J8,3,Pin_3*%
%TO.N,/SRV_1*%
X157275000Y-114080000D03*
%TO.P,J8,4,Pin_4*%
%TO.N,/SRV_2*%
X157275000Y-116620000D03*
%TO.P,J8,5,Pin_5*%
%TO.N,/SRV_3*%
X157275000Y-119160000D03*
%TO.P,J8,6,Pin_6*%
%TO.N,/SRV_4*%
X157275000Y-121700000D03*
%TD*%
D16*
%TO.N,/SDA*%
X141740000Y-120060000D03*
%TO.N,GND*%
X159940000Y-129160000D03*
X146050000Y-99250000D03*
X152900000Y-92660000D03*
X154490000Y-92640000D03*
X130400000Y-102850000D03*
X147800000Y-99250000D03*
X148860000Y-104170000D03*
X143500000Y-102650000D03*
X156890000Y-124190000D03*
X139160000Y-103540000D03*
%TO.N,/MOT_4*%
X160050000Y-116950000D03*
X152300000Y-117250000D03*
%TO.N,/MOT_3*%
X163940000Y-100930000D03*
X151490000Y-119810000D03*
%TO.N,/MOT_2*%
X130300000Y-100850000D03*
X149652000Y-116140000D03*
%TO.N,VBUS*%
X155700000Y-96580000D03*
X148720000Y-97460000D03*
X149590000Y-97450000D03*
X155700000Y-97380000D03*
X150460000Y-97460000D03*
X154790000Y-97380000D03*
%TO.N,+BATT*%
X161400000Y-124940000D03*
X129790000Y-123040000D03*
X160120000Y-120400000D03*
X160100000Y-121300000D03*
X126660000Y-114480000D03*
X156780000Y-89220000D03*
X131590000Y-90910000D03*
X130430000Y-92030000D03*
X160240000Y-91190000D03*
X129520000Y-123900000D03*
X160220000Y-123690000D03*
X158560000Y-89200000D03*
X160660000Y-90080000D03*
X127450000Y-115290000D03*
X160110000Y-122430000D03*
X157700000Y-89200000D03*
X159600000Y-92370000D03*
X131000000Y-91490000D03*
X128190000Y-116010000D03*
%TO.N,LDO_EN*%
X150100000Y-102100000D03*
X133700000Y-92350000D03*
%TO.N,+5V*%
X156400000Y-93950000D03*
X149120000Y-95170000D03*
%TO.N,/SCL*%
X140550000Y-119600000D03*
X145213966Y-109323966D03*
%TO.N,+3V3*%
X141660000Y-103650000D03*
X147600000Y-103700000D03*
%TO.N,/SDA*%
X141740000Y-125360000D03*
X138450000Y-122350000D03*
X147600000Y-108200000D03*
%TO.N,/IO0*%
X133550000Y-107000000D03*
X136700000Y-109550000D03*
%TO.N,/EN*%
X131900000Y-104800000D03*
X152100000Y-126150000D03*
%TO.N,Net-(LED1-A)*%
X151200000Y-105450000D03*
X158190000Y-87760000D03*
%TO.N,/RX*%
X137600000Y-123650000D03*
X139802000Y-123791867D03*
%TO.N,Net-(U3-VDD)*%
X139400000Y-100750000D03*
X131800000Y-97450000D03*
%TO.N,/LED_3*%
X128250000Y-101900000D03*
X137450000Y-118550000D03*
%TO.N,/LED_2*%
X130000000Y-109650000D03*
X134700000Y-117250000D03*
%TO.N,/LED_1*%
X138050000Y-127450000D03*
X129350000Y-111000000D03*
%TO.N,/SRV_2*%
X141650000Y-102500000D03*
%TO.N,/DTR*%
X129100000Y-103700000D03*
X138220000Y-103750000D03*
%TO.N,/D-*%
X146700000Y-95150000D03*
X144580000Y-95100000D03*
%TD*%
D17*
%TO.N,/SDA*%
X141760000Y-120060000D02*
X141740000Y-120060000D01*
X143220000Y-118600000D02*
X141760000Y-120060000D01*
X141740000Y-120080000D02*
X141740000Y-120060000D01*
%TO.N,GND*%
X152720000Y-92480000D02*
X149750000Y-92480000D01*
X152900000Y-92660000D02*
X152720000Y-92480000D01*
%TO.N,/MOT_4*%
X159278000Y-117722000D02*
X152772000Y-117722000D01*
X152772000Y-117722000D02*
X152300000Y-117250000D01*
X160050000Y-116950000D02*
X159278000Y-117722000D01*
%TO.N,/MOT_3*%
X151190000Y-109500000D02*
X151190000Y-119510000D01*
X151190000Y-119510000D02*
X151490000Y-119810000D01*
X159760000Y-100930000D02*
X151190000Y-109500000D01*
X163940000Y-100930000D02*
X159760000Y-100930000D01*
%TO.N,/MOT_2*%
X130300000Y-100960000D02*
X130300000Y-100850000D01*
X130980000Y-101640000D02*
X130300000Y-100960000D01*
X146940000Y-104350000D02*
X141050000Y-104350000D01*
X138340000Y-101640000D02*
X130980000Y-101640000D01*
X141050000Y-104350000D02*
X138340000Y-101640000D01*
X146940000Y-104350000D02*
X149652000Y-107062000D01*
X149652000Y-107062000D02*
X149652000Y-116140000D01*
D18*
%TO.N,VBUS*%
X150460000Y-97460000D02*
X155620000Y-97460000D01*
X148720000Y-97460000D02*
X150460000Y-97460000D01*
D19*
%TO.N,+BATT*%
X164020000Y-111540000D02*
X165460000Y-110100000D01*
D20*
X156265000Y-89735000D02*
X156780000Y-89220000D01*
X129520000Y-123900000D02*
X129900000Y-123900000D01*
X157920000Y-90310000D02*
X158560000Y-89670000D01*
X130342599Y-122547401D02*
X128190000Y-120394802D01*
X131010000Y-91490000D02*
X131590000Y-90910000D01*
X126660000Y-114480000D02*
X125860000Y-113680000D01*
D19*
X165460000Y-110100000D02*
X165460000Y-99140000D01*
X159600000Y-93280000D02*
X159600000Y-92370000D01*
D20*
X127440000Y-120690000D02*
X127440000Y-115300000D01*
D19*
X160220000Y-123690000D02*
X160220000Y-122540000D01*
D20*
X125860000Y-113680000D02*
X125860000Y-96560000D01*
D19*
X160220000Y-123690000D02*
X161880000Y-125350000D01*
D20*
X158540000Y-89220000D02*
X158560000Y-89200000D01*
X129520000Y-123900000D02*
X129520000Y-122770000D01*
X126770000Y-113160000D02*
X126770000Y-97030000D01*
X128170000Y-116010000D02*
X127450000Y-115290000D01*
D19*
X160120000Y-120400000D02*
X160120000Y-120060000D01*
D20*
X126770000Y-97030000D02*
X133490000Y-90310000D01*
D19*
X165460000Y-99140000D02*
X159600000Y-93280000D01*
X157275000Y-111540000D02*
X164020000Y-111540000D01*
X159600000Y-91760000D02*
X160960000Y-90400000D01*
D20*
X128190000Y-116010000D02*
X128170000Y-116010000D01*
X129790000Y-123040000D02*
X128590000Y-121840000D01*
X130340000Y-122550000D02*
X130342599Y-122547401D01*
D19*
X161880000Y-125350000D02*
X161880000Y-125380000D01*
D20*
X158560000Y-89670000D02*
X158560000Y-89200000D01*
X128590000Y-121840000D02*
X128590000Y-114980000D01*
X125860000Y-96560000D02*
X130370000Y-92050000D01*
X127450000Y-115270000D02*
X126660000Y-114480000D01*
X127450000Y-115290000D02*
X127450000Y-115270000D01*
D19*
X160110000Y-122430000D02*
X160110000Y-120410000D01*
X160110000Y-120410000D02*
X160120000Y-120400000D01*
X162320000Y-117860000D02*
X162320000Y-114040000D01*
D20*
X127760000Y-114980000D02*
X127450000Y-115290000D01*
X156780000Y-89220000D02*
X156830000Y-89220000D01*
X130440000Y-92050000D02*
X131000000Y-91490000D01*
D19*
X159820000Y-111540000D02*
X157275000Y-111540000D01*
D20*
X132765000Y-89735000D02*
X156265000Y-89735000D01*
X129900000Y-123900000D02*
X130340000Y-123460000D01*
X156830000Y-89220000D02*
X157920000Y-90310000D01*
X131590000Y-90910000D02*
X132765000Y-89735000D01*
X128590000Y-114980000D02*
X127760000Y-114980000D01*
X128590000Y-114980000D02*
X126770000Y-113160000D01*
D19*
X162320000Y-114040000D02*
X159820000Y-111540000D01*
D20*
X128190000Y-120394802D02*
X128190000Y-116010000D01*
X130370000Y-92050000D02*
X130440000Y-92050000D01*
X127440000Y-115300000D02*
X127450000Y-115290000D01*
X131000000Y-91490000D02*
X131010000Y-91490000D01*
X133490000Y-90310000D02*
X157920000Y-90310000D01*
X156780000Y-89220000D02*
X158540000Y-89220000D01*
D19*
X160220000Y-122540000D02*
X160110000Y-122430000D01*
D20*
X129520000Y-122770000D02*
X127440000Y-120690000D01*
D19*
X160120000Y-120060000D02*
X162320000Y-117860000D01*
X159600000Y-92370000D02*
X159600000Y-91760000D01*
D20*
X130340000Y-123460000D02*
X130340000Y-122550000D01*
D17*
%TO.N,LDO_EN*%
X134430000Y-95970000D02*
X140390000Y-95970000D01*
X149450000Y-101450000D02*
X150100000Y-102100000D01*
X141300000Y-100000000D02*
X142750000Y-101450000D01*
X142750000Y-101450000D02*
X149450000Y-101450000D01*
X133700000Y-95240000D02*
X134430000Y-95970000D01*
X133700000Y-92350000D02*
X133700000Y-95240000D01*
X140390000Y-95970000D02*
X141300000Y-96880000D01*
X141300000Y-96880000D02*
X141300000Y-100000000D01*
D21*
%TO.N,+5V*%
X155180000Y-95170000D02*
X156400000Y-93950000D01*
X149120000Y-95170000D02*
X155180000Y-95170000D01*
D17*
%TO.N,/SCL*%
X142580000Y-111770000D02*
X142580000Y-117570000D01*
X145026034Y-109323966D02*
X142580000Y-111770000D01*
X145213966Y-109323966D02*
X145026034Y-109323966D01*
X142580000Y-117570000D02*
X140550000Y-119600000D01*
%TO.N,+3V3*%
X147550000Y-103650000D02*
X147600000Y-103700000D01*
X141660000Y-103650000D02*
X147550000Y-103650000D01*
%TO.N,/SDA*%
X143220000Y-118600000D02*
X143220000Y-112240000D01*
X143220000Y-112240000D02*
X147260000Y-108200000D01*
X141270000Y-123660000D02*
X141740000Y-124130000D01*
X141740000Y-124130000D02*
X141740000Y-125360000D01*
X141740000Y-120080000D02*
X141740000Y-120080000D01*
X139960000Y-122350000D02*
X141270000Y-123660000D01*
X138450000Y-122350000D02*
X139960000Y-122350000D01*
X147260000Y-108200000D02*
X147600000Y-108200000D01*
%TO.N,/IO0*%
X136690000Y-107680000D02*
X136690000Y-109540000D01*
X136690000Y-109540000D02*
X136700000Y-109550000D01*
X133550000Y-107000000D02*
X136010000Y-107000000D01*
X136010000Y-107000000D02*
X136690000Y-107680000D01*
%TO.N,/EN*%
X138660000Y-108030000D02*
X138660000Y-119920000D01*
X135430000Y-104800000D02*
X138660000Y-108030000D01*
X131900000Y-104800000D02*
X135430000Y-104800000D01*
X144890000Y-126150000D02*
X152100000Y-126150000D01*
X138660000Y-119920000D02*
X144890000Y-126150000D01*
%TO.N,Net-(LED1-A)*%
X159330000Y-88590000D02*
X159330000Y-90320000D01*
X151200000Y-105250000D02*
X151200000Y-105450000D01*
X159330000Y-90320000D02*
X157860000Y-91790000D01*
X158500000Y-87760000D02*
X159330000Y-88590000D01*
X158190000Y-87760000D02*
X158500000Y-87760000D01*
X157860000Y-91790000D02*
X157860000Y-98590000D01*
X157860000Y-98590000D02*
X151200000Y-105250000D01*
%TO.N,/RX*%
X137600000Y-123650000D02*
X139660133Y-123650000D01*
X139660133Y-123650000D02*
X139802000Y-123791867D01*
%TO.N,Net-(U3-VDD)*%
X139400000Y-100750000D02*
X139410000Y-100740000D01*
X139410000Y-98690000D02*
X138170000Y-97450000D01*
X139410000Y-100740000D02*
X139410000Y-98690000D01*
X138170000Y-97450000D02*
X131800000Y-97450000D01*
%TO.N,/LED_3*%
X136680000Y-112800000D02*
X137410000Y-113530000D01*
X128250000Y-105860000D02*
X131090000Y-108700000D01*
X131090000Y-112100000D02*
X131790000Y-112800000D01*
X128250000Y-101900000D02*
X128250000Y-105860000D01*
X131090000Y-108700000D02*
X131090000Y-112100000D01*
X137410000Y-113530000D02*
X137410000Y-118510000D01*
X137410000Y-118510000D02*
X137450000Y-118550000D01*
X131790000Y-112800000D02*
X136680000Y-112800000D01*
%TO.N,/LED_2*%
X130540000Y-110190000D02*
X130540000Y-116900000D01*
X134220000Y-117860000D02*
X134700000Y-117380000D01*
X130000000Y-109650000D02*
X130540000Y-110190000D01*
X134700000Y-117380000D02*
X134700000Y-117250000D01*
X131500000Y-117860000D02*
X134220000Y-117860000D01*
X130540000Y-116900000D02*
X131500000Y-117860000D01*
%TO.N,/LED_1*%
X130860000Y-118040000D02*
X130860000Y-121990000D01*
X130860000Y-121990000D02*
X136320000Y-127450000D01*
X129350000Y-111000000D02*
X129350000Y-116530000D01*
X136320000Y-127450000D02*
X138050000Y-127450000D01*
X129350000Y-116530000D02*
X130860000Y-118040000D01*
%TO.N,/SRV_2*%
X152290000Y-119320000D02*
X151648000Y-118678000D01*
X151880000Y-120660000D02*
X152290000Y-120250000D01*
X151648000Y-116312000D02*
X152360000Y-115600000D01*
X147860000Y-101990000D02*
X150410000Y-104540000D01*
X141650000Y-102500000D02*
X142160000Y-101990000D01*
X152290000Y-120250000D02*
X152290000Y-119320000D01*
X142160000Y-101990000D02*
X147860000Y-101990000D01*
X151648000Y-118678000D02*
X151648000Y-116312000D01*
X150410000Y-104540000D02*
X150410000Y-120010000D01*
X151060000Y-120660000D02*
X151880000Y-120660000D01*
X152360000Y-115600000D02*
X156255000Y-115600000D01*
X150410000Y-120010000D02*
X151060000Y-120660000D01*
X156255000Y-115600000D02*
X157275000Y-116620000D01*
%TO.N,/DTR*%
X129100000Y-103700000D02*
X129150000Y-103750000D01*
X129150000Y-103750000D02*
X138220000Y-103750000D01*
D22*
%TO.N,/D-*%
X146650000Y-95100000D02*
X146700000Y-95150000D01*
X144580000Y-95100000D02*
X146650000Y-95100000D01*
%TD*%
%TA.AperFunction,Conductor*%
%TO.N,GND*%
G36*
X147762080Y-102285493D02*
G01*
X147766916Y-102289926D01*
X150110074Y-104633083D01*
X150131814Y-104679703D01*
X150132100Y-104686257D01*
X150132100Y-115658987D01*
X150114507Y-115707325D01*
X150069958Y-115733045D01*
X150019300Y-115724112D01*
X150011121Y-115718647D01*
X149959321Y-115678899D01*
X149931682Y-115635515D01*
X149929900Y-115619239D01*
X149929900Y-107025416D01*
X149929900Y-107025414D01*
X149910962Y-106954735D01*
X149910959Y-106954730D01*
X149910958Y-106954727D01*
X149874376Y-106891366D01*
X149874375Y-106891365D01*
X149822635Y-106839625D01*
X148577346Y-105594336D01*
X147323552Y-104340541D01*
X147301812Y-104293921D01*
X147315126Y-104244234D01*
X147357263Y-104214729D01*
X147405503Y-104217891D01*
X147455664Y-104238669D01*
X147600000Y-104257671D01*
X147744336Y-104238669D01*
X147878836Y-104182957D01*
X147994333Y-104094333D01*
X148082957Y-103978836D01*
X148138669Y-103844336D01*
X148157671Y-103700000D01*
X148138669Y-103555664D01*
X148082957Y-103421165D01*
X148082955Y-103421162D01*
X147994333Y-103305666D01*
X147878839Y-103217045D01*
X147878838Y-103217044D01*
X147878836Y-103217043D01*
X147791891Y-103181029D01*
X147744337Y-103161331D01*
X147600000Y-103142329D01*
X147455662Y-103161331D01*
X147321163Y-103217044D01*
X147321162Y-103217044D01*
X147205667Y-103305666D01*
X147177268Y-103342678D01*
X147133884Y-103370317D01*
X147117607Y-103372100D01*
X142180759Y-103372100D01*
X142132421Y-103354507D01*
X142121099Y-103342678D01*
X142054334Y-103255668D01*
X142054331Y-103255666D01*
X141996553Y-103211331D01*
X141938838Y-103167044D01*
X141938837Y-103167043D01*
X141879352Y-103142403D01*
X141841427Y-103107651D01*
X141834714Y-103056651D01*
X141862353Y-103013267D01*
X141879346Y-103003456D01*
X141928836Y-102982957D01*
X142044333Y-102894333D01*
X142132957Y-102778836D01*
X142188669Y-102644336D01*
X142207671Y-102500000D01*
X142193355Y-102391259D01*
X142204489Y-102341040D01*
X142214733Y-102328275D01*
X142253086Y-102289924D01*
X142299707Y-102268186D01*
X142306259Y-102267900D01*
X147713742Y-102267900D01*
X147762080Y-102285493D01*
G37*
%TD.AperFunction*%
%TA.AperFunction,Conductor*%
G36*
X158116734Y-90946460D02*
G01*
X158162053Y-90948912D01*
X158199616Y-90984057D01*
X158205799Y-91035123D01*
X158185729Y-91071259D01*
X157637628Y-91619360D01*
X157601037Y-91682736D01*
X157601035Y-91682741D01*
X157600153Y-91686031D01*
X157600154Y-91686032D01*
X157600154Y-91686033D01*
X157584142Y-91745795D01*
X157582100Y-91753415D01*
X157582100Y-98443741D01*
X157564507Y-98492079D01*
X157560074Y-98496915D01*
X151177353Y-104879635D01*
X151133996Y-104901017D01*
X151111298Y-104904006D01*
X151055662Y-104911331D01*
X150921163Y-104967044D01*
X150921162Y-104967044D01*
X150808879Y-105053202D01*
X150759819Y-105068670D01*
X150712295Y-105048985D01*
X150688543Y-105003357D01*
X150687900Y-104993542D01*
X150687900Y-104503415D01*
X150668962Y-104432734D01*
X150668961Y-104432732D01*
X150650668Y-104401050D01*
X150650668Y-104401049D01*
X150650666Y-104401047D01*
X150632375Y-104369365D01*
X150632373Y-104369363D01*
X150632371Y-104369360D01*
X150578020Y-104315009D01*
X150577997Y-104314988D01*
X148119285Y-101856274D01*
X148097545Y-101809654D01*
X148110859Y-101759967D01*
X148152996Y-101730462D01*
X148172459Y-101727900D01*
X149303742Y-101727900D01*
X149352080Y-101745493D01*
X149356916Y-101749926D01*
X149535261Y-101928271D01*
X149557001Y-101974891D01*
X149556644Y-101991260D01*
X149542329Y-102099999D01*
X149561331Y-102244337D01*
X149571210Y-102268186D01*
X149617043Y-102378836D01*
X149617044Y-102378838D01*
X149617045Y-102378839D01*
X149705666Y-102494333D01*
X149821160Y-102582954D01*
X149821164Y-102582957D01*
X149955664Y-102638669D01*
X150100000Y-102657671D01*
X150244336Y-102638669D01*
X150378836Y-102582957D01*
X150494333Y-102494333D01*
X150582957Y-102378836D01*
X150638669Y-102244336D01*
X150657671Y-102100000D01*
X150638669Y-101955664D01*
X150582957Y-101821165D01*
X150574877Y-101810635D01*
X150494333Y-101705666D01*
X150378839Y-101617045D01*
X150378838Y-101617044D01*
X150378836Y-101617043D01*
X150291891Y-101581029D01*
X150244337Y-101561331D01*
X150124162Y-101545510D01*
X150100000Y-101542329D01*
X150099999Y-101542329D01*
X149991260Y-101556644D01*
X149941039Y-101545510D01*
X149928275Y-101535265D01*
X149620635Y-101227625D01*
X149557266Y-101191038D01*
X149557263Y-101191037D01*
X149557264Y-101191037D01*
X149512454Y-101179031D01*
X149486586Y-101172100D01*
X149486585Y-101172100D01*
X142896258Y-101172100D01*
X142847920Y-101154507D01*
X142843084Y-101150074D01*
X141599926Y-99906916D01*
X141578186Y-99860296D01*
X141577900Y-99853742D01*
X141577900Y-98793100D01*
X141595493Y-98744762D01*
X141640042Y-98719042D01*
X141653100Y-98717900D01*
X144274790Y-98717900D01*
X144274800Y-98717900D01*
X144288557Y-98717300D01*
X144301615Y-98716158D01*
X144366807Y-98695604D01*
X144411356Y-98669884D01*
X144433904Y-98654095D01*
X144480785Y-98587141D01*
X144498378Y-98538803D01*
X144507899Y-98484804D01*
X144507900Y-98484804D01*
X144507900Y-97537602D01*
X147932100Y-97537602D01*
X147962379Y-97689823D01*
X147962380Y-97689825D01*
X147987275Y-97749926D01*
X148021772Y-97833210D01*
X148106855Y-97960546D01*
X148108000Y-97962260D01*
X148217739Y-98071999D01*
X148217742Y-98072001D01*
X148217743Y-98072002D01*
X148346790Y-98158228D01*
X148490178Y-98217621D01*
X148581839Y-98235853D01*
X148642397Y-98247900D01*
X148642399Y-98247900D01*
X155697603Y-98247900D01*
X155748113Y-98237852D01*
X155849822Y-98217621D01*
X155993210Y-98158228D01*
X156122257Y-98072002D01*
X156232002Y-97962257D01*
X156318228Y-97833210D01*
X156377621Y-97689822D01*
X156407900Y-97537601D01*
X156407900Y-97382399D01*
X156377621Y-97230178D01*
X156318228Y-97086790D01*
X156232002Y-96957743D01*
X156203881Y-96929622D01*
X156182142Y-96883004D01*
X156187580Y-96847674D01*
X156238669Y-96724336D01*
X156257671Y-96580000D01*
X156238669Y-96435664D01*
X156182957Y-96301165D01*
X156182955Y-96301162D01*
X156094333Y-96185666D01*
X155978839Y-96097045D01*
X155978838Y-96097044D01*
X155978836Y-96097043D01*
X155882698Y-96057221D01*
X155844337Y-96041331D01*
X155700000Y-96022329D01*
X155555662Y-96041331D01*
X155450239Y-96085000D01*
X155434417Y-96091554D01*
X155421163Y-96097044D01*
X155421162Y-96097044D01*
X155305666Y-96185666D01*
X155217044Y-96301162D01*
X155217044Y-96301163D01*
X155161331Y-96435662D01*
X155142329Y-96580000D01*
X155143262Y-96587085D01*
X155132128Y-96637305D01*
X155091318Y-96668620D01*
X155068705Y-96672100D01*
X148642397Y-96672100D01*
X148490176Y-96702379D01*
X148490174Y-96702380D01*
X148346791Y-96761771D01*
X148217739Y-96848000D01*
X148108000Y-96957739D01*
X148021771Y-97086791D01*
X147962380Y-97230174D01*
X147962379Y-97230176D01*
X147932100Y-97382397D01*
X147932100Y-97537602D01*
X144507900Y-97537602D01*
X144507900Y-96460833D01*
X144507900Y-96460828D01*
X144502170Y-96418677D01*
X144496241Y-96397273D01*
X144491456Y-96379996D01*
X144491454Y-96379992D01*
X144491453Y-96379987D01*
X144474681Y-96340899D01*
X144474679Y-96340895D01*
X144474679Y-96340894D01*
X144357311Y-96145283D01*
X144357304Y-96145271D01*
X144357297Y-96145261D01*
X144357293Y-96145255D01*
X144342021Y-96124018D01*
X144342013Y-96124007D01*
X144337281Y-96118463D01*
X144325866Y-96105088D01*
X144259764Y-96059215D01*
X144259766Y-96059215D01*
X144211427Y-96041622D01*
X144157427Y-96032100D01*
X144157423Y-96032100D01*
X143613490Y-96032100D01*
X143565152Y-96014507D01*
X143539432Y-95969958D01*
X143538290Y-95956774D01*
X143539721Y-95100000D01*
X144022329Y-95100000D01*
X144041331Y-95244337D01*
X144054689Y-95276586D01*
X144097043Y-95378836D01*
X144097044Y-95378838D01*
X144097045Y-95378839D01*
X144185666Y-95494333D01*
X144278300Y-95565413D01*
X144301164Y-95582957D01*
X144435664Y-95638669D01*
X144580000Y-95657671D01*
X144724336Y-95638669D01*
X144858836Y-95582957D01*
X144974333Y-95494333D01*
X144989868Y-95474088D01*
X145060284Y-95382321D01*
X145103668Y-95354682D01*
X145119944Y-95352900D01*
X146135342Y-95352900D01*
X146183680Y-95370493D01*
X146204817Y-95399321D01*
X146217043Y-95428837D01*
X146217044Y-95428838D01*
X146305666Y-95544333D01*
X146389085Y-95608342D01*
X146421164Y-95632957D01*
X146555664Y-95688669D01*
X146700000Y-95707671D01*
X146844336Y-95688669D01*
X146978836Y-95632957D01*
X147094333Y-95544333D01*
X147182957Y-95428836D01*
X147238669Y-95294336D01*
X147255038Y-95170000D01*
X148562329Y-95170000D01*
X148573639Y-95255913D01*
X148581331Y-95314336D01*
X148637043Y-95448836D01*
X148637044Y-95448838D01*
X148637045Y-95448839D01*
X148725666Y-95564333D01*
X148824799Y-95640400D01*
X148841164Y-95652957D01*
X148975664Y-95708669D01*
X149120000Y-95727671D01*
X149264336Y-95708669D01*
X149398836Y-95652957D01*
X149398842Y-95652952D01*
X149403103Y-95650493D01*
X149404489Y-95652894D01*
X149440727Y-95640400D01*
X155241927Y-95640400D01*
X155241930Y-95640400D01*
X155316197Y-95620500D01*
X155361568Y-95608343D01*
X155468832Y-95546414D01*
X155556414Y-95458832D01*
X156505832Y-94509412D01*
X156540274Y-94492567D01*
X156539572Y-94489946D01*
X156544331Y-94488670D01*
X156544332Y-94488669D01*
X156544336Y-94488669D01*
X156678836Y-94432957D01*
X156794333Y-94344333D01*
X156882957Y-94228836D01*
X156938669Y-94094336D01*
X156957671Y-93950000D01*
X156938669Y-93805664D01*
X156882957Y-93671165D01*
X156882955Y-93671162D01*
X156794333Y-93555666D01*
X156678839Y-93467045D01*
X156678838Y-93467044D01*
X156678836Y-93467043D01*
X156591891Y-93431029D01*
X156544337Y-93411331D01*
X156400000Y-93392329D01*
X156255662Y-93411331D01*
X156121163Y-93467044D01*
X156121162Y-93467044D01*
X156005666Y-93555666D01*
X155917044Y-93671162D01*
X155917040Y-93671169D01*
X155861332Y-93805658D01*
X155860056Y-93810422D01*
X155858107Y-93809900D01*
X155840587Y-93844165D01*
X155007180Y-94677574D01*
X154960560Y-94699314D01*
X154954006Y-94699600D01*
X149440727Y-94699600D01*
X149404489Y-94687105D01*
X149403103Y-94689507D01*
X149398834Y-94687042D01*
X149264337Y-94631331D01*
X149120000Y-94612329D01*
X148975662Y-94631331D01*
X148871818Y-94674346D01*
X148841168Y-94687042D01*
X148841163Y-94687044D01*
X148841162Y-94687044D01*
X148725666Y-94775666D01*
X148637044Y-94891162D01*
X148637044Y-94891163D01*
X148581331Y-95025662D01*
X148562329Y-95170000D01*
X147255038Y-95170000D01*
X147257671Y-95150000D01*
X147238669Y-95005664D01*
X147182957Y-94871165D01*
X147182955Y-94871162D01*
X147094333Y-94755666D01*
X146978839Y-94667045D01*
X146978838Y-94667044D01*
X146978836Y-94667043D01*
X146858131Y-94617045D01*
X146844337Y-94611331D01*
X146700000Y-94592329D01*
X146555662Y-94611331D01*
X146421163Y-94667044D01*
X146421162Y-94667044D01*
X146305667Y-94755666D01*
X146285352Y-94782142D01*
X146258083Y-94817679D01*
X146214702Y-94845317D01*
X146198425Y-94847100D01*
X145119943Y-94847100D01*
X145071605Y-94829507D01*
X145060283Y-94817679D01*
X144974333Y-94705666D01*
X144858839Y-94617045D01*
X144858838Y-94617044D01*
X144858836Y-94617043D01*
X144770566Y-94580480D01*
X144724337Y-94561331D01*
X144580000Y-94542329D01*
X144435662Y-94561331D01*
X144341151Y-94600480D01*
X144312546Y-94612329D01*
X144301163Y-94617044D01*
X144301162Y-94617044D01*
X144185666Y-94705666D01*
X144097044Y-94821162D01*
X144097044Y-94821163D01*
X144041331Y-94955662D01*
X144022329Y-95100000D01*
X143539721Y-95100000D01*
X143540407Y-94689507D01*
X143543862Y-92621660D01*
X143549396Y-92593476D01*
X143853719Y-91844782D01*
X143888219Y-91806628D01*
X143923384Y-91797900D01*
X146936877Y-91797900D01*
X146985215Y-91815493D01*
X147003762Y-91838728D01*
X147314112Y-92442653D01*
X147322426Y-92476588D01*
X147331667Y-94066151D01*
X147332306Y-94079468D01*
X147333446Y-94092073D01*
X147333446Y-94092074D01*
X147353959Y-94156804D01*
X147353960Y-94156807D01*
X147359928Y-94167144D01*
X147379679Y-94201355D01*
X147379682Y-94201359D01*
X147395469Y-94223904D01*
X147462420Y-94270783D01*
X147462421Y-94270783D01*
X147462423Y-94270785D01*
X147510761Y-94288378D01*
X147564759Y-94297899D01*
X147564760Y-94297900D01*
X147564764Y-94297900D01*
X148204790Y-94297900D01*
X148204800Y-94297900D01*
X148218557Y-94297300D01*
X148231615Y-94296158D01*
X148296807Y-94275604D01*
X148341356Y-94249884D01*
X148363904Y-94234095D01*
X148410785Y-94167141D01*
X148428378Y-94118803D01*
X148437899Y-94064804D01*
X148437900Y-94064804D01*
X148437900Y-92592788D01*
X148437900Y-92592786D01*
X148436540Y-92583951D01*
X148446575Y-92533501D01*
X148486692Y-92501303D01*
X148491393Y-92499876D01*
X148542135Y-92486281D01*
X148673365Y-92410515D01*
X148780515Y-92303365D01*
X148803474Y-92263600D01*
X148842879Y-92230535D01*
X148868599Y-92226000D01*
X149450000Y-92226000D01*
X149450000Y-92734000D01*
X148742000Y-92734000D01*
X148742000Y-93129279D01*
X148780737Y-93324025D01*
X148780738Y-93324026D01*
X148856721Y-93507465D01*
X148967037Y-93672564D01*
X148967039Y-93672567D01*
X149107432Y-93812960D01*
X149107435Y-93812962D01*
X149272534Y-93923278D01*
X149455973Y-93999261D01*
X149455975Y-93999262D01*
X149496000Y-94007223D01*
X149496000Y-93190060D01*
X149509940Y-93214205D01*
X149565795Y-93270060D01*
X149634204Y-93309556D01*
X149710504Y-93330000D01*
X149789496Y-93330000D01*
X149865796Y-93309556D01*
X149934205Y-93270060D01*
X149990060Y-93214205D01*
X150004000Y-93190060D01*
X150004000Y-94007223D01*
X150044024Y-93999262D01*
X150044026Y-93999261D01*
X150227465Y-93923278D01*
X150392564Y-93812962D01*
X150392567Y-93812960D01*
X150532960Y-93672567D01*
X150532962Y-93672564D01*
X150643278Y-93507465D01*
X150719261Y-93324026D01*
X150719262Y-93324025D01*
X150758000Y-93129279D01*
X150758000Y-92734000D01*
X150050000Y-92734000D01*
X150050000Y-92226000D01*
X150758000Y-92226000D01*
X150758000Y-91830720D01*
X150719262Y-91635974D01*
X150719261Y-91635973D01*
X150643278Y-91452534D01*
X150532962Y-91287435D01*
X150532960Y-91287432D01*
X150392567Y-91147039D01*
X150392558Y-91147031D01*
X150335080Y-91108626D01*
X150304663Y-91067143D01*
X150308028Y-91015813D01*
X150343599Y-90978655D01*
X150376859Y-90970900D01*
X157985096Y-90970900D01*
X158057447Y-90956508D01*
X158112777Y-90945502D01*
X158112778Y-90945501D01*
X158116400Y-90944781D01*
X158116734Y-90946460D01*
G37*
%TD.AperFunction*%
%TA.AperFunction,Conductor*%
G36*
X161118527Y-85358894D02*
G01*
X161123321Y-85363284D01*
X162969801Y-87206809D01*
X167298652Y-91528734D01*
X167320810Y-91550856D01*
X167342587Y-91597459D01*
X167342878Y-91604073D01*
X167342878Y-93056898D01*
X167325285Y-93105236D01*
X167287142Y-93129534D01*
X167232126Y-93144276D01*
X167185411Y-93156793D01*
X167094088Y-93209519D01*
X167094082Y-93209523D01*
X167019523Y-93284082D01*
X167019519Y-93284088D01*
X166966793Y-93375411D01*
X166961434Y-93395413D01*
X166939500Y-93477273D01*
X166939500Y-93582727D01*
X166959969Y-93659122D01*
X166966793Y-93684588D01*
X167019519Y-93775911D01*
X167019523Y-93775917D01*
X167090432Y-93846826D01*
X167112172Y-93893446D01*
X167098858Y-93943133D01*
X167090432Y-93953174D01*
X167029523Y-94014082D01*
X167029519Y-94014088D01*
X166976793Y-94105411D01*
X166971434Y-94125413D01*
X166949500Y-94207273D01*
X166949500Y-94312727D01*
X166957969Y-94344333D01*
X166976793Y-94414588D01*
X167029519Y-94505911D01*
X167029523Y-94505917D01*
X167107572Y-94583966D01*
X167106589Y-94584948D01*
X167131051Y-94623346D01*
X167124338Y-94674346D01*
X167110809Y-94692797D01*
X167039520Y-94764086D01*
X167039519Y-94764088D01*
X166986793Y-94855411D01*
X166982572Y-94871165D01*
X166959500Y-94957273D01*
X166959500Y-95062727D01*
X166976156Y-95124890D01*
X166986793Y-95164588D01*
X167039519Y-95255911D01*
X167039523Y-95255917D01*
X167085432Y-95301826D01*
X167107172Y-95348446D01*
X167093858Y-95398133D01*
X167085432Y-95408174D01*
X167019523Y-95474082D01*
X167019519Y-95474088D01*
X166966793Y-95565411D01*
X166962093Y-95582954D01*
X166939500Y-95667273D01*
X166939500Y-95772727D01*
X166959969Y-95849122D01*
X166966793Y-95874588D01*
X167019519Y-95965911D01*
X167019523Y-95965917D01*
X167085432Y-96031826D01*
X167107172Y-96078446D01*
X167093858Y-96128133D01*
X167085432Y-96138174D01*
X167019523Y-96204082D01*
X167019519Y-96204088D01*
X166966793Y-96295411D01*
X166954606Y-96340895D01*
X166939500Y-96397273D01*
X166939500Y-96502727D01*
X166959969Y-96579122D01*
X166966793Y-96604588D01*
X167019519Y-96695911D01*
X167019523Y-96695917D01*
X167094082Y-96770476D01*
X167094085Y-96770478D01*
X167094087Y-96770480D01*
X167185413Y-96823207D01*
X167287143Y-96850465D01*
X167329278Y-96879967D01*
X167342878Y-96923101D01*
X167342878Y-114740744D01*
X167341819Y-118186258D01*
X167341646Y-118747251D01*
X167324038Y-118795583D01*
X167285910Y-118819865D01*
X167242126Y-118831597D01*
X167185411Y-118846793D01*
X167094088Y-118899519D01*
X167094082Y-118899523D01*
X167019523Y-118974082D01*
X167019519Y-118974088D01*
X166966793Y-119065411D01*
X166956076Y-119105411D01*
X166939500Y-119167273D01*
X166939500Y-119272727D01*
X166952479Y-119321165D01*
X166966793Y-119374588D01*
X167019519Y-119465911D01*
X167019523Y-119465917D01*
X167085432Y-119531826D01*
X167107172Y-119578446D01*
X167093858Y-119628133D01*
X167085432Y-119638174D01*
X167019523Y-119704082D01*
X167019519Y-119704088D01*
X166966793Y-119795411D01*
X166962884Y-119810000D01*
X166939500Y-119897273D01*
X166939500Y-120002727D01*
X166951252Y-120046586D01*
X166966793Y-120104588D01*
X167019519Y-120195911D01*
X167019523Y-120195917D01*
X167055432Y-120231826D01*
X167077172Y-120278446D01*
X167063858Y-120328133D01*
X167055432Y-120338174D01*
X167019523Y-120374082D01*
X167019519Y-120374088D01*
X166966793Y-120465411D01*
X166954168Y-120512532D01*
X166939500Y-120567273D01*
X166939500Y-120672727D01*
X166959535Y-120747500D01*
X166966793Y-120774588D01*
X167008376Y-120846612D01*
X167018754Y-120864587D01*
X167019519Y-120865911D01*
X167019523Y-120865917D01*
X167080432Y-120926826D01*
X167102172Y-120973446D01*
X167088858Y-121023133D01*
X167080432Y-121033174D01*
X167009523Y-121104082D01*
X167009519Y-121104088D01*
X166956793Y-121195411D01*
X166943146Y-121246343D01*
X166929500Y-121297273D01*
X166929500Y-121402727D01*
X166948255Y-121472724D01*
X166956793Y-121504588D01*
X167009519Y-121595911D01*
X167009523Y-121595917D01*
X167060432Y-121646826D01*
X167082172Y-121693446D01*
X167068858Y-121743133D01*
X167060432Y-121753174D01*
X167019523Y-121794082D01*
X167019519Y-121794088D01*
X166966793Y-121885411D01*
X166953146Y-121936343D01*
X166939500Y-121987273D01*
X166939500Y-122092727D01*
X166947478Y-122122500D01*
X166966793Y-122194588D01*
X166977264Y-122212724D01*
X167012141Y-122273133D01*
X167019519Y-122285911D01*
X167019523Y-122285917D01*
X167094082Y-122360476D01*
X167094085Y-122360478D01*
X167094087Y-122360480D01*
X167134354Y-122383728D01*
X167185410Y-122413206D01*
X167185412Y-122413206D01*
X167185413Y-122413207D01*
X167284752Y-122439824D01*
X167326887Y-122469328D01*
X167340487Y-122512484D01*
X167340009Y-124068865D01*
X167322401Y-124117197D01*
X167317983Y-124122016D01*
X161122016Y-130317983D01*
X161075396Y-130339723D01*
X161068865Y-130340009D01*
X157161828Y-130341211D01*
X155812424Y-130341211D01*
X155764086Y-130323618D01*
X155746280Y-130299330D01*
X155745672Y-130299682D01*
X155696253Y-130214087D01*
X155690480Y-130204087D01*
X155690478Y-130204085D01*
X155690476Y-130204082D01*
X155615917Y-130129523D01*
X155615911Y-130129519D01*
X155612121Y-130127331D01*
X155554543Y-130094088D01*
X155524588Y-130076793D01*
X155487266Y-130066793D01*
X155422727Y-130049500D01*
X155317273Y-130049500D01*
X155256157Y-130065875D01*
X155215411Y-130076793D01*
X155124088Y-130129519D01*
X155124085Y-130129521D01*
X155113172Y-130140434D01*
X155066551Y-130162172D01*
X155016864Y-130148857D01*
X155006827Y-130140434D01*
X154985913Y-130119520D01*
X154947205Y-130097172D01*
X154894588Y-130066793D01*
X154857266Y-130056793D01*
X154792727Y-130039500D01*
X154687273Y-130039500D01*
X154626157Y-130055875D01*
X154585411Y-130066793D01*
X154494088Y-130119519D01*
X154494082Y-130119523D01*
X154486275Y-130127331D01*
X154439655Y-130149071D01*
X154395501Y-130139282D01*
X154304588Y-130086793D01*
X154267266Y-130076793D01*
X154202727Y-130059500D01*
X154097273Y-130059500D01*
X154037813Y-130075432D01*
X153995411Y-130086793D01*
X153904088Y-130139519D01*
X153904086Y-130139520D01*
X153834330Y-130209276D01*
X153787710Y-130231015D01*
X153738023Y-130217701D01*
X153716031Y-130193702D01*
X153715976Y-130193607D01*
X153710480Y-130184087D01*
X153710478Y-130184085D01*
X153710476Y-130184082D01*
X153635917Y-130109523D01*
X153635911Y-130109519D01*
X153544588Y-130056793D01*
X153517369Y-130049500D01*
X153442727Y-130029500D01*
X153337273Y-130029500D01*
X153276157Y-130045875D01*
X153235411Y-130056793D01*
X153144088Y-130109519D01*
X153144082Y-130109523D01*
X153069523Y-130184082D01*
X153069519Y-130184088D01*
X153016793Y-130275412D01*
X153014098Y-130285472D01*
X152984595Y-130327610D01*
X152941460Y-130341211D01*
X136862655Y-130341211D01*
X136814317Y-130323618D01*
X136790018Y-130285476D01*
X136763207Y-130185413D01*
X136763206Y-130185412D01*
X136763206Y-130185410D01*
X136719390Y-130109520D01*
X136710480Y-130094087D01*
X136710478Y-130094085D01*
X136710476Y-130094082D01*
X136635917Y-130019523D01*
X136635911Y-130019519D01*
X136544588Y-129966793D01*
X136507266Y-129956793D01*
X136442727Y-129939500D01*
X136337273Y-129939500D01*
X136276157Y-129955875D01*
X136235411Y-129966793D01*
X136144088Y-130019519D01*
X136144082Y-130019523D01*
X136093174Y-130070432D01*
X136046554Y-130092172D01*
X135996867Y-130078858D01*
X135986826Y-130070432D01*
X135925917Y-130009523D01*
X135925911Y-130009519D01*
X135834588Y-129956793D01*
X135809122Y-129949969D01*
X135732727Y-129929500D01*
X135627273Y-129929500D01*
X135566157Y-129945875D01*
X135525411Y-129956793D01*
X135434088Y-130009519D01*
X135434082Y-130009523D01*
X135368174Y-130075432D01*
X135321554Y-130097172D01*
X135271867Y-130083858D01*
X135261826Y-130075432D01*
X135205917Y-130019523D01*
X135205911Y-130019519D01*
X135114588Y-129966793D01*
X135077266Y-129956793D01*
X135012727Y-129939500D01*
X134907273Y-129939500D01*
X134846157Y-129955875D01*
X134805411Y-129966793D01*
X134714088Y-130019519D01*
X134714082Y-130019523D01*
X134648174Y-130085432D01*
X134601554Y-130107172D01*
X134551867Y-130093858D01*
X134541826Y-130085432D01*
X134475917Y-130019523D01*
X134475911Y-130019519D01*
X134384588Y-129966793D01*
X134347266Y-129956793D01*
X134282727Y-129939500D01*
X134177273Y-129939500D01*
X134116157Y-129955875D01*
X134075411Y-129966793D01*
X133984088Y-130019519D01*
X133984082Y-130019523D01*
X133909523Y-130094082D01*
X133909519Y-130094088D01*
X133856793Y-130185410D01*
X133844607Y-130230889D01*
X133829981Y-130285476D01*
X133800478Y-130327611D01*
X133757345Y-130341211D01*
X128602410Y-130341211D01*
X128554072Y-130323618D01*
X128549193Y-130319143D01*
X122364951Y-124124991D01*
X122343249Y-124078353D01*
X122342968Y-124071859D01*
X122342968Y-122628856D01*
X122360561Y-122580518D01*
X122398702Y-122556219D01*
X122484587Y-122533207D01*
X122575913Y-122480480D01*
X122650480Y-122405913D01*
X122703207Y-122314587D01*
X122730500Y-122212727D01*
X122730500Y-122107273D01*
X122703207Y-122005413D01*
X122650480Y-121914087D01*
X122650478Y-121914085D01*
X122650476Y-121914082D01*
X122584568Y-121848174D01*
X122562828Y-121801554D01*
X122576142Y-121751867D01*
X122584568Y-121741826D01*
X122660476Y-121665917D01*
X122660480Y-121665913D01*
X122713207Y-121574587D01*
X122740500Y-121472727D01*
X122740500Y-121367273D01*
X122713207Y-121265413D01*
X122660480Y-121174087D01*
X122660478Y-121174085D01*
X122660476Y-121174082D01*
X122609568Y-121123174D01*
X122587828Y-121076554D01*
X122601142Y-121026867D01*
X122609568Y-121016826D01*
X122670476Y-120955917D01*
X122670480Y-120955913D01*
X122723207Y-120864587D01*
X122750500Y-120762727D01*
X122750500Y-120657273D01*
X122723207Y-120555413D01*
X122670480Y-120464087D01*
X122670478Y-120464085D01*
X122670476Y-120464082D01*
X122604568Y-120398174D01*
X122582828Y-120351554D01*
X122596142Y-120301867D01*
X122604568Y-120291826D01*
X122660476Y-120235917D01*
X122660480Y-120235913D01*
X122713207Y-120144587D01*
X122740500Y-120042727D01*
X122740500Y-119937273D01*
X122713207Y-119835413D01*
X122660480Y-119744087D01*
X122660478Y-119744085D01*
X122660476Y-119744082D01*
X122594568Y-119678174D01*
X122572828Y-119631554D01*
X122586142Y-119581867D01*
X122594568Y-119571826D01*
X122660476Y-119505917D01*
X122660480Y-119505913D01*
X122713207Y-119414587D01*
X122740500Y-119312727D01*
X122740500Y-119207273D01*
X122713207Y-119105413D01*
X122660480Y-119014087D01*
X122660478Y-119014085D01*
X122660476Y-119014082D01*
X122585917Y-118939523D01*
X122585911Y-118939519D01*
X122494588Y-118886793D01*
X122441676Y-118872615D01*
X122398704Y-118861101D01*
X122356568Y-118831597D01*
X122342968Y-118788464D01*
X122342968Y-113745093D01*
X125199100Y-113745093D01*
X125224498Y-113872778D01*
X125224499Y-113872780D01*
X125256439Y-113949890D01*
X125274318Y-113993054D01*
X125346645Y-114101299D01*
X125346647Y-114101301D01*
X125346649Y-114101304D01*
X126146645Y-114901299D01*
X126757074Y-115511728D01*
X126778814Y-115558348D01*
X126779100Y-115564902D01*
X126779100Y-120755093D01*
X126804498Y-120882778D01*
X126804499Y-120882780D01*
X126848035Y-120987886D01*
X126854318Y-121003054D01*
X126926645Y-121111299D01*
X126926647Y-121111301D01*
X126926649Y-121111304D01*
X127507459Y-121692113D01*
X128076643Y-122261297D01*
X128076645Y-122261299D01*
X128467630Y-122652284D01*
X128837074Y-123021727D01*
X128858814Y-123068347D01*
X128859100Y-123074901D01*
X128859100Y-123965093D01*
X128884498Y-124092778D01*
X128884499Y-124092780D01*
X128894613Y-124117197D01*
X128934318Y-124213054D01*
X129006645Y-124321299D01*
X129006647Y-124321301D01*
X129006649Y-124321304D01*
X129098695Y-124413350D01*
X129098698Y-124413352D01*
X129098701Y-124413355D01*
X129206946Y-124485682D01*
X129327223Y-124535502D01*
X129423201Y-124554593D01*
X129454906Y-124560900D01*
X129454907Y-124560900D01*
X129965094Y-124560900D01*
X129990492Y-124555847D01*
X130092777Y-124535502D01*
X130213054Y-124485682D01*
X130321299Y-124413355D01*
X130853355Y-123881299D01*
X130925682Y-123773054D01*
X130975502Y-123652777D01*
X131000900Y-123525093D01*
X131000900Y-123394907D01*
X131000900Y-122705458D01*
X131018493Y-122657120D01*
X131063042Y-122631400D01*
X131113700Y-122640333D01*
X131129274Y-122652284D01*
X136149360Y-127672371D01*
X136149362Y-127672372D01*
X136149365Y-127672375D01*
X136212734Y-127708962D01*
X136283414Y-127727900D01*
X137529240Y-127727900D01*
X137577578Y-127745493D01*
X137588900Y-127757321D01*
X137655666Y-127844333D01*
X137771160Y-127932954D01*
X137771164Y-127932957D01*
X137905664Y-127988669D01*
X138050000Y-128007671D01*
X138194336Y-127988669D01*
X138328836Y-127932957D01*
X138444333Y-127844333D01*
X138532957Y-127728836D01*
X138588669Y-127594336D01*
X138607671Y-127450000D01*
X138588669Y-127305664D01*
X138532957Y-127171165D01*
X138532955Y-127171162D01*
X138444333Y-127055666D01*
X138328839Y-126967045D01*
X138328838Y-126967044D01*
X138328836Y-126967043D01*
X138241891Y-126931029D01*
X138194337Y-126911331D01*
X138050000Y-126892329D01*
X137905662Y-126911331D01*
X137771163Y-126967044D01*
X137771162Y-126967044D01*
X137655665Y-127055668D01*
X137588901Y-127142678D01*
X137545518Y-127170317D01*
X137529241Y-127172100D01*
X136466258Y-127172100D01*
X136417920Y-127154507D01*
X136413084Y-127150074D01*
X132913010Y-123650000D01*
X137042329Y-123650000D01*
X137061331Y-123794336D01*
X137117043Y-123928836D01*
X137117044Y-123928838D01*
X137117045Y-123928839D01*
X137205666Y-124044333D01*
X137321160Y-124132954D01*
X137321164Y-124132957D01*
X137455664Y-124188669D01*
X137600000Y-124207671D01*
X137744336Y-124188669D01*
X137878836Y-124132957D01*
X137994333Y-124044333D01*
X138010912Y-124022727D01*
X138061100Y-123957321D01*
X138104484Y-123929683D01*
X138120760Y-123927900D01*
X139209645Y-123927900D01*
X139257983Y-123945493D01*
X139279119Y-123974320D01*
X139319043Y-124070703D01*
X139319044Y-124070705D01*
X139319045Y-124070706D01*
X139407666Y-124186200D01*
X139455735Y-124223084D01*
X139523164Y-124274824D01*
X139657664Y-124330536D01*
X139802000Y-124349538D01*
X139946336Y-124330536D01*
X140080836Y-124274824D01*
X140196333Y-124186200D01*
X140284957Y-124070703D01*
X140340669Y-123936203D01*
X140359671Y-123791867D01*
X140340669Y-123647531D01*
X140284957Y-123513032D01*
X140284955Y-123513029D01*
X140196333Y-123397533D01*
X140080839Y-123308912D01*
X140080838Y-123308911D01*
X140080836Y-123308910D01*
X139993891Y-123272896D01*
X139946337Y-123253198D01*
X139802000Y-123234196D01*
X139657662Y-123253198D01*
X139577409Y-123286441D01*
X139523165Y-123308910D01*
X139523164Y-123308910D01*
X139523161Y-123308912D01*
X139461066Y-123356560D01*
X139415287Y-123372100D01*
X138120759Y-123372100D01*
X138072421Y-123354507D01*
X138061099Y-123342678D01*
X137994334Y-123255668D01*
X137994331Y-123255666D01*
X137878836Y-123167043D01*
X137791891Y-123131029D01*
X137744337Y-123111331D01*
X137600000Y-123092329D01*
X137455662Y-123111331D01*
X137321163Y-123167044D01*
X137321162Y-123167044D01*
X137205666Y-123255666D01*
X137117044Y-123371162D01*
X137117044Y-123371163D01*
X137061331Y-123505662D01*
X137061331Y-123505664D01*
X137042329Y-123650000D01*
X132913010Y-123650000D01*
X131999560Y-122736550D01*
X131977820Y-122689930D01*
X131991134Y-122640243D01*
X132033271Y-122610738D01*
X132084515Y-122615222D01*
X132088183Y-122617056D01*
X132110228Y-122628839D01*
X132114350Y-122631042D01*
X132114354Y-122631043D01*
X132114356Y-122631044D01*
X132144978Y-122640333D01*
X132303397Y-122688389D01*
X132500000Y-122707753D01*
X132696603Y-122688389D01*
X132885650Y-122631042D01*
X133059878Y-122537916D01*
X133212589Y-122412589D01*
X133263955Y-122350000D01*
X137892329Y-122350000D01*
X137911331Y-122494337D01*
X137931029Y-122541891D01*
X137967043Y-122628836D01*
X137967044Y-122628838D01*
X137967045Y-122628839D01*
X138055666Y-122744333D01*
X138171160Y-122832954D01*
X138171164Y-122832957D01*
X138305664Y-122888669D01*
X138450000Y-122907671D01*
X138594336Y-122888669D01*
X138728836Y-122832957D01*
X138844333Y-122744333D01*
X138880753Y-122696870D01*
X138911100Y-122657321D01*
X138954484Y-122629683D01*
X138970760Y-122627900D01*
X139813742Y-122627900D01*
X139862080Y-122645493D01*
X139866916Y-122649926D01*
X141440074Y-124223084D01*
X141461814Y-124269704D01*
X141462100Y-124276258D01*
X141462100Y-124839241D01*
X141444507Y-124887579D01*
X141432678Y-124898901D01*
X141345668Y-124965665D01*
X141257044Y-125081162D01*
X141257044Y-125081163D01*
X141257043Y-125081164D01*
X141257043Y-125081165D01*
X141247485Y-125104238D01*
X141201331Y-125215662D01*
X141182329Y-125360000D01*
X141201331Y-125504336D01*
X141257043Y-125638836D01*
X141257044Y-125638838D01*
X141257045Y-125638839D01*
X141345666Y-125754333D01*
X141422605Y-125813370D01*
X141461164Y-125842957D01*
X141595664Y-125898669D01*
X141740000Y-125917671D01*
X141884336Y-125898669D01*
X142018836Y-125842957D01*
X142134333Y-125754333D01*
X142222957Y-125638836D01*
X142278669Y-125504336D01*
X142297671Y-125360000D01*
X142278669Y-125215664D01*
X142222957Y-125081165D01*
X142134333Y-124965667D01*
X142134332Y-124965666D01*
X142047321Y-124898899D01*
X142019682Y-124855515D01*
X142017900Y-124839239D01*
X142017900Y-124093416D01*
X142017900Y-124093414D01*
X141998962Y-124022735D01*
X141998959Y-124022730D01*
X141998958Y-124022727D01*
X141962376Y-123959366D01*
X141939213Y-123936203D01*
X141910635Y-123907625D01*
X141440635Y-123437625D01*
X140835964Y-122832954D01*
X140130639Y-122127628D01*
X140130636Y-122127626D01*
X140130635Y-122127625D01*
X140067266Y-122091038D01*
X140067263Y-122091037D01*
X140067264Y-122091037D01*
X140022454Y-122079031D01*
X139996586Y-122072100D01*
X139996585Y-122072100D01*
X138970759Y-122072100D01*
X138922421Y-122054507D01*
X138911099Y-122042678D01*
X138844334Y-121955668D01*
X138844331Y-121955666D01*
X138752774Y-121885411D01*
X138728839Y-121867045D01*
X138728838Y-121867044D01*
X138728836Y-121867043D01*
X138641891Y-121831029D01*
X138594337Y-121811331D01*
X138450000Y-121792329D01*
X138305662Y-121811331D01*
X138171163Y-121867044D01*
X138171162Y-121867044D01*
X138055666Y-121955666D01*
X137967044Y-122071162D01*
X137967044Y-122071163D01*
X137911331Y-122205662D01*
X137892329Y-122350000D01*
X133263955Y-122350000D01*
X133337916Y-122259878D01*
X133431042Y-122085650D01*
X133488389Y-121896603D01*
X133507753Y-121700000D01*
X133488389Y-121503397D01*
X133431042Y-121314350D01*
X133337916Y-121140122D01*
X133337913Y-121140118D01*
X133337910Y-121140114D01*
X133212589Y-120987410D01*
X133059885Y-120862089D01*
X133059881Y-120862086D01*
X133059879Y-120862085D01*
X133059878Y-120862084D01*
X132903375Y-120778432D01*
X132885647Y-120768956D01*
X132885643Y-120768955D01*
X132696600Y-120711610D01*
X132500000Y-120692247D01*
X132303400Y-120711610D01*
X132303398Y-120711610D01*
X132114356Y-120768955D01*
X132114352Y-120768956D01*
X131940118Y-120862086D01*
X131940114Y-120862089D01*
X131787410Y-120987410D01*
X131662089Y-121140114D01*
X131662086Y-121140118D01*
X131568956Y-121314352D01*
X131568955Y-121314356D01*
X131511610Y-121503398D01*
X131511610Y-121503400D01*
X131492247Y-121700000D01*
X131511610Y-121896599D01*
X131511610Y-121896601D01*
X131568955Y-122085643D01*
X131568958Y-122085651D01*
X131582944Y-122111817D01*
X131590213Y-122162740D01*
X131563049Y-122206423D01*
X131514162Y-122222425D01*
X131466426Y-122203259D01*
X131463449Y-122200439D01*
X131159926Y-121896916D01*
X131138186Y-121850296D01*
X131137900Y-121843742D01*
X131137900Y-118072459D01*
X131155493Y-118024121D01*
X131200042Y-117998401D01*
X131250700Y-118007334D01*
X131266274Y-118019285D01*
X131329360Y-118082371D01*
X131329362Y-118082372D01*
X131329365Y-118082375D01*
X131392734Y-118118962D01*
X131463414Y-118137900D01*
X131463415Y-118137900D01*
X131984491Y-118137900D01*
X132032829Y-118155493D01*
X132058549Y-118200042D01*
X132049616Y-118250700D01*
X132019940Y-118279420D01*
X131940126Y-118322081D01*
X131940114Y-118322089D01*
X131787410Y-118447410D01*
X131662089Y-118600114D01*
X131662086Y-118600118D01*
X131568956Y-118774352D01*
X131568955Y-118774356D01*
X131511610Y-118963398D01*
X131511610Y-118963400D01*
X131492247Y-119160000D01*
X131511610Y-119356599D01*
X131511610Y-119356601D01*
X131568955Y-119545643D01*
X131568956Y-119545647D01*
X131662086Y-119719881D01*
X131662089Y-119719885D01*
X131787410Y-119872589D01*
X131940114Y-119997910D01*
X131940118Y-119997913D01*
X131940122Y-119997916D01*
X132099224Y-120082957D01*
X132114352Y-120091043D01*
X132114356Y-120091044D01*
X132157593Y-120104159D01*
X132303397Y-120148389D01*
X132500000Y-120167753D01*
X132696603Y-120148389D01*
X132885650Y-120091042D01*
X133059878Y-119997916D01*
X133212589Y-119872589D01*
X133337916Y-119719878D01*
X133431042Y-119545650D01*
X133488389Y-119356603D01*
X133507753Y-119160000D01*
X133488389Y-118963397D01*
X133437483Y-118795583D01*
X133431044Y-118774356D01*
X133431043Y-118774352D01*
X133395185Y-118707266D01*
X133337916Y-118600122D01*
X133337913Y-118600118D01*
X133337910Y-118600114D01*
X133212589Y-118447410D01*
X133059885Y-118322089D01*
X133059880Y-118322085D01*
X133059878Y-118322084D01*
X133059875Y-118322082D01*
X133059873Y-118322081D01*
X132980060Y-118279420D01*
X132945723Y-118241118D01*
X132944040Y-118189706D01*
X132975798Y-118149240D01*
X133015509Y-118137900D01*
X134256585Y-118137900D01*
X134256586Y-118137900D01*
X134327266Y-118118962D01*
X134390635Y-118082375D01*
X134528637Y-117944373D01*
X134643313Y-117829697D01*
X134689933Y-117807957D01*
X134696487Y-117807671D01*
X134699996Y-117807671D01*
X134699998Y-117807670D01*
X134700000Y-117807671D01*
X134844336Y-117788669D01*
X134978836Y-117732957D01*
X135094333Y-117644333D01*
X135182957Y-117528836D01*
X135238669Y-117394336D01*
X135257671Y-117250000D01*
X135238669Y-117105664D01*
X135182957Y-116971165D01*
X135172180Y-116957120D01*
X135094333Y-116855666D01*
X134978839Y-116767045D01*
X134978838Y-116767044D01*
X134978836Y-116767043D01*
X134891891Y-116731029D01*
X134844337Y-116711331D01*
X134700000Y-116692329D01*
X134555662Y-116711331D01*
X134453276Y-116753742D01*
X134424461Y-116765678D01*
X134421163Y-116767044D01*
X134421162Y-116767044D01*
X134305666Y-116855666D01*
X134217044Y-116971162D01*
X134217044Y-116971163D01*
X134161331Y-117105662D01*
X134161331Y-117105664D01*
X134142329Y-117250000D01*
X134161331Y-117394336D01*
X134161331Y-117394338D01*
X134161332Y-117394339D01*
X134180565Y-117440773D01*
X134182808Y-117492164D01*
X134164265Y-117522723D01*
X134126917Y-117560073D01*
X134080297Y-117581814D01*
X134073741Y-117582100D01*
X133118730Y-117582100D01*
X133070392Y-117564507D01*
X133044672Y-117519958D01*
X133053605Y-117469300D01*
X133071023Y-117448770D01*
X133136211Y-117395271D01*
X133212589Y-117332589D01*
X133337916Y-117179878D01*
X133431042Y-117005650D01*
X133488389Y-116816603D01*
X133507753Y-116620000D01*
X133488389Y-116423397D01*
X133487006Y-116418839D01*
X133431044Y-116234356D01*
X133431043Y-116234352D01*
X133431042Y-116234350D01*
X133337916Y-116060122D01*
X133337913Y-116060118D01*
X133337910Y-116060114D01*
X133212589Y-115907410D01*
X133059885Y-115782089D01*
X133059881Y-115782086D01*
X133059879Y-115782085D01*
X133059878Y-115782084D01*
X132941195Y-115718647D01*
X132885647Y-115688956D01*
X132885643Y-115688955D01*
X132696600Y-115631610D01*
X132500000Y-115612247D01*
X132303400Y-115631610D01*
X132303398Y-115631610D01*
X132114356Y-115688955D01*
X132114352Y-115688956D01*
X131940118Y-115782086D01*
X131940114Y-115782089D01*
X131787410Y-115907410D01*
X131662089Y-116060114D01*
X131662086Y-116060118D01*
X131568956Y-116234352D01*
X131568955Y-116234356D01*
X131511613Y-116423390D01*
X131511610Y-116423400D01*
X131492247Y-116620000D01*
X131511610Y-116816599D01*
X131511610Y-116816601D01*
X131568955Y-117005643D01*
X131568956Y-117005647D01*
X131597333Y-117058737D01*
X131631001Y-117121726D01*
X131662086Y-117179881D01*
X131662089Y-117179885D01*
X131787408Y-117332586D01*
X131787409Y-117332587D01*
X131787411Y-117332589D01*
X131847567Y-117381958D01*
X131928977Y-117448770D01*
X131955181Y-117493035D01*
X131946801Y-117543788D01*
X131907759Y-117577280D01*
X131881270Y-117582100D01*
X131646258Y-117582100D01*
X131597920Y-117564507D01*
X131593084Y-117560074D01*
X130839926Y-116806916D01*
X130818186Y-116760296D01*
X130817900Y-116753742D01*
X130817900Y-112402458D01*
X130835493Y-112354120D01*
X130880042Y-112328400D01*
X130930700Y-112337333D01*
X130946274Y-112349284D01*
X131567624Y-112970634D01*
X131567625Y-112970635D01*
X131619365Y-113022375D01*
X131619366Y-113022376D01*
X131682727Y-113058958D01*
X131682730Y-113058959D01*
X131682735Y-113058962D01*
X131753414Y-113077900D01*
X131947074Y-113077900D01*
X131995412Y-113095493D01*
X132021132Y-113140042D01*
X132012199Y-113190700D01*
X131982524Y-113219419D01*
X131947937Y-113237906D01*
X131940118Y-113242086D01*
X131940114Y-113242089D01*
X131787410Y-113367410D01*
X131662089Y-113520114D01*
X131662086Y-113520118D01*
X131568956Y-113694352D01*
X131568955Y-113694356D01*
X131511610Y-113883398D01*
X131511610Y-113883400D01*
X131492247Y-114080000D01*
X131511610Y-114276599D01*
X131511610Y-114276601D01*
X131568955Y-114465643D01*
X131568956Y-114465647D01*
X131662086Y-114639881D01*
X131662089Y-114639885D01*
X131787410Y-114792589D01*
X131940114Y-114917910D01*
X131940118Y-114917913D01*
X131940122Y-114917916D01*
X132114350Y-115011042D01*
X132114352Y-115011043D01*
X132114356Y-115011044D01*
X132157593Y-115024159D01*
X132303397Y-115068389D01*
X132500000Y-115087753D01*
X132696603Y-115068389D01*
X132885650Y-115011042D01*
X133059878Y-114917916D01*
X133212589Y-114792589D01*
X133337916Y-114639878D01*
X133431042Y-114465650D01*
X133488389Y-114276603D01*
X133507753Y-114080000D01*
X133488389Y-113883397D01*
X133431042Y-113694350D01*
X133337916Y-113520122D01*
X133337913Y-113520118D01*
X133337910Y-113520114D01*
X133212589Y-113367410D01*
X133059885Y-113242089D01*
X133059881Y-113242086D01*
X133059879Y-113242085D01*
X133059878Y-113242084D01*
X133017475Y-113219419D01*
X132983141Y-113181119D01*
X132981457Y-113129706D01*
X133013215Y-113089240D01*
X133052926Y-113077900D01*
X136533742Y-113077900D01*
X136582080Y-113095493D01*
X136586916Y-113099926D01*
X137110074Y-113623084D01*
X137131814Y-113669704D01*
X137132100Y-113676258D01*
X137132100Y-118059933D01*
X137114507Y-118108271D01*
X137102679Y-118119593D01*
X137055666Y-118155666D01*
X136967044Y-118271162D01*
X136967044Y-118271163D01*
X136911331Y-118405662D01*
X136892329Y-118550000D01*
X136911331Y-118694337D01*
X136916687Y-118707266D01*
X136967043Y-118828836D01*
X136967044Y-118828838D01*
X136967045Y-118828839D01*
X137055666Y-118944333D01*
X137146572Y-119014087D01*
X137171164Y-119032957D01*
X137305664Y-119088669D01*
X137450000Y-119107671D01*
X137594336Y-119088669D01*
X137728836Y-119032957D01*
X137844333Y-118944333D01*
X137932957Y-118828836D01*
X137988669Y-118694336D01*
X138007671Y-118550000D01*
X137988669Y-118405664D01*
X137932957Y-118271165D01*
X137917254Y-118250700D01*
X137844333Y-118155666D01*
X137728836Y-118067043D01*
X137725498Y-118065116D01*
X137692434Y-118025710D01*
X137687900Y-117999992D01*
X137687900Y-113493413D01*
X137682445Y-113473055D01*
X137678087Y-113456788D01*
X137668962Y-113422734D01*
X137632375Y-113359365D01*
X137632372Y-113359362D01*
X137632371Y-113359360D01*
X136850639Y-112577628D01*
X136850636Y-112577626D01*
X136850635Y-112577625D01*
X136787266Y-112541038D01*
X136787263Y-112541037D01*
X136787264Y-112541037D01*
X136740058Y-112528389D01*
X136716586Y-112522100D01*
X136716585Y-112522100D01*
X133090344Y-112522100D01*
X133042006Y-112504507D01*
X133016286Y-112459958D01*
X133025219Y-112409300D01*
X133054894Y-112380580D01*
X133055069Y-112380485D01*
X133059878Y-112377916D01*
X133212589Y-112252589D01*
X133337916Y-112099878D01*
X133431042Y-111925650D01*
X133488389Y-111736603D01*
X133507753Y-111540000D01*
X133488389Y-111343397D01*
X133431042Y-111154350D01*
X133337916Y-110980122D01*
X133337913Y-110980118D01*
X133337910Y-110980114D01*
X133212589Y-110827410D01*
X133059885Y-110702089D01*
X133059881Y-110702086D01*
X133059879Y-110702085D01*
X133059878Y-110702084D01*
X132915315Y-110624814D01*
X132885647Y-110608956D01*
X132885643Y-110608955D01*
X132696600Y-110551610D01*
X132500000Y-110532247D01*
X132303400Y-110551610D01*
X132303398Y-110551610D01*
X132114356Y-110608955D01*
X132114352Y-110608956D01*
X131940118Y-110702086D01*
X131940114Y-110702089D01*
X131787410Y-110827410D01*
X131662089Y-110980114D01*
X131662086Y-110980118D01*
X131568956Y-111154352D01*
X131568955Y-111154356D01*
X131515062Y-111332021D01*
X131484195Y-111373170D01*
X131434098Y-111384851D01*
X131388214Y-111361598D01*
X131368012Y-111314292D01*
X131367900Y-111310192D01*
X131367900Y-110395275D01*
X131385493Y-110346937D01*
X131430042Y-110321217D01*
X131469381Y-110324817D01*
X131540900Y-110351493D01*
X131540907Y-110351495D01*
X131601406Y-110357999D01*
X131601418Y-110358000D01*
X132246000Y-110358000D01*
X132246000Y-109430702D01*
X132307007Y-109465925D01*
X132434174Y-109500000D01*
X132565826Y-109500000D01*
X132692993Y-109465925D01*
X132754000Y-109430702D01*
X132754000Y-110358000D01*
X133398582Y-110358000D01*
X133398593Y-110357999D01*
X133459092Y-110351495D01*
X133459095Y-110351494D01*
X133595963Y-110300444D01*
X133595965Y-110300443D01*
X133712903Y-110212903D01*
X133800443Y-110095965D01*
X133800444Y-110095963D01*
X133851494Y-109959095D01*
X133851495Y-109959092D01*
X133857999Y-109898593D01*
X133858000Y-109898582D01*
X133858000Y-109254000D01*
X132930703Y-109254000D01*
X132965925Y-109192993D01*
X133000000Y-109065826D01*
X133000000Y-108934174D01*
X132965925Y-108807007D01*
X132930703Y-108746000D01*
X133858000Y-108746000D01*
X133858000Y-108101418D01*
X133857999Y-108101406D01*
X133851495Y-108040907D01*
X133851494Y-108040904D01*
X133800444Y-107904036D01*
X133800443Y-107904034D01*
X133712903Y-107787096D01*
X133595965Y-107699556D01*
X133595961Y-107699554D01*
X133585883Y-107695795D01*
X133546741Y-107662419D01*
X133538210Y-107611691D01*
X133564283Y-107567348D01*
X133602344Y-107550779D01*
X133694336Y-107538669D01*
X133828836Y-107482957D01*
X133944333Y-107394333D01*
X134011100Y-107307321D01*
X134054484Y-107279683D01*
X134070760Y-107277900D01*
X135863742Y-107277900D01*
X135912080Y-107295493D01*
X135916916Y-107299926D01*
X136390074Y-107773084D01*
X136411814Y-107819704D01*
X136412100Y-107826258D01*
X136412100Y-109036913D01*
X136394507Y-109085251D01*
X136382679Y-109096573D01*
X136305666Y-109155666D01*
X136217044Y-109271162D01*
X136217044Y-109271163D01*
X136161331Y-109405662D01*
X136142329Y-109550000D01*
X136161331Y-109694337D01*
X136179511Y-109738226D01*
X136217043Y-109828836D01*
X136217044Y-109828838D01*
X136217045Y-109828839D01*
X136305666Y-109944333D01*
X136421160Y-110032954D01*
X136421164Y-110032957D01*
X136555664Y-110088669D01*
X136700000Y-110107671D01*
X136844336Y-110088669D01*
X136978836Y-110032957D01*
X137094333Y-109944333D01*
X137182957Y-109828836D01*
X137238669Y-109694336D01*
X137257671Y-109550000D01*
X137238669Y-109405664D01*
X137182957Y-109271165D01*
X137171065Y-109255667D01*
X137094333Y-109155666D01*
X136997321Y-109081226D01*
X136969682Y-109037842D01*
X136967900Y-109021566D01*
X136967900Y-107643416D01*
X136967900Y-107643414D01*
X136948962Y-107572735D01*
X136948959Y-107572730D01*
X136948958Y-107572727D01*
X136912376Y-107509366D01*
X136900334Y-107497324D01*
X136860635Y-107457625D01*
X136547346Y-107144336D01*
X136180639Y-106777628D01*
X136180636Y-106777626D01*
X136180635Y-106777625D01*
X136117266Y-106741038D01*
X136117263Y-106741037D01*
X136117264Y-106741037D01*
X136072454Y-106729031D01*
X136046586Y-106722100D01*
X136046585Y-106722100D01*
X134070759Y-106722100D01*
X134022421Y-106704507D01*
X134011099Y-106692678D01*
X133944334Y-106605668D01*
X133944331Y-106605666D01*
X133828836Y-106517043D01*
X133741891Y-106481029D01*
X133694337Y-106461331D01*
X133550000Y-106442329D01*
X133405662Y-106461331D01*
X133271163Y-106517044D01*
X133271162Y-106517044D01*
X133155666Y-106605666D01*
X133067044Y-106721162D01*
X133067044Y-106721163D01*
X133011331Y-106855662D01*
X132992329Y-107000000D01*
X133011331Y-107144337D01*
X133031029Y-107191891D01*
X133067043Y-107278836D01*
X133067044Y-107278838D01*
X133067045Y-107278839D01*
X133155666Y-107394333D01*
X133238152Y-107457626D01*
X133271164Y-107482957D01*
X133305850Y-107497324D01*
X133343775Y-107532077D01*
X133350489Y-107583077D01*
X133322851Y-107626460D01*
X133277072Y-107642000D01*
X132754000Y-107642000D01*
X132754000Y-108569297D01*
X132692993Y-108534075D01*
X132565826Y-108500000D01*
X132434174Y-108500000D01*
X132307007Y-108534075D01*
X132246000Y-108569297D01*
X132246000Y-107642000D01*
X131601406Y-107642000D01*
X131540907Y-107648504D01*
X131540904Y-107648505D01*
X131404036Y-107699555D01*
X131404034Y-107699556D01*
X131287096Y-107787096D01*
X131199556Y-107904034D01*
X131199555Y-107904036D01*
X131148505Y-108040904D01*
X131148504Y-108040907D01*
X131142000Y-108101406D01*
X131142000Y-108177442D01*
X131124407Y-108225780D01*
X131079858Y-108251500D01*
X131029200Y-108242567D01*
X131013626Y-108230616D01*
X128549926Y-105766916D01*
X128528186Y-105720296D01*
X128527900Y-105713742D01*
X128527900Y-104800000D01*
X131342329Y-104800000D01*
X131361331Y-104944337D01*
X131370737Y-104967044D01*
X131417043Y-105078836D01*
X131417044Y-105078838D01*
X131417045Y-105078839D01*
X131505666Y-105194333D01*
X131621160Y-105282954D01*
X131621164Y-105282957D01*
X131755664Y-105338669D01*
X131900000Y-105357671D01*
X132044336Y-105338669D01*
X132178836Y-105282957D01*
X132294333Y-105194333D01*
X132361100Y-105107321D01*
X132404484Y-105079683D01*
X132420760Y-105077900D01*
X135283742Y-105077900D01*
X135332080Y-105095493D01*
X135336916Y-105099926D01*
X138360074Y-108123084D01*
X138381814Y-108169704D01*
X138382100Y-108176258D01*
X138382100Y-119883414D01*
X138382100Y-119956586D01*
X138401038Y-120027266D01*
X138437625Y-120090635D01*
X138437626Y-120090636D01*
X138437628Y-120090639D01*
X141581186Y-123234196D01*
X144667624Y-126320634D01*
X144667625Y-126320635D01*
X144719365Y-126372375D01*
X144719366Y-126372376D01*
X144782727Y-126408958D01*
X144782730Y-126408959D01*
X144782735Y-126408962D01*
X144853414Y-126427900D01*
X144926585Y-126427900D01*
X151579240Y-126427900D01*
X151627578Y-126445493D01*
X151638900Y-126457321D01*
X151705666Y-126544333D01*
X151821160Y-126632954D01*
X151821164Y-126632957D01*
X151955664Y-126688669D01*
X152100000Y-126707671D01*
X152244336Y-126688669D01*
X152378836Y-126632957D01*
X152494333Y-126544333D01*
X152582957Y-126428836D01*
X152638669Y-126294336D01*
X152657671Y-126150000D01*
X152638669Y-126005664D01*
X152582957Y-125871165D01*
X152582955Y-125871162D01*
X152494333Y-125755666D01*
X152378839Y-125667045D01*
X152378838Y-125667044D01*
X152378836Y-125667043D01*
X152291891Y-125631029D01*
X152244337Y-125611331D01*
X152100000Y-125592329D01*
X151955662Y-125611331D01*
X151821163Y-125667044D01*
X151821162Y-125667044D01*
X151705665Y-125755668D01*
X151638901Y-125842678D01*
X151595518Y-125870317D01*
X151579241Y-125872100D01*
X145036258Y-125872100D01*
X144987920Y-125854507D01*
X144983084Y-125850074D01*
X141980155Y-122847145D01*
X143631969Y-122847145D01*
X143644610Y-122855089D01*
X143816466Y-122915225D01*
X143816474Y-122915227D01*
X143997406Y-122935613D01*
X143997408Y-122935613D01*
X144178339Y-122915227D01*
X144178347Y-122915225D01*
X144350198Y-122855091D01*
X144362843Y-122847145D01*
X145156969Y-122847145D01*
X145169610Y-122855089D01*
X145341466Y-122915225D01*
X145341474Y-122915227D01*
X145522406Y-122935613D01*
X145522408Y-122935613D01*
X145703339Y-122915227D01*
X145703347Y-122915225D01*
X145875198Y-122855091D01*
X145887843Y-122847145D01*
X146681969Y-122847145D01*
X146694610Y-122855089D01*
X146866466Y-122915225D01*
X146866474Y-122915227D01*
X147047406Y-122935613D01*
X147047408Y-122935613D01*
X147228339Y-122915227D01*
X147228347Y-122915225D01*
X147400198Y-122855091D01*
X147412843Y-122847145D01*
X147047408Y-122481710D01*
X147047406Y-122481710D01*
X146681969Y-122847145D01*
X145887843Y-122847145D01*
X145522408Y-122481710D01*
X145522406Y-122481710D01*
X145156969Y-122847145D01*
X144362843Y-122847145D01*
X143997408Y-122481710D01*
X143997406Y-122481710D01*
X143631969Y-122847145D01*
X141980155Y-122847145D01*
X141255511Y-122122501D01*
X143184294Y-122122501D01*
X143204679Y-122303432D01*
X143204681Y-122303440D01*
X143264817Y-122475296D01*
X143272760Y-122487936D01*
X143608360Y-122152337D01*
X143847407Y-122152337D01*
X143870243Y-122207468D01*
X143912439Y-122249664D01*
X143967570Y-122272500D01*
X144027244Y-122272500D01*
X144082375Y-122249664D01*
X144124571Y-122207468D01*
X144147407Y-122152337D01*
X144147407Y-122122501D01*
X144356617Y-122122501D01*
X144722052Y-122487936D01*
X144751490Y-122484620D01*
X144768328Y-122484620D01*
X144797760Y-122487936D01*
X145133360Y-122152337D01*
X145372407Y-122152337D01*
X145395243Y-122207468D01*
X145437439Y-122249664D01*
X145492570Y-122272500D01*
X145552244Y-122272500D01*
X145607375Y-122249664D01*
X145649571Y-122207468D01*
X145672407Y-122152337D01*
X145672407Y-122122501D01*
X145881617Y-122122501D01*
X146247052Y-122487936D01*
X146276490Y-122484620D01*
X146293328Y-122484620D01*
X146322760Y-122487936D01*
X146658360Y-122152337D01*
X146897407Y-122152337D01*
X146920243Y-122207468D01*
X146962439Y-122249664D01*
X147017570Y-122272500D01*
X147077244Y-122272500D01*
X147132375Y-122249664D01*
X147174571Y-122207468D01*
X147197407Y-122152337D01*
X147197407Y-122122501D01*
X147406617Y-122122501D01*
X147772052Y-122487936D01*
X147779998Y-122475291D01*
X147840132Y-122303440D01*
X147840134Y-122303432D01*
X147860520Y-122122501D01*
X147860520Y-122122498D01*
X147840134Y-121941567D01*
X147840132Y-121941559D01*
X147779996Y-121769703D01*
X147772052Y-121757062D01*
X147406617Y-122122498D01*
X147406617Y-122122501D01*
X147197407Y-122122501D01*
X147197407Y-122092663D01*
X147174571Y-122037532D01*
X147132375Y-121995336D01*
X147077244Y-121972500D01*
X147017570Y-121972500D01*
X146962439Y-121995336D01*
X146920243Y-122037532D01*
X146897407Y-122092663D01*
X146897407Y-122152337D01*
X146658360Y-122152337D01*
X146688197Y-122122500D01*
X146688197Y-122122499D01*
X146322760Y-121757062D01*
X146293331Y-121760378D01*
X146276495Y-121760379D01*
X146247052Y-121757062D01*
X145881617Y-122122498D01*
X145881617Y-122122501D01*
X145672407Y-122122501D01*
X145672407Y-122092663D01*
X145649571Y-122037532D01*
X145607375Y-121995336D01*
X145552244Y-121972500D01*
X145492570Y-121972500D01*
X145437439Y-121995336D01*
X145395243Y-122037532D01*
X145372407Y-122092663D01*
X145372407Y-122152337D01*
X145133360Y-122152337D01*
X145163197Y-122122500D01*
X145163197Y-122122499D01*
X144797760Y-121757062D01*
X144768331Y-121760378D01*
X144751495Y-121760379D01*
X144722052Y-121757062D01*
X144356617Y-122122498D01*
X144356617Y-122122501D01*
X144147407Y-122122501D01*
X144147407Y-122092663D01*
X144124571Y-122037532D01*
X144082375Y-121995336D01*
X144027244Y-121972500D01*
X143967570Y-121972500D01*
X143912439Y-121995336D01*
X143870243Y-122037532D01*
X143847407Y-122092663D01*
X143847407Y-122152337D01*
X143608360Y-122152337D01*
X143638197Y-122122500D01*
X143638197Y-122122499D01*
X143272760Y-121757062D01*
X143272759Y-121757063D01*
X143264819Y-121769700D01*
X143264818Y-121769703D01*
X143204681Y-121941559D01*
X143204679Y-121941567D01*
X143184294Y-122122498D01*
X143184294Y-122122501D01*
X141255511Y-122122501D01*
X140530863Y-121397853D01*
X143631969Y-121397853D01*
X143997406Y-121763290D01*
X143997408Y-121763290D01*
X144362843Y-121397853D01*
X145156969Y-121397853D01*
X145522406Y-121763290D01*
X145522408Y-121763290D01*
X145887843Y-121397853D01*
X146681969Y-121397853D01*
X147047406Y-121763290D01*
X147047408Y-121763290D01*
X147110698Y-121700000D01*
X156267247Y-121700000D01*
X156286610Y-121896599D01*
X156286610Y-121896601D01*
X156343955Y-122085643D01*
X156343956Y-122085647D01*
X156379603Y-122152337D01*
X156411881Y-122212727D01*
X156437086Y-122259881D01*
X156437089Y-122259885D01*
X156562410Y-122412589D01*
X156715114Y-122537910D01*
X156715118Y-122537913D01*
X156715122Y-122537916D01*
X156889350Y-122631042D01*
X156889352Y-122631043D01*
X156889356Y-122631044D01*
X156919978Y-122640333D01*
X157078397Y-122688389D01*
X157275000Y-122707753D01*
X157471603Y-122688389D01*
X157660650Y-122631042D01*
X157834878Y-122537916D01*
X157987589Y-122412589D01*
X158112916Y-122259878D01*
X158206042Y-122085650D01*
X158263389Y-121896603D01*
X158282753Y-121700000D01*
X158263389Y-121503397D01*
X158206042Y-121314350D01*
X158112916Y-121140122D01*
X158112913Y-121140118D01*
X158112910Y-121140114D01*
X157987589Y-120987410D01*
X157834885Y-120862089D01*
X157834881Y-120862086D01*
X157834879Y-120862085D01*
X157834878Y-120862084D01*
X157678375Y-120778432D01*
X157660647Y-120768956D01*
X157660643Y-120768955D01*
X157471600Y-120711610D01*
X157275000Y-120692247D01*
X157078400Y-120711610D01*
X157078398Y-120711610D01*
X156889356Y-120768955D01*
X156889352Y-120768956D01*
X156715118Y-120862086D01*
X156715114Y-120862089D01*
X156562410Y-120987410D01*
X156437089Y-121140114D01*
X156437086Y-121140118D01*
X156343956Y-121314352D01*
X156343955Y-121314356D01*
X156286610Y-121503398D01*
X156286610Y-121503400D01*
X156267247Y-121700000D01*
X147110698Y-121700000D01*
X147412843Y-121397853D01*
X147409527Y-121368421D01*
X147409527Y-121351583D01*
X147412843Y-121322145D01*
X147047408Y-120956710D01*
X147047406Y-120956710D01*
X146681969Y-121322145D01*
X146685286Y-121351588D01*
X146685285Y-121368424D01*
X146681969Y-121397853D01*
X145887843Y-121397853D01*
X145884527Y-121368421D01*
X145884527Y-121351583D01*
X145887843Y-121322145D01*
X145522408Y-120956710D01*
X145522406Y-120956710D01*
X145156969Y-121322145D01*
X145160286Y-121351588D01*
X145160285Y-121368424D01*
X145156969Y-121397853D01*
X144362843Y-121397853D01*
X144359527Y-121368421D01*
X144359527Y-121351583D01*
X144362843Y-121322145D01*
X143997408Y-120956710D01*
X143997406Y-120956710D01*
X143631969Y-121322145D01*
X143635286Y-121351588D01*
X143635285Y-121368424D01*
X143631969Y-121397853D01*
X140530863Y-121397853D01*
X138959926Y-119826916D01*
X138938186Y-119780296D01*
X138937900Y-119773742D01*
X138937900Y-119600000D01*
X139992329Y-119600000D01*
X140011297Y-119744082D01*
X140011331Y-119744336D01*
X140067043Y-119878836D01*
X140067044Y-119878838D01*
X140067045Y-119878839D01*
X140155666Y-119994333D01*
X140223764Y-120046586D01*
X140271164Y-120082957D01*
X140405664Y-120138669D01*
X140550000Y-120157671D01*
X140694336Y-120138669D01*
X140828836Y-120082957D01*
X140944333Y-119994333D01*
X141032957Y-119878836D01*
X141088669Y-119744336D01*
X141107671Y-119600000D01*
X141093355Y-119491258D01*
X141104489Y-119441039D01*
X141114733Y-119428275D01*
X142802376Y-117740634D01*
X142802377Y-117740631D01*
X142805374Y-117736727D01*
X142806574Y-117737648D01*
X142841176Y-117708611D01*
X142892616Y-117708608D01*
X142932023Y-117741670D01*
X142942100Y-117779274D01*
X142942100Y-118453741D01*
X142924507Y-118502079D01*
X142920074Y-118506915D01*
X141929400Y-119497588D01*
X141882780Y-119519328D01*
X141866411Y-119518971D01*
X141740000Y-119502329D01*
X141595662Y-119521331D01*
X141461163Y-119577044D01*
X141461162Y-119577044D01*
X141345666Y-119665666D01*
X141257044Y-119781162D01*
X141257044Y-119781163D01*
X141257043Y-119781164D01*
X141257043Y-119781165D01*
X141252087Y-119793129D01*
X141201331Y-119915662D01*
X141182329Y-120060000D01*
X141201331Y-120204337D01*
X141212816Y-120232063D01*
X141257043Y-120338836D01*
X141257044Y-120338838D01*
X141257045Y-120338839D01*
X141345666Y-120454333D01*
X141448340Y-120533117D01*
X141461164Y-120542957D01*
X141595664Y-120598669D01*
X141740000Y-120617671D01*
X141884336Y-120598669D01*
X141887156Y-120597501D01*
X143184294Y-120597501D01*
X143204679Y-120778432D01*
X143204681Y-120778440D01*
X143264817Y-120950296D01*
X143272760Y-120962936D01*
X143608360Y-120627337D01*
X143847407Y-120627337D01*
X143870243Y-120682468D01*
X143912439Y-120724664D01*
X143967570Y-120747500D01*
X144027244Y-120747500D01*
X144082375Y-120724664D01*
X144124571Y-120682468D01*
X144147407Y-120627337D01*
X144147407Y-120597501D01*
X144356617Y-120597501D01*
X144722052Y-120962936D01*
X144751490Y-120959620D01*
X144768328Y-120959620D01*
X144797760Y-120962936D01*
X145133360Y-120627337D01*
X145372407Y-120627337D01*
X145395243Y-120682468D01*
X145437439Y-120724664D01*
X145492570Y-120747500D01*
X145552244Y-120747500D01*
X145607375Y-120724664D01*
X145649571Y-120682468D01*
X145672407Y-120627337D01*
X145672407Y-120597501D01*
X145881617Y-120597501D01*
X146247052Y-120962936D01*
X146276490Y-120959620D01*
X146293328Y-120959620D01*
X146322760Y-120962936D01*
X146658360Y-120627337D01*
X146897407Y-120627337D01*
X146920243Y-120682468D01*
X146962439Y-120724664D01*
X147017570Y-120747500D01*
X147077244Y-120747500D01*
X147132375Y-120724664D01*
X147174571Y-120682468D01*
X147197407Y-120627337D01*
X147197407Y-120597501D01*
X147406617Y-120597501D01*
X147772052Y-120962936D01*
X147779998Y-120950291D01*
X147840132Y-120778440D01*
X147840134Y-120778432D01*
X147860520Y-120597501D01*
X147860520Y-120597498D01*
X147840134Y-120416567D01*
X147840132Y-120416559D01*
X147779996Y-120244703D01*
X147772052Y-120232062D01*
X147406617Y-120597498D01*
X147406617Y-120597501D01*
X147197407Y-120597501D01*
X147197407Y-120567663D01*
X147174571Y-120512532D01*
X147132375Y-120470336D01*
X147077244Y-120447500D01*
X147017570Y-120447500D01*
X146962439Y-120470336D01*
X146920243Y-120512532D01*
X146897407Y-120567663D01*
X146897407Y-120627337D01*
X146658360Y-120627337D01*
X146688197Y-120597500D01*
X146688197Y-120597499D01*
X146322760Y-120232062D01*
X146293331Y-120235378D01*
X146276495Y-120235379D01*
X146247052Y-120232062D01*
X145881617Y-120597498D01*
X145881617Y-120597501D01*
X145672407Y-120597501D01*
X145672407Y-120567663D01*
X145649571Y-120512532D01*
X145607375Y-120470336D01*
X145552244Y-120447500D01*
X145492570Y-120447500D01*
X145437439Y-120470336D01*
X145395243Y-120512532D01*
X145372407Y-120567663D01*
X145372407Y-120627337D01*
X145133360Y-120627337D01*
X145163197Y-120597500D01*
X145163197Y-120597499D01*
X144797760Y-120232062D01*
X144768331Y-120235378D01*
X144751495Y-120235379D01*
X144722052Y-120232062D01*
X144356617Y-120597498D01*
X144356617Y-120597501D01*
X144147407Y-120597501D01*
X144147407Y-120567663D01*
X144124571Y-120512532D01*
X144082375Y-120470336D01*
X144027244Y-120447500D01*
X143967570Y-120447500D01*
X143912439Y-120470336D01*
X143870243Y-120512532D01*
X143847407Y-120567663D01*
X143847407Y-120627337D01*
X143608360Y-120627337D01*
X143638197Y-120597500D01*
X143638197Y-120597499D01*
X143272760Y-120232062D01*
X143272759Y-120232063D01*
X143264819Y-120244700D01*
X143264818Y-120244703D01*
X143204681Y-120416559D01*
X143204679Y-120416567D01*
X143184294Y-120597498D01*
X143184294Y-120597501D01*
X141887156Y-120597501D01*
X142018836Y-120542957D01*
X142134333Y-120454333D01*
X142222957Y-120338836D01*
X142278669Y-120204336D01*
X142297671Y-120060000D01*
X142285681Y-119968932D01*
X142296815Y-119918713D01*
X142307059Y-119905949D01*
X142340155Y-119872853D01*
X143631969Y-119872853D01*
X143997406Y-120238290D01*
X143997408Y-120238290D01*
X144362843Y-119872853D01*
X145156969Y-119872853D01*
X145522406Y-120238290D01*
X145522408Y-120238290D01*
X145887843Y-119872853D01*
X146681969Y-119872853D01*
X147047406Y-120238290D01*
X147047408Y-120238290D01*
X147412843Y-119872853D01*
X147400203Y-119864910D01*
X147228347Y-119804774D01*
X147228339Y-119804772D01*
X147047408Y-119784387D01*
X147047406Y-119784387D01*
X146866474Y-119804772D01*
X146866466Y-119804774D01*
X146694610Y-119864911D01*
X146694607Y-119864912D01*
X146681970Y-119872852D01*
X146681969Y-119872853D01*
X145887843Y-119872853D01*
X145875203Y-119864910D01*
X145703347Y-119804774D01*
X145703339Y-119804772D01*
X145522408Y-119784387D01*
X145522406Y-119784387D01*
X145341474Y-119804772D01*
X145341466Y-119804774D01*
X145169610Y-119864911D01*
X145169607Y-119864912D01*
X145156970Y-119872852D01*
X145156969Y-119872853D01*
X144362843Y-119872853D01*
X144350203Y-119864910D01*
X144178347Y-119804774D01*
X144178339Y-119804772D01*
X143997408Y-119784387D01*
X143997406Y-119784387D01*
X143816474Y-119804772D01*
X143816466Y-119804774D01*
X143644610Y-119864911D01*
X143644607Y-119864912D01*
X143631970Y-119872852D01*
X143631969Y-119872853D01*
X142340155Y-119872853D01*
X143442375Y-118770635D01*
X143478962Y-118707266D01*
X143497900Y-118636586D01*
X143497900Y-118563414D01*
X143497900Y-112386257D01*
X143515493Y-112337919D01*
X143519915Y-112333094D01*
X147189028Y-108663980D01*
X147235647Y-108642241D01*
X147285334Y-108655555D01*
X147287980Y-108657495D01*
X147321159Y-108682954D01*
X147321161Y-108682954D01*
X147321164Y-108682957D01*
X147455664Y-108738669D01*
X147600000Y-108757671D01*
X147744336Y-108738669D01*
X147878836Y-108682957D01*
X147994333Y-108594333D01*
X148082957Y-108478836D01*
X148138669Y-108344336D01*
X148157671Y-108200000D01*
X148138669Y-108055664D01*
X148082957Y-107921165D01*
X148035533Y-107859360D01*
X147994333Y-107805666D01*
X147878839Y-107717045D01*
X147878838Y-107717044D01*
X147878836Y-107717043D01*
X147791891Y-107681029D01*
X147744337Y-107661331D01*
X147600000Y-107642329D01*
X147455662Y-107661331D01*
X147321163Y-107717044D01*
X147321162Y-107717044D01*
X147205666Y-107805666D01*
X147117044Y-107921162D01*
X147117041Y-107921167D01*
X147102414Y-107956481D01*
X147086113Y-107980876D01*
X145871675Y-109195313D01*
X145825055Y-109217053D01*
X145775368Y-109203739D01*
X145749026Y-109170919D01*
X145696923Y-109045131D01*
X145678841Y-109021566D01*
X145608299Y-108929632D01*
X145492805Y-108841011D01*
X145492804Y-108841010D01*
X145492802Y-108841009D01*
X145405857Y-108804995D01*
X145358303Y-108785297D01*
X145213966Y-108766295D01*
X145069628Y-108785297D01*
X144935129Y-108841010D01*
X144935128Y-108841010D01*
X144819632Y-108929632D01*
X144731010Y-109045128D01*
X144731010Y-109045129D01*
X144675296Y-109179631D01*
X144663153Y-109271860D01*
X144641771Y-109315217D01*
X142357628Y-111599360D01*
X142321038Y-111662734D01*
X142302100Y-111733415D01*
X142302100Y-117423741D01*
X142284507Y-117472079D01*
X142280074Y-117476915D01*
X140721727Y-119035261D01*
X140675107Y-119057001D01*
X140658738Y-119056644D01*
X140550000Y-119042329D01*
X140405662Y-119061331D01*
X140271163Y-119117044D01*
X140271162Y-119117044D01*
X140155666Y-119205666D01*
X140067044Y-119321162D01*
X140067044Y-119321163D01*
X140011331Y-119455662D01*
X139992329Y-119600000D01*
X138937900Y-119600000D01*
X138937900Y-107993415D01*
X138932796Y-107974368D01*
X138928384Y-107957900D01*
X138918962Y-107922734D01*
X138882375Y-107859365D01*
X138882372Y-107859362D01*
X138882371Y-107859360D01*
X135600639Y-104577628D01*
X135600636Y-104577626D01*
X135600635Y-104577625D01*
X135537266Y-104541038D01*
X135537263Y-104541037D01*
X135537264Y-104541037D01*
X135492454Y-104529031D01*
X135466586Y-104522100D01*
X135466585Y-104522100D01*
X132420759Y-104522100D01*
X132372421Y-104504507D01*
X132361099Y-104492678D01*
X132294334Y-104405668D01*
X132294331Y-104405666D01*
X132209459Y-104340541D01*
X132178839Y-104317045D01*
X132178838Y-104317044D01*
X132178836Y-104317043D01*
X132091891Y-104281029D01*
X132044337Y-104261331D01*
X131900000Y-104242329D01*
X131755662Y-104261331D01*
X131644238Y-104307485D01*
X131626076Y-104315009D01*
X131621163Y-104317044D01*
X131621162Y-104317044D01*
X131505666Y-104405666D01*
X131417044Y-104521162D01*
X131417044Y-104521163D01*
X131361331Y-104655662D01*
X131342329Y-104800000D01*
X128527900Y-104800000D01*
X128527900Y-104084195D01*
X128545493Y-104035857D01*
X128590042Y-104010137D01*
X128640700Y-104019070D01*
X128662760Y-104038416D01*
X128705666Y-104094333D01*
X128770828Y-104144333D01*
X128821164Y-104182957D01*
X128955664Y-104238669D01*
X129100000Y-104257671D01*
X129244336Y-104238669D01*
X129378836Y-104182957D01*
X129494333Y-104094333D01*
X129511393Y-104072100D01*
X129522734Y-104057321D01*
X129566118Y-104029682D01*
X129582394Y-104027900D01*
X137699240Y-104027900D01*
X137747578Y-104045493D01*
X137758900Y-104057321D01*
X137825666Y-104144333D01*
X137917409Y-104214729D01*
X137941164Y-104232957D01*
X138075664Y-104288669D01*
X138220000Y-104307671D01*
X138364336Y-104288669D01*
X138498836Y-104232957D01*
X138614333Y-104144333D01*
X138702957Y-104028836D01*
X138758669Y-103894336D01*
X138777671Y-103750000D01*
X138758669Y-103605664D01*
X138702957Y-103471165D01*
X138702955Y-103471162D01*
X138614333Y-103355666D01*
X138498839Y-103267045D01*
X138498838Y-103267044D01*
X138498836Y-103267043D01*
X138378131Y-103217045D01*
X138364337Y-103211331D01*
X138220000Y-103192329D01*
X138075662Y-103211331D01*
X137941163Y-103267044D01*
X137941162Y-103267044D01*
X137825665Y-103355668D01*
X137758901Y-103442678D01*
X137715518Y-103470317D01*
X137699241Y-103472100D01*
X129654302Y-103472100D01*
X129605964Y-103454507D01*
X129584826Y-103425676D01*
X129582960Y-103421170D01*
X129582955Y-103421162D01*
X129494333Y-103305666D01*
X129378839Y-103217045D01*
X129378838Y-103217044D01*
X129378836Y-103217043D01*
X129291891Y-103181029D01*
X129244337Y-103161331D01*
X129100000Y-103142329D01*
X128955662Y-103161331D01*
X128821163Y-103217044D01*
X128821162Y-103217044D01*
X128705666Y-103305666D01*
X128662760Y-103361584D01*
X128619376Y-103389222D01*
X128568376Y-103382508D01*
X128533624Y-103344583D01*
X128527900Y-103315805D01*
X128527900Y-102420759D01*
X128545493Y-102372421D01*
X128557322Y-102361099D01*
X128583463Y-102341040D01*
X128644333Y-102294333D01*
X128732957Y-102178836D01*
X128788669Y-102044336D01*
X128807671Y-101900000D01*
X128788669Y-101755664D01*
X128732957Y-101621165D01*
X128729794Y-101617043D01*
X128644333Y-101505666D01*
X128528839Y-101417045D01*
X128528838Y-101417044D01*
X128528836Y-101417043D01*
X128396193Y-101362100D01*
X128394337Y-101361331D01*
X128250000Y-101342329D01*
X128105662Y-101361331D01*
X128009145Y-101401311D01*
X127981030Y-101412957D01*
X127971163Y-101417044D01*
X127971162Y-101417044D01*
X127855666Y-101505666D01*
X127767044Y-101621162D01*
X127767044Y-101621163D01*
X127711331Y-101755662D01*
X127697282Y-101862375D01*
X127692329Y-101900000D01*
X127711331Y-102044336D01*
X127767043Y-102178836D01*
X127852285Y-102289926D01*
X127855668Y-102294334D01*
X127942678Y-102361099D01*
X127970317Y-102404482D01*
X127972100Y-102420759D01*
X127972100Y-105823414D01*
X127972100Y-105896586D01*
X127991038Y-105967266D01*
X128027625Y-106030635D01*
X128027626Y-106030636D01*
X128027628Y-106030639D01*
X130790074Y-108793084D01*
X130811814Y-108839704D01*
X130812100Y-108846258D01*
X130812100Y-109887542D01*
X130794507Y-109935880D01*
X130749958Y-109961600D01*
X130699300Y-109952667D01*
X130683726Y-109940716D01*
X130564738Y-109821728D01*
X130542998Y-109775108D01*
X130543354Y-109758742D01*
X130557671Y-109650000D01*
X130538669Y-109505664D01*
X130482957Y-109371165D01*
X130450883Y-109329365D01*
X130394333Y-109255666D01*
X130278839Y-109167045D01*
X130278838Y-109167044D01*
X130278836Y-109167043D01*
X130191891Y-109131029D01*
X130144337Y-109111331D01*
X130000000Y-109092329D01*
X129855662Y-109111331D01*
X129721163Y-109167044D01*
X129721162Y-109167044D01*
X129605666Y-109255666D01*
X129517044Y-109371162D01*
X129517044Y-109371163D01*
X129461331Y-109505662D01*
X129442329Y-109650000D01*
X129461331Y-109794337D01*
X129472373Y-109820993D01*
X129517043Y-109928836D01*
X129517044Y-109928838D01*
X129517045Y-109928839D01*
X129605666Y-110044333D01*
X129719613Y-110131767D01*
X129721164Y-110132957D01*
X129855664Y-110188669D01*
X130000000Y-110207671D01*
X130108739Y-110193355D01*
X130158959Y-110204489D01*
X130171728Y-110214738D01*
X130240074Y-110283084D01*
X130261814Y-110329704D01*
X130262100Y-110336258D01*
X130262100Y-116867542D01*
X130244507Y-116915880D01*
X130199958Y-116941600D01*
X130149300Y-116932667D01*
X130133726Y-116920716D01*
X129649926Y-116436916D01*
X129628186Y-116390296D01*
X129627900Y-116383742D01*
X129627900Y-111520759D01*
X129645493Y-111472421D01*
X129657322Y-111461099D01*
X129669279Y-111451923D01*
X129744333Y-111394333D01*
X129832957Y-111278836D01*
X129888669Y-111144336D01*
X129907671Y-111000000D01*
X129888669Y-110855664D01*
X129832957Y-110721165D01*
X129818320Y-110702089D01*
X129744333Y-110605666D01*
X129628839Y-110517045D01*
X129628838Y-110517044D01*
X129628836Y-110517043D01*
X129541891Y-110481029D01*
X129494337Y-110461331D01*
X129350000Y-110442329D01*
X129205662Y-110461331D01*
X129071163Y-110517044D01*
X129071162Y-110517044D01*
X128955666Y-110605666D01*
X128867044Y-110721162D01*
X128867044Y-110721163D01*
X128811331Y-110855662D01*
X128792329Y-111000000D01*
X128811331Y-111144337D01*
X128815481Y-111154356D01*
X128867043Y-111278836D01*
X128867044Y-111278838D01*
X128867045Y-111278839D01*
X128955668Y-111394334D01*
X129042678Y-111461099D01*
X129070317Y-111504482D01*
X129072100Y-111520759D01*
X129072100Y-114345898D01*
X129054507Y-114394236D01*
X129009958Y-114419956D01*
X128959300Y-114411023D01*
X128943726Y-114399072D01*
X127452926Y-112908272D01*
X127431186Y-112861652D01*
X127430900Y-112855098D01*
X127430900Y-97450000D01*
X131242329Y-97450000D01*
X131261331Y-97594336D01*
X131317043Y-97728836D01*
X131317044Y-97728838D01*
X131317045Y-97728839D01*
X131405666Y-97844333D01*
X131521160Y-97932954D01*
X131521164Y-97932957D01*
X131655664Y-97988669D01*
X131800000Y-98007671D01*
X131944336Y-97988669D01*
X132078836Y-97932957D01*
X132194333Y-97844333D01*
X132261100Y-97757321D01*
X132304484Y-97729683D01*
X132320760Y-97727900D01*
X138023742Y-97727900D01*
X138072080Y-97745493D01*
X138076916Y-97749926D01*
X139110074Y-98783084D01*
X139131814Y-98829704D01*
X139132100Y-98836258D01*
X139132100Y-100221567D01*
X139114507Y-100269905D01*
X139102679Y-100281227D01*
X139005666Y-100355666D01*
X138917044Y-100471162D01*
X138917044Y-100471163D01*
X138861331Y-100605662D01*
X138842329Y-100750000D01*
X138861331Y-100894337D01*
X138881029Y-100941891D01*
X138917043Y-101028836D01*
X138917044Y-101028838D01*
X138917045Y-101028839D01*
X139005666Y-101144333D01*
X139117214Y-101229926D01*
X139121164Y-101232957D01*
X139255664Y-101288669D01*
X139400000Y-101307671D01*
X139544336Y-101288669D01*
X139678836Y-101232957D01*
X139794333Y-101144333D01*
X139882957Y-101028836D01*
X139938669Y-100894336D01*
X139957671Y-100750000D01*
X139938669Y-100605664D01*
X139882957Y-100471165D01*
X139871065Y-100455667D01*
X139794333Y-100355666D01*
X139717321Y-100296573D01*
X139689682Y-100253189D01*
X139687900Y-100236913D01*
X139687900Y-98653415D01*
X139668962Y-98582734D01*
X139632375Y-98519365D01*
X139632372Y-98519362D01*
X139632371Y-98519360D01*
X138340639Y-97227628D01*
X138340636Y-97227626D01*
X138340635Y-97227625D01*
X138277266Y-97191038D01*
X138277263Y-97191037D01*
X138277264Y-97191037D01*
X138232454Y-97179031D01*
X138206586Y-97172100D01*
X138206585Y-97172100D01*
X132320759Y-97172100D01*
X132272421Y-97154507D01*
X132261099Y-97142678D01*
X132194334Y-97055668D01*
X132194331Y-97055666D01*
X132078836Y-96967043D01*
X131988499Y-96929624D01*
X131944337Y-96911331D01*
X131800000Y-96892329D01*
X131655662Y-96911331D01*
X131521163Y-96967044D01*
X131521162Y-96967044D01*
X131405666Y-97055666D01*
X131317044Y-97171162D01*
X131317044Y-97171163D01*
X131261331Y-97305662D01*
X131261331Y-97305664D01*
X131242329Y-97450000D01*
X127430900Y-97450000D01*
X127430900Y-97334901D01*
X127448493Y-97286563D01*
X127452926Y-97281727D01*
X133741727Y-90992926D01*
X133788347Y-90971186D01*
X133794901Y-90970900D01*
X140483141Y-90970900D01*
X140531479Y-90988493D01*
X140557199Y-91033042D01*
X140548266Y-91083700D01*
X140524920Y-91108626D01*
X140467441Y-91147031D01*
X140467432Y-91147039D01*
X140327039Y-91287432D01*
X140327037Y-91287435D01*
X140216721Y-91452534D01*
X140140738Y-91635973D01*
X140140737Y-91635974D01*
X140102000Y-91830720D01*
X140102000Y-92226000D01*
X140810000Y-92226000D01*
X140810000Y-92734000D01*
X140102000Y-92734000D01*
X140102000Y-93129279D01*
X140140737Y-93324025D01*
X140140738Y-93324026D01*
X140216721Y-93507465D01*
X140327037Y-93672564D01*
X140327039Y-93672567D01*
X140467432Y-93812960D01*
X140467435Y-93812962D01*
X140632534Y-93923278D01*
X140815973Y-93999261D01*
X140815975Y-93999262D01*
X140856000Y-94007223D01*
X140856000Y-93190060D01*
X140869940Y-93214205D01*
X140925795Y-93270060D01*
X140994204Y-93309556D01*
X141070504Y-93330000D01*
X141149496Y-93330000D01*
X141225796Y-93309556D01*
X141294205Y-93270060D01*
X141350060Y-93214205D01*
X141364000Y-93190060D01*
X141364000Y-94007223D01*
X141404024Y-93999262D01*
X141404026Y-93999261D01*
X141587465Y-93923278D01*
X141752564Y-93812962D01*
X141752567Y-93812960D01*
X141892960Y-93672567D01*
X141892962Y-93672564D01*
X142003278Y-93507465D01*
X142079261Y-93324026D01*
X142079262Y-93324025D01*
X142118000Y-93129279D01*
X142118000Y-92734000D01*
X141410000Y-92734000D01*
X141410000Y-92226000D01*
X141991401Y-92226000D01*
X142039739Y-92243593D01*
X142056526Y-92263600D01*
X142079484Y-92303365D01*
X142186634Y-92410515D01*
X142317862Y-92486280D01*
X142317864Y-92486280D01*
X142317865Y-92486281D01*
X142368769Y-92499920D01*
X142410906Y-92529425D01*
X142424220Y-92579112D01*
X142423364Y-92585614D01*
X142422100Y-92592783D01*
X142422100Y-95956900D01*
X142404507Y-96005238D01*
X142359958Y-96030958D01*
X142346900Y-96032100D01*
X141691145Y-96032100D01*
X141684247Y-96032250D01*
X141677717Y-96032535D01*
X141677711Y-96032535D01*
X141677710Y-96032536D01*
X141677707Y-96032536D01*
X141677705Y-96032537D01*
X141617865Y-96047179D01*
X141571239Y-96068922D01*
X141571235Y-96068924D01*
X141526327Y-96100369D01*
X141526314Y-96100380D01*
X141420394Y-96206300D01*
X141415636Y-96211269D01*
X141411194Y-96216114D01*
X141379214Y-96268808D01*
X141361622Y-96317142D01*
X141361622Y-96317144D01*
X141352010Y-96371653D01*
X141326290Y-96416201D01*
X141277952Y-96433794D01*
X141229615Y-96416200D01*
X141224779Y-96411768D01*
X140560639Y-95747628D01*
X140560636Y-95747626D01*
X140560635Y-95747625D01*
X140497266Y-95711038D01*
X140497263Y-95711037D01*
X140497264Y-95711037D01*
X140452454Y-95699031D01*
X140426586Y-95692100D01*
X140426585Y-95692100D01*
X134576258Y-95692100D01*
X134527920Y-95674507D01*
X134523084Y-95670074D01*
X133999926Y-95146916D01*
X133978186Y-95100296D01*
X133977900Y-95093742D01*
X133977900Y-92870759D01*
X133995493Y-92822421D01*
X134007322Y-92811099D01*
X134019279Y-92801923D01*
X134094333Y-92744333D01*
X134182957Y-92628836D01*
X134238669Y-92494336D01*
X134257671Y-92350000D01*
X134238669Y-92205664D01*
X134182957Y-92071165D01*
X134182955Y-92071162D01*
X134094333Y-91955666D01*
X133978839Y-91867045D01*
X133978838Y-91867044D01*
X133978836Y-91867043D01*
X133891145Y-91830720D01*
X133844337Y-91811331D01*
X133700000Y-91792329D01*
X133555662Y-91811331D01*
X133421163Y-91867044D01*
X133421162Y-91867044D01*
X133305666Y-91955666D01*
X133217044Y-92071162D01*
X133217044Y-92071163D01*
X133161331Y-92205662D01*
X133142329Y-92350000D01*
X133161331Y-92494337D01*
X133171314Y-92518438D01*
X133217043Y-92628836D01*
X133217044Y-92628838D01*
X133217045Y-92628839D01*
X133305668Y-92744334D01*
X133392678Y-92811099D01*
X133420317Y-92854482D01*
X133422100Y-92870759D01*
X133422100Y-95203414D01*
X133422100Y-95276586D01*
X133441038Y-95347266D01*
X133477625Y-95410635D01*
X133477626Y-95410636D01*
X133477628Y-95410639D01*
X134259360Y-96192371D01*
X134259362Y-96192372D01*
X134259365Y-96192375D01*
X134322734Y-96228962D01*
X134393414Y-96247900D01*
X134466586Y-96247900D01*
X140243742Y-96247900D01*
X140292080Y-96265493D01*
X140296916Y-96269926D01*
X141000074Y-96973084D01*
X141021814Y-97019704D01*
X141022100Y-97026258D01*
X141022100Y-99963414D01*
X141022100Y-100036586D01*
X141041038Y-100107266D01*
X141077625Y-100170635D01*
X141077626Y-100170636D01*
X141077628Y-100170639D01*
X142490715Y-101583726D01*
X142512455Y-101630346D01*
X142499141Y-101680033D01*
X142457004Y-101709538D01*
X142437541Y-101712100D01*
X142196586Y-101712100D01*
X142123414Y-101712100D01*
X142097545Y-101719031D01*
X142052736Y-101731037D01*
X141989362Y-101767626D01*
X141821726Y-101935262D01*
X141775106Y-101957001D01*
X141758737Y-101956644D01*
X141650000Y-101942329D01*
X141505662Y-101961331D01*
X141371163Y-102017044D01*
X141371162Y-102017044D01*
X141255666Y-102105666D01*
X141167044Y-102221162D01*
X141167044Y-102221163D01*
X141111331Y-102355662D01*
X141092329Y-102500000D01*
X141111331Y-102644337D01*
X141131029Y-102691891D01*
X141167043Y-102778836D01*
X141167044Y-102778838D01*
X141167045Y-102778839D01*
X141255666Y-102894333D01*
X141371160Y-102982954D01*
X141371164Y-102982957D01*
X141430646Y-103007595D01*
X141468571Y-103042348D01*
X141475285Y-103093348D01*
X141447647Y-103136731D01*
X141430647Y-103146546D01*
X141381167Y-103167041D01*
X141381162Y-103167044D01*
X141265666Y-103255666D01*
X141177044Y-103371162D01*
X141177044Y-103371163D01*
X141121331Y-103505662D01*
X141121331Y-103505664D01*
X141102329Y-103650000D01*
X141121331Y-103794336D01*
X141121331Y-103794338D01*
X141121332Y-103794339D01*
X141142108Y-103844497D01*
X141144351Y-103895887D01*
X141113037Y-103936697D01*
X141062816Y-103947831D01*
X141019458Y-103926448D01*
X138510639Y-101417628D01*
X138510636Y-101417626D01*
X138510635Y-101417625D01*
X138447266Y-101381038D01*
X138447263Y-101381037D01*
X138447264Y-101381037D01*
X138402454Y-101369031D01*
X138376586Y-101362100D01*
X138376585Y-101362100D01*
X131126258Y-101362100D01*
X131077920Y-101344507D01*
X131073084Y-101340074D01*
X130841593Y-101108583D01*
X130819853Y-101061963D01*
X130825292Y-101026630D01*
X130838669Y-100994336D01*
X130857671Y-100850000D01*
X130838669Y-100705664D01*
X130782957Y-100571165D01*
X130782955Y-100571162D01*
X130694333Y-100455666D01*
X130578839Y-100367045D01*
X130578838Y-100367044D01*
X130578836Y-100367043D01*
X130491891Y-100331029D01*
X130444337Y-100311331D01*
X130300000Y-100292329D01*
X130155662Y-100311331D01*
X130021163Y-100367044D01*
X130021162Y-100367044D01*
X129905666Y-100455666D01*
X129817044Y-100571162D01*
X129817044Y-100571163D01*
X129761331Y-100705662D01*
X129761331Y-100705664D01*
X129742329Y-100850000D01*
X129761331Y-100994336D01*
X129817043Y-101128836D01*
X129817044Y-101128838D01*
X129817045Y-101128839D01*
X129905666Y-101244333D01*
X130009925Y-101324333D01*
X130021164Y-101332957D01*
X130155664Y-101388669D01*
X130300000Y-101407671D01*
X130311531Y-101406152D01*
X130361750Y-101417282D01*
X130374524Y-101427534D01*
X130757625Y-101810635D01*
X130803264Y-101856274D01*
X130809366Y-101862376D01*
X130872727Y-101898958D01*
X130872730Y-101898959D01*
X130872735Y-101898962D01*
X130943414Y-101917900D01*
X138193742Y-101917900D01*
X138242080Y-101935493D01*
X138246916Y-101939926D01*
X140879360Y-104572371D01*
X140879362Y-104572372D01*
X140879365Y-104572375D01*
X140942734Y-104608962D01*
X141013414Y-104627900D01*
X141086586Y-104627900D01*
X146793742Y-104627900D01*
X146842080Y-104645493D01*
X146846916Y-104649926D01*
X149352074Y-107155084D01*
X149373814Y-107201704D01*
X149374100Y-107208258D01*
X149374100Y-115619241D01*
X149356507Y-115667579D01*
X149344678Y-115678901D01*
X149257668Y-115745665D01*
X149169044Y-115861162D01*
X149169044Y-115861163D01*
X149113331Y-115995662D01*
X149094329Y-116140000D01*
X149106750Y-116234352D01*
X149113331Y-116284336D01*
X149169043Y-116418836D01*
X149169044Y-116418838D01*
X149169045Y-116418839D01*
X149257666Y-116534333D01*
X149298373Y-116565568D01*
X149373164Y-116622957D01*
X149507664Y-116678669D01*
X149652000Y-116697671D01*
X149796336Y-116678669D01*
X149930836Y-116622957D01*
X150011121Y-116561351D01*
X150060180Y-116545884D01*
X150107704Y-116565568D01*
X150131457Y-116611196D01*
X150132100Y-116621012D01*
X150132100Y-119973414D01*
X150132100Y-120046586D01*
X150151038Y-120117266D01*
X150187625Y-120180635D01*
X150187626Y-120180636D01*
X150187628Y-120180639D01*
X150889360Y-120882371D01*
X150889362Y-120882372D01*
X150889365Y-120882375D01*
X150952734Y-120918962D01*
X151023414Y-120937900D01*
X151023415Y-120937900D01*
X151916585Y-120937900D01*
X151916586Y-120937900D01*
X151987266Y-120918962D01*
X152050635Y-120882375D01*
X152454441Y-120478566D01*
X152454451Y-120478559D01*
X152512371Y-120420639D01*
X152512375Y-120420635D01*
X152530668Y-120388950D01*
X152548962Y-120357266D01*
X152561498Y-120310480D01*
X152567900Y-120286586D01*
X152567900Y-119283414D01*
X152548962Y-119212734D01*
X152518515Y-119160000D01*
X156267247Y-119160000D01*
X156286610Y-119356599D01*
X156286610Y-119356601D01*
X156343955Y-119545643D01*
X156343956Y-119545647D01*
X156437086Y-119719881D01*
X156437089Y-119719885D01*
X156562410Y-119872589D01*
X156715114Y-119997910D01*
X156715118Y-119997913D01*
X156715122Y-119997916D01*
X156874224Y-120082957D01*
X156889352Y-120091043D01*
X156889356Y-120091044D01*
X156932593Y-120104159D01*
X157078397Y-120148389D01*
X157275000Y-120167753D01*
X157471603Y-120148389D01*
X157660650Y-120091042D01*
X157834878Y-119997916D01*
X157987589Y-119872589D01*
X158112916Y-119719878D01*
X158206042Y-119545650D01*
X158263389Y-119356603D01*
X158282753Y-119160000D01*
X158263389Y-118963397D01*
X158212483Y-118795583D01*
X158206044Y-118774356D01*
X158206043Y-118774352D01*
X158170185Y-118707266D01*
X158112916Y-118600122D01*
X158112913Y-118600118D01*
X158112910Y-118600114D01*
X157987589Y-118447410D01*
X157834885Y-118322089D01*
X157834881Y-118322086D01*
X157834879Y-118322085D01*
X157834878Y-118322084D01*
X157701327Y-118250700D01*
X157660647Y-118228956D01*
X157660643Y-118228955D01*
X157471600Y-118171610D01*
X157275000Y-118152247D01*
X157078400Y-118171610D01*
X157078398Y-118171610D01*
X156889356Y-118228955D01*
X156889352Y-118228956D01*
X156715118Y-118322086D01*
X156715114Y-118322089D01*
X156562410Y-118447410D01*
X156437089Y-118600114D01*
X156437086Y-118600118D01*
X156343956Y-118774352D01*
X156343955Y-118774356D01*
X156286610Y-118963398D01*
X156286610Y-118963400D01*
X156267247Y-119160000D01*
X152518515Y-119160000D01*
X152512375Y-119149365D01*
X152512372Y-119149362D01*
X152512371Y-119149360D01*
X151947926Y-118584915D01*
X151926186Y-118538295D01*
X151925900Y-118531741D01*
X151925900Y-117806041D01*
X151943493Y-117757703D01*
X151988042Y-117731983D01*
X152029876Y-117736565D01*
X152155664Y-117788669D01*
X152300000Y-117807671D01*
X152408739Y-117793355D01*
X152458959Y-117804489D01*
X152471723Y-117814733D01*
X152601365Y-117944375D01*
X152664734Y-117980962D01*
X152735414Y-117999900D01*
X152735415Y-117999900D01*
X159314585Y-117999900D01*
X159314586Y-117999900D01*
X159385266Y-117980962D01*
X159448635Y-117944375D01*
X159878272Y-117514736D01*
X159924890Y-117492998D01*
X159941257Y-117493354D01*
X160050000Y-117507671D01*
X160194336Y-117488669D01*
X160328836Y-117432957D01*
X160444333Y-117344333D01*
X160532957Y-117228836D01*
X160588669Y-117094336D01*
X160607671Y-116950000D01*
X160588669Y-116805664D01*
X160532957Y-116671165D01*
X160532955Y-116671162D01*
X160444333Y-116555666D01*
X160328839Y-116467045D01*
X160328838Y-116467044D01*
X160328836Y-116467043D01*
X160212455Y-116418836D01*
X160194337Y-116411331D01*
X160050000Y-116392329D01*
X159905662Y-116411331D01*
X159771163Y-116467044D01*
X159771162Y-116467044D01*
X159655666Y-116555666D01*
X159567044Y-116671162D01*
X159567044Y-116671163D01*
X159511331Y-116805662D01*
X159492329Y-116950000D01*
X159506644Y-117058737D01*
X159495510Y-117108957D01*
X159485262Y-117121726D01*
X159184916Y-117422074D01*
X159138295Y-117443814D01*
X159131741Y-117444100D01*
X158055072Y-117444100D01*
X158006734Y-117426507D01*
X157981014Y-117381958D01*
X157989947Y-117331300D01*
X157996942Y-117321194D01*
X158112910Y-117179885D01*
X158112916Y-117179878D01*
X158206042Y-117005650D01*
X158263389Y-116816603D01*
X158282753Y-116620000D01*
X158263389Y-116423397D01*
X158262006Y-116418839D01*
X158206044Y-116234356D01*
X158206043Y-116234352D01*
X158206042Y-116234350D01*
X158112916Y-116060122D01*
X158112913Y-116060118D01*
X158112910Y-116060114D01*
X157987589Y-115907410D01*
X157834885Y-115782089D01*
X157834881Y-115782086D01*
X157834879Y-115782085D01*
X157834878Y-115782084D01*
X157716195Y-115718647D01*
X157660647Y-115688956D01*
X157660643Y-115688955D01*
X157471600Y-115631610D01*
X157275000Y-115612247D01*
X157078400Y-115631610D01*
X157078398Y-115631610D01*
X156889351Y-115688956D01*
X156839230Y-115715746D01*
X156788307Y-115723015D01*
X156750610Y-115702600D01*
X156425635Y-115377625D01*
X156362266Y-115341038D01*
X156362263Y-115341037D01*
X156362264Y-115341037D01*
X156317454Y-115329031D01*
X156291586Y-115322100D01*
X152396586Y-115322100D01*
X152323414Y-115322100D01*
X152297545Y-115329031D01*
X152252736Y-115341037D01*
X152189360Y-115377628D01*
X151596274Y-115970715D01*
X151549654Y-115992455D01*
X151499967Y-115979141D01*
X151470462Y-115937004D01*
X151467900Y-115917541D01*
X151467900Y-114080000D01*
X156267247Y-114080000D01*
X156286610Y-114276599D01*
X156286610Y-114276601D01*
X156343955Y-114465643D01*
X156343956Y-114465647D01*
X156437086Y-114639881D01*
X156437089Y-114639885D01*
X156562410Y-114792589D01*
X156715114Y-114917910D01*
X156715118Y-114917913D01*
X156715122Y-114917916D01*
X156889350Y-115011042D01*
X156889352Y-115011043D01*
X156889356Y-115011044D01*
X156932593Y-115024159D01*
X157078397Y-115068389D01*
X157275000Y-115087753D01*
X157471603Y-115068389D01*
X157660650Y-115011042D01*
X157834878Y-114917916D01*
X157987589Y-114792589D01*
X158112916Y-114639878D01*
X158206042Y-114465650D01*
X158263389Y-114276603D01*
X158282753Y-114080000D01*
X158263389Y-113883397D01*
X158206042Y-113694350D01*
X158112916Y-113520122D01*
X158112913Y-113520118D01*
X158112910Y-113520114D01*
X157987589Y-113367410D01*
X157834885Y-113242089D01*
X157834881Y-113242086D01*
X157834879Y-113242085D01*
X157834878Y-113242084D01*
X157747764Y-113195521D01*
X157660647Y-113148956D01*
X157660643Y-113148955D01*
X157471600Y-113091610D01*
X157275000Y-113072247D01*
X157078400Y-113091610D01*
X157078398Y-113091610D01*
X156889356Y-113148955D01*
X156889352Y-113148956D01*
X156715118Y-113242086D01*
X156715114Y-113242089D01*
X156562410Y-113367410D01*
X156437089Y-113520114D01*
X156437086Y-113520118D01*
X156343956Y-113694352D01*
X156343955Y-113694356D01*
X156286610Y-113883398D01*
X156286610Y-113883400D01*
X156267247Y-114080000D01*
X151467900Y-114080000D01*
X151467900Y-109898593D01*
X155917000Y-109898593D01*
X155923504Y-109959092D01*
X155923505Y-109959095D01*
X155974555Y-110095963D01*
X155974556Y-110095965D01*
X156062096Y-110212903D01*
X156179034Y-110300443D01*
X156179036Y-110300444D01*
X156315904Y-110351494D01*
X156315907Y-110351495D01*
X156376406Y-110357999D01*
X156376418Y-110358000D01*
X157021000Y-110358000D01*
X157021000Y-109430702D01*
X157082007Y-109465925D01*
X157209174Y-109500000D01*
X157340826Y-109500000D01*
X157467993Y-109465925D01*
X157529000Y-109430702D01*
X157529000Y-110358000D01*
X158173582Y-110358000D01*
X158173593Y-110357999D01*
X158234092Y-110351495D01*
X158234095Y-110351494D01*
X158370963Y-110300444D01*
X158370965Y-110300443D01*
X158487903Y-110212903D01*
X158575443Y-110095965D01*
X158575444Y-110095963D01*
X158626494Y-109959095D01*
X158626495Y-109959092D01*
X158632999Y-109898593D01*
X158633000Y-109898582D01*
X158633000Y-109254000D01*
X157705703Y-109254000D01*
X157740925Y-109192993D01*
X157775000Y-109065826D01*
X157775000Y-108934174D01*
X157740925Y-108807007D01*
X157705703Y-108746000D01*
X158633000Y-108746000D01*
X158633000Y-108101418D01*
X158632999Y-108101406D01*
X158626495Y-108040907D01*
X158626494Y-108040904D01*
X158575444Y-107904036D01*
X158575443Y-107904034D01*
X158487903Y-107787096D01*
X158370965Y-107699556D01*
X158370963Y-107699555D01*
X158234095Y-107648505D01*
X158234092Y-107648504D01*
X158173593Y-107642000D01*
X157529000Y-107642000D01*
X157529000Y-108569297D01*
X157467993Y-108534075D01*
X157340826Y-108500000D01*
X157209174Y-108500000D01*
X157082007Y-108534075D01*
X157021000Y-108569297D01*
X157021000Y-107642000D01*
X156376406Y-107642000D01*
X156315907Y-107648504D01*
X156315904Y-107648505D01*
X156179036Y-107699555D01*
X156179034Y-107699556D01*
X156062096Y-107787096D01*
X155974556Y-107904034D01*
X155974555Y-107904036D01*
X155923505Y-108040904D01*
X155923504Y-108040907D01*
X155917000Y-108101406D01*
X155917000Y-108746000D01*
X156844297Y-108746000D01*
X156809075Y-108807007D01*
X156775000Y-108934174D01*
X156775000Y-109065826D01*
X156809075Y-109192993D01*
X156844297Y-109254000D01*
X155917000Y-109254000D01*
X155917000Y-109898593D01*
X151467900Y-109898593D01*
X151467900Y-109646258D01*
X151485493Y-109597920D01*
X151489926Y-109593084D01*
X159853084Y-101229926D01*
X159899704Y-101208186D01*
X159906258Y-101207900D01*
X163419240Y-101207900D01*
X163467578Y-101225493D01*
X163478900Y-101237321D01*
X163545666Y-101324333D01*
X163654274Y-101407670D01*
X163661164Y-101412957D01*
X163795664Y-101468669D01*
X163940000Y-101487671D01*
X164084336Y-101468669D01*
X164218836Y-101412957D01*
X164334333Y-101324333D01*
X164410240Y-101225408D01*
X164453624Y-101197771D01*
X164504623Y-101204485D01*
X164539376Y-101242410D01*
X164545100Y-101271188D01*
X164545100Y-109689888D01*
X164527507Y-109738226D01*
X164523074Y-109743062D01*
X163663062Y-110603074D01*
X163616442Y-110624814D01*
X163609888Y-110625100D01*
X157709687Y-110625100D01*
X157674239Y-110616221D01*
X157660652Y-110608958D01*
X157660643Y-110608955D01*
X157471600Y-110551610D01*
X157275000Y-110532247D01*
X157078400Y-110551610D01*
X157078398Y-110551610D01*
X156889356Y-110608955D01*
X156889352Y-110608956D01*
X156715118Y-110702086D01*
X156715114Y-110702089D01*
X156562410Y-110827410D01*
X156437089Y-110980114D01*
X156437086Y-110980118D01*
X156343956Y-111154352D01*
X156343955Y-111154356D01*
X156286610Y-111343398D01*
X156286610Y-111343400D01*
X156267247Y-111540000D01*
X156286610Y-111736599D01*
X156286610Y-111736601D01*
X156343955Y-111925643D01*
X156343956Y-111925647D01*
X156375622Y-111984890D01*
X156420772Y-112069361D01*
X156437086Y-112099881D01*
X156437089Y-112099885D01*
X156562410Y-112252589D01*
X156715114Y-112377910D01*
X156715118Y-112377913D01*
X156715122Y-112377916D01*
X156868613Y-112459958D01*
X156889352Y-112471043D01*
X156889356Y-112471044D01*
X156894133Y-112472493D01*
X157078397Y-112528389D01*
X157275000Y-112547753D01*
X157471603Y-112528389D01*
X157660650Y-112471042D01*
X157660652Y-112471041D01*
X157674239Y-112463779D01*
X157709687Y-112454900D01*
X159409888Y-112454900D01*
X159458226Y-112472493D01*
X159463062Y-112476926D01*
X161383074Y-114396938D01*
X161404814Y-114443558D01*
X161405100Y-114450112D01*
X161405100Y-117449888D01*
X161387507Y-117498226D01*
X161383074Y-117503062D01*
X159536785Y-119349351D01*
X159473067Y-119413068D01*
X159409350Y-119476785D01*
X159409347Y-119476788D01*
X159309227Y-119626629D01*
X159240260Y-119793129D01*
X159240259Y-119793130D01*
X159205100Y-119969889D01*
X159205100Y-120262209D01*
X159203655Y-120276880D01*
X159195100Y-120319889D01*
X159195100Y-122520110D01*
X159230259Y-122696869D01*
X159230260Y-122696870D01*
X159234768Y-122707752D01*
X159292506Y-122847145D01*
X159299376Y-122863729D01*
X159305100Y-122892507D01*
X159305100Y-123780110D01*
X159340259Y-123956869D01*
X159340260Y-123956870D01*
X159341294Y-123959366D01*
X159409226Y-124123368D01*
X159452859Y-124188669D01*
X159490572Y-124245110D01*
X159509353Y-124273218D01*
X159509355Y-124273220D01*
X161103701Y-125867565D01*
X161113050Y-125878955D01*
X161169351Y-125963215D01*
X161169353Y-125963217D01*
X161169355Y-125963220D01*
X161296779Y-126090644D01*
X161296788Y-126090652D01*
X161446629Y-126190772D01*
X161446632Y-126190774D01*
X161613129Y-126259739D01*
X161613130Y-126259740D01*
X161613131Y-126259740D01*
X161613133Y-126259741D01*
X161731501Y-126283285D01*
X161789889Y-126294900D01*
X161789890Y-126294900D01*
X161970111Y-126294900D01*
X162014000Y-126286169D01*
X162146867Y-126259741D01*
X162313368Y-126190774D01*
X162463215Y-126090649D01*
X162590649Y-125963215D01*
X162690774Y-125813368D01*
X162759741Y-125646867D01*
X162794900Y-125470110D01*
X162794900Y-125259890D01*
X162780215Y-125186063D01*
X162759742Y-125083134D01*
X162690775Y-124916633D01*
X162678927Y-124898901D01*
X162590653Y-124766789D01*
X162590645Y-124766780D01*
X161156926Y-123333061D01*
X161135186Y-123286441D01*
X161134900Y-123279887D01*
X161134900Y-122449889D01*
X161117115Y-122360480D01*
X161099741Y-122273133D01*
X161030774Y-122106632D01*
X161030772Y-122106630D01*
X161030624Y-122106271D01*
X161024900Y-122077493D01*
X161024900Y-120547789D01*
X161026345Y-120533117D01*
X161034900Y-120490110D01*
X161034900Y-120470112D01*
X161052493Y-120421774D01*
X161056926Y-120416938D01*
X163030645Y-118443219D01*
X163030650Y-118443214D01*
X163074475Y-118377625D01*
X163130774Y-118293368D01*
X163199741Y-118126867D01*
X163234900Y-117950110D01*
X163234900Y-113949890D01*
X163199741Y-113773133D01*
X163130774Y-113606632D01*
X163072970Y-113520122D01*
X163030652Y-113456788D01*
X163030649Y-113456785D01*
X162996598Y-113422734D01*
X162903215Y-113329351D01*
X162157138Y-112583274D01*
X162135398Y-112536654D01*
X162148712Y-112486967D01*
X162190849Y-112457462D01*
X162210312Y-112454900D01*
X164110111Y-112454900D01*
X164154000Y-112446169D01*
X164286867Y-112419741D01*
X164453368Y-112350774D01*
X164603215Y-112250649D01*
X164730649Y-112123215D01*
X166170650Y-110683214D01*
X166270775Y-110533367D01*
X166339742Y-110366866D01*
X166374900Y-110190109D01*
X166374900Y-110009890D01*
X166374900Y-99049890D01*
X166339741Y-98873133D01*
X166270774Y-98706632D01*
X166266786Y-98700663D01*
X166170652Y-98556788D01*
X166170649Y-98556785D01*
X166110779Y-98496915D01*
X166043215Y-98429351D01*
X160536926Y-92923062D01*
X160515186Y-92876442D01*
X160514900Y-92869888D01*
X160514900Y-92170112D01*
X160532493Y-92121774D01*
X160536926Y-92116938D01*
X161670644Y-90983220D01*
X161670649Y-90983215D01*
X161675035Y-90976652D01*
X161729137Y-90895682D01*
X161770774Y-90833368D01*
X161839741Y-90666867D01*
X161874900Y-90490110D01*
X161874900Y-90309891D01*
X161869633Y-90283414D01*
X161839740Y-90133131D01*
X161839739Y-90133130D01*
X161831216Y-90112554D01*
X161770774Y-89966633D01*
X161767575Y-89961845D01*
X161670652Y-89816789D01*
X161670644Y-89816780D01*
X161543219Y-89689355D01*
X161543210Y-89689347D01*
X161393369Y-89589227D01*
X161226869Y-89520260D01*
X161226868Y-89520259D01*
X161050110Y-89485100D01*
X161050109Y-89485100D01*
X160869890Y-89485100D01*
X160869889Y-89485100D01*
X160689511Y-89520979D01*
X160689395Y-89520400D01*
X160662253Y-89522625D01*
X160660002Y-89522329D01*
X160660001Y-89522329D01*
X160660000Y-89522329D01*
X160587832Y-89531830D01*
X160515662Y-89541331D01*
X160381163Y-89597044D01*
X160381162Y-89597044D01*
X160265666Y-89685666D01*
X160177044Y-89801162D01*
X160177042Y-89801167D01*
X160120590Y-89937450D01*
X160104289Y-89961845D01*
X159736273Y-90329861D01*
X159689654Y-90351601D01*
X159639967Y-90338287D01*
X159610462Y-90296150D01*
X159607900Y-90276687D01*
X159607900Y-88553416D01*
X159607900Y-88553414D01*
X159588962Y-88482735D01*
X159588959Y-88482730D01*
X159588958Y-88482727D01*
X159552376Y-88419366D01*
X159552375Y-88419365D01*
X159500635Y-88367625D01*
X158725101Y-87592091D01*
X158708799Y-87567695D01*
X158672957Y-87481165D01*
X158672955Y-87481162D01*
X158584333Y-87365666D01*
X158468839Y-87277045D01*
X158468838Y-87277044D01*
X158468836Y-87277043D01*
X158381891Y-87241029D01*
X158334337Y-87221331D01*
X158190000Y-87202329D01*
X158045662Y-87221331D01*
X157911163Y-87277044D01*
X157911162Y-87277044D01*
X157795666Y-87365666D01*
X157707044Y-87481162D01*
X157707044Y-87481163D01*
X157651331Y-87615662D01*
X157632329Y-87760000D01*
X157648680Y-87884204D01*
X157651331Y-87904336D01*
X157707043Y-88038836D01*
X157707044Y-88038838D01*
X157707045Y-88038839D01*
X157795666Y-88154333D01*
X157911160Y-88242954D01*
X157911164Y-88242957D01*
X158045664Y-88298669D01*
X158190000Y-88317671D01*
X158334336Y-88298669D01*
X158468836Y-88242957D01*
X158485042Y-88230520D01*
X158534101Y-88215052D01*
X158581625Y-88234736D01*
X158583996Y-88237006D01*
X158775604Y-88428614D01*
X158797344Y-88475234D01*
X158784030Y-88524921D01*
X158741893Y-88554426D01*
X158707759Y-88555543D01*
X158625094Y-88539100D01*
X158625093Y-88539100D01*
X158494906Y-88539100D01*
X158494904Y-88539100D01*
X158401624Y-88557655D01*
X158386953Y-88559100D01*
X156714906Y-88559100D01*
X156587221Y-88584498D01*
X156587219Y-88584499D01*
X156466947Y-88634317D01*
X156358699Y-88706646D01*
X156225286Y-88840060D01*
X156013271Y-89052074D01*
X155966652Y-89073814D01*
X155960098Y-89074100D01*
X150757218Y-89074100D01*
X150708880Y-89056507D01*
X150683160Y-89011958D01*
X150687742Y-88970122D01*
X150719261Y-88894026D01*
X150719262Y-88894025D01*
X150758000Y-88699279D01*
X150758000Y-88554000D01*
X150050000Y-88554000D01*
X150050000Y-88046000D01*
X150758000Y-88046000D01*
X150758000Y-87900720D01*
X150719262Y-87705974D01*
X150719261Y-87705973D01*
X150643278Y-87522534D01*
X150532962Y-87357435D01*
X150532960Y-87357432D01*
X150392567Y-87217039D01*
X150392564Y-87217037D01*
X150227465Y-87106721D01*
X150044020Y-87030736D01*
X150044021Y-87030736D01*
X150004000Y-87022775D01*
X150004000Y-87839939D01*
X149990060Y-87815795D01*
X149934205Y-87759940D01*
X149865796Y-87720444D01*
X149789496Y-87700000D01*
X149710504Y-87700000D01*
X149634204Y-87720444D01*
X149565795Y-87759940D01*
X149509940Y-87815795D01*
X149496000Y-87839939D01*
X149496000Y-87022775D01*
X149495999Y-87022775D01*
X149455979Y-87030736D01*
X149272534Y-87106721D01*
X149107435Y-87217037D01*
X149107432Y-87217039D01*
X148967039Y-87357432D01*
X148967037Y-87357435D01*
X148856721Y-87522534D01*
X148780738Y-87705973D01*
X148780737Y-87705974D01*
X148742000Y-87900720D01*
X148742000Y-88046000D01*
X149450000Y-88046000D01*
X149450000Y-88554000D01*
X148742000Y-88554000D01*
X148742000Y-88699279D01*
X148780737Y-88894025D01*
X148780738Y-88894026D01*
X148812258Y-88970122D01*
X148814502Y-89021513D01*
X148783187Y-89062323D01*
X148742782Y-89074100D01*
X142117218Y-89074100D01*
X142068880Y-89056507D01*
X142043160Y-89011958D01*
X142047742Y-88970122D01*
X142079261Y-88894026D01*
X142079262Y-88894025D01*
X142118000Y-88699279D01*
X142118000Y-88554000D01*
X141410000Y-88554000D01*
X141410000Y-88046000D01*
X142118000Y-88046000D01*
X142118000Y-87900720D01*
X142079262Y-87705974D01*
X142079261Y-87705973D01*
X142003278Y-87522534D01*
X141892962Y-87357435D01*
X141892960Y-87357432D01*
X141752567Y-87217039D01*
X141752564Y-87217037D01*
X141587465Y-87106721D01*
X141404020Y-87030736D01*
X141404021Y-87030736D01*
X141364000Y-87022775D01*
X141364000Y-87839939D01*
X141350060Y-87815795D01*
X141294205Y-87759940D01*
X141225796Y-87720444D01*
X141149496Y-87700000D01*
X141070504Y-87700000D01*
X140994204Y-87720444D01*
X140925795Y-87759940D01*
X140869940Y-87815795D01*
X140856000Y-87839939D01*
X140856000Y-87022775D01*
X140855999Y-87022775D01*
X140815979Y-87030736D01*
X140632534Y-87106721D01*
X140467435Y-87217037D01*
X140467432Y-87217039D01*
X140327039Y-87357432D01*
X140327037Y-87357435D01*
X140216721Y-87522534D01*
X140140738Y-87705973D01*
X140140737Y-87705974D01*
X140102000Y-87900720D01*
X140102000Y-88046000D01*
X140810000Y-88046000D01*
X140810000Y-88554000D01*
X140102000Y-88554000D01*
X140102000Y-88699279D01*
X140140737Y-88894025D01*
X140140738Y-88894026D01*
X140172258Y-88970122D01*
X140174502Y-89021513D01*
X140143187Y-89062323D01*
X140102782Y-89074100D01*
X132699906Y-89074100D01*
X132572221Y-89099498D01*
X132572219Y-89099499D01*
X132451947Y-89149317D01*
X132343698Y-89221647D01*
X132343695Y-89221649D01*
X131452792Y-90112554D01*
X131168701Y-90396645D01*
X130741990Y-90823355D01*
X130614076Y-90951269D01*
X130602685Y-90960618D01*
X130578699Y-90976646D01*
X130578692Y-90976652D01*
X130125703Y-91429641D01*
X130101308Y-91445941D01*
X130085394Y-91452534D01*
X130056947Y-91464317D01*
X129948699Y-91536646D01*
X129925505Y-91559841D01*
X129856645Y-91628701D01*
X129856643Y-91628703D01*
X125428124Y-96057221D01*
X125346649Y-96138695D01*
X125346647Y-96138698D01*
X125274317Y-96246947D01*
X125224499Y-96367219D01*
X125224498Y-96367221D01*
X125199100Y-96494906D01*
X125199100Y-113745093D01*
X122342968Y-113745093D01*
X122342968Y-96918856D01*
X122360561Y-96870518D01*
X122398702Y-96846219D01*
X122484587Y-96823207D01*
X122575913Y-96770480D01*
X122650480Y-96695913D01*
X122703207Y-96604587D01*
X122730500Y-96502727D01*
X122730500Y-96397273D01*
X122703207Y-96295413D01*
X122650480Y-96204087D01*
X122650478Y-96204085D01*
X122650476Y-96204082D01*
X122584568Y-96138174D01*
X122562828Y-96091554D01*
X122576142Y-96041867D01*
X122584568Y-96031826D01*
X122660476Y-95955917D01*
X122660480Y-95955913D01*
X122713207Y-95864587D01*
X122740500Y-95762727D01*
X122740500Y-95657273D01*
X122713207Y-95555413D01*
X122708011Y-95546414D01*
X122702063Y-95536112D01*
X122660480Y-95464087D01*
X122660478Y-95464085D01*
X122660476Y-95464082D01*
X122609568Y-95413174D01*
X122587828Y-95366554D01*
X122601142Y-95316867D01*
X122609568Y-95306826D01*
X122670476Y-95245917D01*
X122670480Y-95245913D01*
X122723207Y-95154587D01*
X122750500Y-95052727D01*
X122750500Y-94947273D01*
X122723207Y-94845413D01*
X122670480Y-94754087D01*
X122670478Y-94754085D01*
X122670476Y-94754082D01*
X122604568Y-94688174D01*
X122582828Y-94641554D01*
X122596142Y-94591867D01*
X122604568Y-94581826D01*
X122660476Y-94525917D01*
X122660480Y-94525913D01*
X122713207Y-94434587D01*
X122740500Y-94332727D01*
X122740500Y-94227273D01*
X122713207Y-94125413D01*
X122660480Y-94034087D01*
X122660478Y-94034085D01*
X122660476Y-94034082D01*
X122594568Y-93968174D01*
X122572828Y-93921554D01*
X122586142Y-93871867D01*
X122594568Y-93861826D01*
X122660476Y-93795917D01*
X122660480Y-93795913D01*
X122713207Y-93704587D01*
X122740500Y-93602727D01*
X122740500Y-93497273D01*
X122713207Y-93395413D01*
X122711426Y-93392329D01*
X122698598Y-93370110D01*
X122660480Y-93304087D01*
X122660478Y-93304085D01*
X122660476Y-93304082D01*
X122585917Y-93229523D01*
X122585911Y-93229519D01*
X122494588Y-93176793D01*
X122419945Y-93156793D01*
X122398704Y-93151101D01*
X122356568Y-93121597D01*
X122342968Y-93078464D01*
X122342968Y-91608179D01*
X122360561Y-91559841D01*
X122364994Y-91555005D01*
X126976006Y-86943994D01*
X132874500Y-86943994D01*
X132901420Y-87079329D01*
X132901421Y-87079331D01*
X132954224Y-87206809D01*
X132954225Y-87206811D01*
X133030886Y-87321542D01*
X133030888Y-87321544D01*
X133030890Y-87321547D01*
X133128452Y-87419109D01*
X133128455Y-87419111D01*
X133128458Y-87419114D01*
X133243189Y-87495775D01*
X133370672Y-87548580D01*
X133452165Y-87564790D01*
X133506005Y-87575500D01*
X133506007Y-87575500D01*
X133643995Y-87575500D01*
X133688901Y-87566566D01*
X133779328Y-87548580D01*
X133906811Y-87495775D01*
X134021542Y-87419114D01*
X134119114Y-87321542D01*
X134195775Y-87206811D01*
X134248580Y-87079328D01*
X134275500Y-86943994D01*
X135874500Y-86943994D01*
X135901420Y-87079329D01*
X135901421Y-87079331D01*
X135954224Y-87206809D01*
X135954225Y-87206811D01*
X136030886Y-87321542D01*
X136030888Y-87321544D01*
X136030890Y-87321547D01*
X136128452Y-87419109D01*
X136128455Y-87419111D01*
X136128458Y-87419114D01*
X136243189Y-87495775D01*
X136370672Y-87548580D01*
X136452165Y-87564790D01*
X136506005Y-87575500D01*
X136506007Y-87575500D01*
X136643995Y-87575500D01*
X136688901Y-87566566D01*
X136779328Y-87548580D01*
X136906811Y-87495775D01*
X137021542Y-87419114D01*
X137119114Y-87321542D01*
X137195775Y-87206811D01*
X137248580Y-87079328D01*
X137275500Y-86943993D01*
X137275500Y-86806007D01*
X137248580Y-86670672D01*
X137195775Y-86543189D01*
X137119114Y-86428458D01*
X137119111Y-86428455D01*
X137119109Y-86428452D01*
X137021547Y-86330890D01*
X137021544Y-86330888D01*
X137021542Y-86330886D01*
X136906811Y-86254225D01*
X136906809Y-86254224D01*
X136779331Y-86201421D01*
X136779329Y-86201420D01*
X136643995Y-86174500D01*
X136643993Y-86174500D01*
X136506007Y-86174500D01*
X136506005Y-86174500D01*
X136370670Y-86201420D01*
X136370668Y-86201421D01*
X136243190Y-86254224D01*
X136128455Y-86330888D01*
X136128452Y-86330890D01*
X136030890Y-86428452D01*
X136030888Y-86428455D01*
X135954224Y-86543190D01*
X135901421Y-86670668D01*
X135901420Y-86670670D01*
X135874500Y-86806005D01*
X135874500Y-86943994D01*
X134275500Y-86943994D01*
X134275500Y-86943993D01*
X134275500Y-86806007D01*
X134248580Y-86670672D01*
X134195775Y-86543189D01*
X134119114Y-86428458D01*
X134119111Y-86428455D01*
X134119109Y-86428452D01*
X134021547Y-86330890D01*
X134021544Y-86330888D01*
X134021542Y-86330886D01*
X133906811Y-86254225D01*
X133906809Y-86254224D01*
X133779331Y-86201421D01*
X133779329Y-86201420D01*
X133643995Y-86174500D01*
X133643993Y-86174500D01*
X133506007Y-86174500D01*
X133506005Y-86174500D01*
X133370670Y-86201420D01*
X133370668Y-86201421D01*
X133243190Y-86254224D01*
X133128455Y-86330888D01*
X133128452Y-86330890D01*
X133030890Y-86428452D01*
X133030888Y-86428455D01*
X132954224Y-86543190D01*
X132901421Y-86670668D01*
X132901420Y-86670670D01*
X132874500Y-86806005D01*
X132874500Y-86943994D01*
X126976006Y-86943994D01*
X128556673Y-85363327D01*
X128603293Y-85341587D01*
X128609847Y-85341301D01*
X137192828Y-85341301D01*
X152493028Y-85341301D01*
X161070189Y-85341301D01*
X161118527Y-85358894D01*
G37*
%TD.AperFunction*%
%TD*%
M02*
