%TF.GenerationSoftware,KiCad,Pcbnew,8.0.1*%
%TF.CreationDate,2024-05-11T18:36:51+02:00*%
%TF.ProjectId,Dron Wi-Fi ESP32,44726f6e-2057-4692-9d46-692045535033,rev?*%
%TF.SameCoordinates,Original*%
%TF.FileFunction,Soldermask,Bot*%
%TF.FilePolarity,Negative*%
%FSLAX46Y46*%
G04 Gerber Fmt 4.6, Leading zero omitted, Abs format (unit mm)*
G04 Created by KiCad (PCBNEW 8.0.1) date 2024-05-11 18:36:51*
%MOMM*%
%LPD*%
G01*
G04 APERTURE LIST*
%ADD10C,0.000000*%
%ADD11C,0.300000*%
%ADD12R,1.700000X1.700000*%
%ADD13O,1.700000X1.700000*%
%ADD14C,0.650000*%
%ADD15O,1.000000X2.100000*%
%ADD16O,1.000000X1.600000*%
%ADD17C,0.900000*%
G04 APERTURE END LIST*
D10*
G36*
X111642170Y-70832170D02*
G01*
X107980760Y-74491040D01*
X105854780Y-72373950D01*
X109520000Y-68710000D01*
X111642170Y-70832170D01*
G37*
G36*
X99912170Y-59272170D02*
G01*
X96250760Y-62931040D01*
X94124780Y-60813950D01*
X97790000Y-57150000D01*
X99912170Y-59272170D01*
G37*
G36*
X195580000Y-60830000D02*
G01*
X193457830Y-62952170D01*
X189798960Y-59290760D01*
X191916050Y-57164780D01*
X195580000Y-60830000D01*
G37*
G36*
X184280000Y-71950000D02*
G01*
X182157830Y-74072170D01*
X178498960Y-70410760D01*
X180616050Y-68284780D01*
X184280000Y-71950000D01*
G37*
G36*
X195332170Y-154662170D02*
G01*
X191670760Y-158321040D01*
X189544780Y-156203950D01*
X193210000Y-152540000D01*
X195332170Y-154662170D01*
G37*
G36*
X183992170Y-143542170D02*
G01*
X180330760Y-147201040D01*
X178204780Y-145083950D01*
X181870000Y-141420000D01*
X183992170Y-143542170D01*
G37*
G36*
X99940000Y-156470000D02*
G01*
X97817830Y-158592170D01*
X94158960Y-154930760D01*
X96276050Y-152804780D01*
X99940000Y-156470000D01*
G37*
G36*
X178041988Y-105615581D02*
G01*
X175041998Y-105615581D01*
X175041998Y-103615581D01*
X178041988Y-103615581D01*
X178041988Y-105615581D01*
G37*
G36*
X178041988Y-112067181D02*
G01*
X175041998Y-112067181D01*
X175041998Y-110067181D01*
X178041988Y-110067181D01*
X178041988Y-112067181D01*
G37*
G36*
X178041988Y-115800981D02*
G01*
X175041998Y-115800981D01*
X175041998Y-113800981D01*
X178041988Y-113800981D01*
X178041988Y-115800981D01*
G37*
G36*
X194602788Y-115794631D02*
G01*
X191602798Y-115794631D01*
X191602798Y-113794631D01*
X194602788Y-113794631D01*
X194602788Y-115794631D01*
G37*
G36*
X194602788Y-112067181D02*
G01*
X191602798Y-112067181D01*
X191602798Y-110067181D01*
X194602788Y-110067181D01*
X194602788Y-112067181D01*
G37*
G36*
X194602788Y-105634631D02*
G01*
X191602798Y-105634631D01*
X191602798Y-103634631D01*
X194602788Y-103634631D01*
X194602788Y-105634631D01*
G37*
G36*
X194602788Y-101881781D02*
G01*
X191602798Y-101881781D01*
X191602798Y-99881781D01*
X194602788Y-99881781D01*
X194602788Y-101881781D01*
G37*
G36*
X178041988Y-101881781D02*
G01*
X175041998Y-101881781D01*
X175041998Y-99881781D01*
X178041988Y-99881781D01*
X178041988Y-101881781D01*
G37*
G36*
X178041988Y-105615581D02*
G01*
X175041998Y-105615581D01*
X175041998Y-103615581D01*
X178041988Y-103615581D01*
X178041988Y-105615581D01*
G37*
G36*
X114642828Y-105615581D02*
G01*
X111642838Y-105615581D01*
X111642838Y-103615581D01*
X114642828Y-103615581D01*
X114642828Y-105615581D01*
G37*
G36*
X114642828Y-101881781D02*
G01*
X111642838Y-101881781D01*
X111642838Y-99881781D01*
X114642828Y-99881781D01*
X114642828Y-101881781D01*
G37*
G36*
X98082788Y-101881781D02*
G01*
X95082798Y-101881781D01*
X95082798Y-99881781D01*
X98082788Y-99881781D01*
X98082788Y-101881781D01*
G37*
G36*
X98082788Y-105615581D02*
G01*
X95082798Y-105615581D01*
X95082798Y-103615581D01*
X98082788Y-103615581D01*
X98082788Y-105615581D01*
G37*
G36*
X98082788Y-112067181D02*
G01*
X95082798Y-112067181D01*
X95082798Y-110067181D01*
X98082788Y-110067181D01*
X98082788Y-112067181D01*
G37*
G36*
X98082788Y-115800981D02*
G01*
X95082798Y-115800981D01*
X95082798Y-113800981D01*
X98082788Y-113800981D01*
X98082788Y-115800981D01*
G37*
G36*
X114642828Y-115800981D02*
G01*
X111642838Y-115800981D01*
X111642838Y-113800981D01*
X114642828Y-113800981D01*
X114642828Y-115800981D01*
G37*
G36*
X111640005Y-110050000D02*
G01*
X114639995Y-110050000D01*
X114639995Y-112050000D01*
X111640005Y-112050000D01*
X111640005Y-110050000D01*
G37*
G36*
X111360581Y-144737864D02*
G01*
X109238411Y-146860034D01*
X105579541Y-143198624D01*
X107696631Y-141072644D01*
X111360581Y-144737864D01*
G37*
D11*
%TO.C,REF\u002A\u002A*%
X122340000Y-121420000D03*
%TD*%
D12*
%TO.C,J7*%
X132500000Y-109000000D03*
D13*
X132500000Y-111540000D03*
X132500000Y-114080000D03*
X132500000Y-116620000D03*
X132500000Y-119160000D03*
X132500000Y-121700000D03*
%TD*%
D11*
%TO.C,REF\u002A\u002A*%
X134200000Y-134340000D03*
%TD*%
D14*
%TO.C,J1*%
X148320000Y-91950000D03*
X142540000Y-91950000D03*
D15*
X149750000Y-92480000D03*
D16*
X149750000Y-88300000D03*
D15*
X141110000Y-92480000D03*
D16*
X141110000Y-88300000D03*
%TD*%
D11*
%TO.C,REF\u002A\u002A*%
X122340000Y-93550000D03*
%TD*%
%TO.C,REF\u002A\u002A*%
X135650000Y-134330000D03*
%TD*%
%TO.C,REF\u002A\u002A*%
X177140000Y-121360000D03*
%TD*%
%TO.C,REF\u002A\u002A*%
X177150000Y-93540000D03*
%TD*%
%TO.C,REF\u002A\u002A*%
X136390000Y-130340000D03*
%TD*%
D17*
%TO.C,SW1*%
X136575000Y-86875000D03*
X133575000Y-86875000D03*
%TD*%
D11*
%TO.C,REF\u002A\u002A*%
X112550000Y-94230000D03*
%TD*%
%TO.C,REF\u002A\u002A*%
X122340000Y-94280000D03*
%TD*%
%TO.C,*%
X167330000Y-121350000D03*
%TD*%
%TO.C,REF\u002A\u002A*%
X177140000Y-96440000D03*
%TD*%
%TO.C,REF\u002A\u002A*%
X112560000Y-120730000D03*
%TD*%
%TO.C,REF\u002A\u002A*%
X122340000Y-119990000D03*
%TD*%
%TO.C,REF\u002A\u002A*%
X112550000Y-120010000D03*
%TD*%
%TO.C,*%
X167340000Y-119220000D03*
%TD*%
%TO.C,REF\u002A\u002A*%
X177140000Y-119200000D03*
%TD*%
%TO.C,REF\u002A\u002A*%
X122350000Y-95000000D03*
%TD*%
%TO.C,REF\u002A\u002A*%
X153390000Y-130430000D03*
%TD*%
%TO.C,*%
X167340000Y-95720000D03*
%TD*%
%TO.C,REF\u002A\u002A*%
X122330000Y-96450000D03*
%TD*%
%TO.C,*%
X167350000Y-94260000D03*
%TD*%
%TO.C,REF\u002A\u002A*%
X122340000Y-119260000D03*
%TD*%
%TO.C,*%
X153340000Y-134340000D03*
%TD*%
%TO.C,REF\u002A\u002A*%
X177140000Y-119930000D03*
%TD*%
%TO.C,REF\u002A\u002A*%
X135680000Y-130330000D03*
%TD*%
%TO.C,REF\u002A\u002A*%
X177160000Y-94990000D03*
%TD*%
%TO.C,REF\u002A\u002A*%
X134930000Y-134340000D03*
%TD*%
%TO.C,REF\u002A\u002A*%
X112560000Y-94950000D03*
%TD*%
%TO.C,REF\u002A\u002A*%
X112540000Y-96400000D03*
%TD*%
%TO.C,REF\u002A\u002A*%
X122350000Y-120710000D03*
%TD*%
%TO.C,REF\u002A\u002A*%
X177150000Y-94270000D03*
%TD*%
D12*
%TO.C,J8*%
X157275000Y-109000000D03*
D13*
X157275000Y-111540000D03*
X157275000Y-114080000D03*
X157275000Y-116620000D03*
X157275000Y-119160000D03*
X157275000Y-121700000D03*
%TD*%
D11*
%TO.C,REF\u002A\u002A*%
X136360000Y-134340000D03*
%TD*%
%TO.C,*%
X167340000Y-93530000D03*
%TD*%
%TO.C,*%
X154710000Y-134340000D03*
%TD*%
%TO.C,REF\u002A\u002A*%
X155370000Y-130450000D03*
%TD*%
%TO.C,REF\u002A\u002A*%
X177150000Y-95700000D03*
%TD*%
%TO.C,REF\u002A\u002A*%
X112550000Y-93500000D03*
%TD*%
%TO.C,REF\u002A\u002A*%
X177130000Y-122100000D03*
%TD*%
%TO.C,REF\u002A\u002A*%
X112550000Y-121440000D03*
%TD*%
%TO.C,*%
X154040000Y-134340000D03*
%TD*%
%TO.C,REF\u002A\u002A*%
X122340000Y-95710000D03*
%TD*%
%TO.C,*%
X167340000Y-120620000D03*
%TD*%
%TO.C,REF\u002A\u002A*%
X122330000Y-122160000D03*
%TD*%
%TO.C,REF\u002A\u002A*%
X112550000Y-95660000D03*
%TD*%
%TO.C,REF\u002A\u002A*%
X112540000Y-122180000D03*
%TD*%
%TO.C,REF\u002A\u002A*%
X134960000Y-130340000D03*
%TD*%
%TO.C,REF\u002A\u002A*%
X112550000Y-119280000D03*
%TD*%
%TO.C,*%
X167360000Y-95010000D03*
%TD*%
%TO.C,REF\u002A\u002A*%
X177150000Y-120650000D03*
%TD*%
%TO.C,REF\u002A\u002A*%
X134230000Y-130340000D03*
%TD*%
%TO.C,*%
X167340000Y-122040000D03*
%TD*%
%TO.C,*%
X155430000Y-134340000D03*
%TD*%
%TO.C,REF\u002A\u002A*%
X154740000Y-130440000D03*
%TD*%
%TO.C,REF\u002A\u002A*%
X154150000Y-130460000D03*
%TD*%
%TO.C,*%
X167340000Y-119950000D03*
%TD*%
%TO.C,*%
X167340000Y-96450000D03*
%TD*%
M02*
