M48
; DRILL file {KiCad 8.0.1} date 2024-05-11T18:37:04+0200
; FORMAT={-:-/ absolute / inch / decimal}
; #@! TF.CreationDate,2024-05-11T18:37:04+02:00
; #@! TF.GenerationSoftware,Kicad,Pcbnew,8.0.1
; #@! TF.FileFunction,Plated,1,2,PTH
FMAT,2
INCH
; #@! TA.AperFunction,Plated,PTH,ComponentDrill
T1C0.0118
; #@! TA.AperFunction,Plated,PTH,ViaDrill
T2C0.0157
; #@! TA.AperFunction,Plated,PTH,ComponentDrill
T3C0.0236
; #@! TA.AperFunction,Plated,PTH,ComponentDrill
T4C0.0394
%
G90
G05
T1
X5.6692Y-4.7479
X5.6692Y-4.808
X5.7292Y-4.7479
X5.7292Y-4.808
X5.7893Y-4.7479
X5.7893Y-4.808
T2
X4.9866Y-4.5071
X5.0177Y-4.539
X5.0469Y-4.5673
X5.0492Y-4.0118
X5.0827Y-4.0827
X5.0925Y-4.3701
X5.0992Y-4.878
X5.1098Y-4.8441
X5.1181Y-4.3169
X5.1299Y-3.9705
X5.1339Y-4.0492
X5.135Y-3.6232
X5.1575Y-3.602
X5.1807Y-3.5791
X5.189Y-3.8366
X5.1929Y-4.126
X5.2579Y-4.2126
X5.2638Y-3.6358
X5.3031Y-4.6161
X5.3819Y-4.313
X5.4114Y-4.6673
X5.4173Y-4.8681
X5.435Y-5.0177
X5.4417Y-4.0846
X5.4508Y-4.8169
X5.4787Y-4.0764
X5.4882Y-3.9665
X5.504Y-4.8737
X5.5335Y-4.7087
X5.5768Y-4.0354
X5.5772Y-4.0807
X5.5803Y-4.7268
X5.5803Y-4.9354
X5.6496Y-4.0413
X5.6921Y-3.7441
X5.7171Y-4.3041
X5.75Y-3.9075
X5.7756Y-3.7461
X5.811Y-4.0827
X5.811Y-4.2598
X5.8189Y-3.9075
X5.8551Y-3.837
X5.8606Y-4.1012
X5.8709Y-3.7469
X5.8894Y-3.8366
X5.8918Y-4.5724
X5.9094Y-4.0197
X5.9236Y-3.837
X5.9528Y-4.1516
X5.9642Y-4.7169
X5.9882Y-4.9665
X5.9961Y-4.6161
X6.0197Y-3.648
X6.0823Y-3.6472
X6.0941Y-3.8339
X6.1299Y-3.8024
X6.1299Y-3.8339
X6.1575Y-3.6988
X6.1724Y-3.5126
X6.1768Y-4.8894
X6.2087Y-3.5118
X6.228Y-3.4551
X6.2425Y-3.5118
X6.2835Y-3.6366
X6.2969Y-5.085
X6.3012Y-4.6043
X6.3031Y-4.7756
X6.3035Y-4.8201
X6.3039Y-4.7402
X6.3079Y-4.8697
X6.3087Y-3.5902
X6.3252Y-3.5465
X6.3543Y-4.9189
X6.4543Y-3.9736
T4
X5.2165Y-4.2913
X5.2165Y-4.3913
X5.2165Y-4.4913
X5.2165Y-4.5913
X5.2165Y-4.6913
X5.2165Y-4.7913
X6.1919Y-4.2913
X6.1919Y-4.3913
X6.1919Y-4.4913
X6.1919Y-4.5913
X6.1919Y-4.6913
X6.1919Y-4.7913
T3
G00X5.5555Y-3.4882
M15
G01X5.5555Y-3.4646
M16
G05
G00X5.5555Y-3.6626
M15
G01X5.5555Y-3.6193
M16
G05
G00X5.8957Y-3.4882
M15
G01X5.8957Y-3.4646
M16
G05
G00X5.8957Y-3.6626
M15
G01X5.8957Y-3.6193
M16
G05
M30
