M48
; DRILL file {KiCad 8.0.1} date 2024-05-11T18:37:04+0200
; FORMAT={-:-/ absolute / inch / decimal}
; #@! TF.CreationDate,2024-05-11T18:37:04+02:00
; #@! TF.GenerationSoftware,Kicad,Pcbnew,8.0.1
; #@! TF.FileFunction,NonPlated,1,2,NPTH
FMAT,2
INCH
; #@! TA.AperFunction,NonPlated,NPTH,ComponentDrill
T1C0.0118
; #@! TA.AperFunction,NonPlated,NPTH,ComponentDrill
T2C0.0256
; #@! TA.AperFunction,NonPlated,NPTH,ComponentDrill
T3C0.0354
%
G90
G05
T1
X4.4307Y-3.7953
X4.4307Y-4.8102
X4.4311Y-3.6811
X4.4311Y-3.7098
X4.4311Y-3.7661
X4.4311Y-4.6961
X4.4311Y-4.7248
X4.4311Y-4.7811
X4.4315Y-3.7382
X4.4315Y-4.7531
X4.8161Y-3.7972
X4.8161Y-4.8094
X4.8165Y-3.6831
X4.8165Y-3.7118
X4.8165Y-3.7681
X4.8165Y-4.6953
X4.8165Y-4.724
X4.8165Y-4.7803
X4.8169Y-3.7402
X4.8169Y-4.7524
X5.2835Y-5.289
X5.2846Y-5.1315
X5.3122Y-5.289
X5.3134Y-5.1315
X5.3406Y-5.2886
X5.3417Y-5.1311
X5.3685Y-5.289
X5.3697Y-5.1315
X6.037Y-5.289
X6.039Y-5.135
X6.0646Y-5.289
X6.0689Y-5.1362
X6.0909Y-5.289
X6.0921Y-5.1354
X6.1169Y-5.1358
X6.1193Y-5.289
X6.5878Y-4.7776
X6.5882Y-3.6823
X6.5882Y-3.7685
X6.5882Y-3.7972
X6.5882Y-4.6937
X6.5882Y-4.7224
X6.5882Y-4.7488
X6.5882Y-4.8047
X6.5886Y-3.711
X6.589Y-3.7406
X6.9736Y-4.8071
X6.974Y-3.7969
X6.974Y-4.6929
X6.974Y-4.7217
X6.974Y-4.778
X6.9744Y-3.6827
X6.9744Y-3.7114
X6.9744Y-3.7677
X6.9744Y-4.75
X6.9748Y-3.7398
T2
X5.6118Y-3.6201
X5.8394Y-3.6201
T3
X5.2589Y-3.4203
X5.377Y-3.4203
M30
