%TF.GenerationSoftware,KiCad,Pcbnew,8.0.1*%
%TF.CreationDate,2024-05-11T18:36:51+02:00*%
%TF.ProjectId,Dron Wi-Fi ESP32,44726f6e-2057-4692-9d46-692045535033,rev?*%
%TF.SameCoordinates,Original*%
%TF.FileFunction,Profile,NP*%
%FSLAX46Y46*%
G04 Gerber Fmt 4.6, Leading zero omitted, Abs format (unit mm)*
G04 Created by KiCad (PCBNEW 8.0.1) date 2024-05-11 18:36:51*
%MOMM*%
%LPD*%
G01*
G04 APERTURE LIST*
%ADD10C,0.150000*%
%TA.AperFunction,Profile*%
%ADD11C,0.050000*%
%TD*%
%TA.AperFunction,Profile*%
%ADD12C,0.025400*%
%TD*%
G04 APERTURE END LIST*
D10*
X140319113Y-49904819D02*
X139747685Y-49904819D01*
X140033399Y-49904819D02*
X140033399Y-48904819D01*
X140033399Y-48904819D02*
X139938161Y-49047676D01*
X139938161Y-49047676D02*
X139842923Y-49142914D01*
X139842923Y-49142914D02*
X139747685Y-49190533D01*
X140938161Y-48904819D02*
X141033399Y-48904819D01*
X141033399Y-48904819D02*
X141128637Y-48952438D01*
X141128637Y-48952438D02*
X141176256Y-49000057D01*
X141176256Y-49000057D02*
X141223875Y-49095295D01*
X141223875Y-49095295D02*
X141271494Y-49285771D01*
X141271494Y-49285771D02*
X141271494Y-49523866D01*
X141271494Y-49523866D02*
X141223875Y-49714342D01*
X141223875Y-49714342D02*
X141176256Y-49809580D01*
X141176256Y-49809580D02*
X141128637Y-49857200D01*
X141128637Y-49857200D02*
X141033399Y-49904819D01*
X141033399Y-49904819D02*
X140938161Y-49904819D01*
X140938161Y-49904819D02*
X140842923Y-49857200D01*
X140842923Y-49857200D02*
X140795304Y-49809580D01*
X140795304Y-49809580D02*
X140747685Y-49714342D01*
X140747685Y-49714342D02*
X140700066Y-49523866D01*
X140700066Y-49523866D02*
X140700066Y-49285771D01*
X140700066Y-49285771D02*
X140747685Y-49095295D01*
X140747685Y-49095295D02*
X140795304Y-49000057D01*
X140795304Y-49000057D02*
X140842923Y-48952438D01*
X140842923Y-48952438D02*
X140938161Y-48904819D01*
X141890542Y-48904819D02*
X141985780Y-48904819D01*
X141985780Y-48904819D02*
X142081018Y-48952438D01*
X142081018Y-48952438D02*
X142128637Y-49000057D01*
X142128637Y-49000057D02*
X142176256Y-49095295D01*
X142176256Y-49095295D02*
X142223875Y-49285771D01*
X142223875Y-49285771D02*
X142223875Y-49523866D01*
X142223875Y-49523866D02*
X142176256Y-49714342D01*
X142176256Y-49714342D02*
X142128637Y-49809580D01*
X142128637Y-49809580D02*
X142081018Y-49857200D01*
X142081018Y-49857200D02*
X141985780Y-49904819D01*
X141985780Y-49904819D02*
X141890542Y-49904819D01*
X141890542Y-49904819D02*
X141795304Y-49857200D01*
X141795304Y-49857200D02*
X141747685Y-49809580D01*
X141747685Y-49809580D02*
X141700066Y-49714342D01*
X141700066Y-49714342D02*
X141652447Y-49523866D01*
X141652447Y-49523866D02*
X141652447Y-49285771D01*
X141652447Y-49285771D02*
X141700066Y-49095295D01*
X141700066Y-49095295D02*
X141747685Y-49000057D01*
X141747685Y-49000057D02*
X141795304Y-48952438D01*
X141795304Y-48952438D02*
X141890542Y-48904819D01*
X142700066Y-49857200D02*
X142700066Y-49904819D01*
X142700066Y-49904819D02*
X142652447Y-50000057D01*
X142652447Y-50000057D02*
X142604828Y-50047676D01*
X143319113Y-48904819D02*
X143414351Y-48904819D01*
X143414351Y-48904819D02*
X143509589Y-48952438D01*
X143509589Y-48952438D02*
X143557208Y-49000057D01*
X143557208Y-49000057D02*
X143604827Y-49095295D01*
X143604827Y-49095295D02*
X143652446Y-49285771D01*
X143652446Y-49285771D02*
X143652446Y-49523866D01*
X143652446Y-49523866D02*
X143604827Y-49714342D01*
X143604827Y-49714342D02*
X143557208Y-49809580D01*
X143557208Y-49809580D02*
X143509589Y-49857200D01*
X143509589Y-49857200D02*
X143414351Y-49904819D01*
X143414351Y-49904819D02*
X143319113Y-49904819D01*
X143319113Y-49904819D02*
X143223875Y-49857200D01*
X143223875Y-49857200D02*
X143176256Y-49809580D01*
X143176256Y-49809580D02*
X143128637Y-49714342D01*
X143128637Y-49714342D02*
X143081018Y-49523866D01*
X143081018Y-49523866D02*
X143081018Y-49285771D01*
X143081018Y-49285771D02*
X143128637Y-49095295D01*
X143128637Y-49095295D02*
X143176256Y-49000057D01*
X143176256Y-49000057D02*
X143223875Y-48952438D01*
X143223875Y-48952438D02*
X143319113Y-48904819D01*
X144271494Y-48904819D02*
X144366732Y-48904819D01*
X144366732Y-48904819D02*
X144461970Y-48952438D01*
X144461970Y-48952438D02*
X144509589Y-49000057D01*
X144509589Y-49000057D02*
X144557208Y-49095295D01*
X144557208Y-49095295D02*
X144604827Y-49285771D01*
X144604827Y-49285771D02*
X144604827Y-49523866D01*
X144604827Y-49523866D02*
X144557208Y-49714342D01*
X144557208Y-49714342D02*
X144509589Y-49809580D01*
X144509589Y-49809580D02*
X144461970Y-49857200D01*
X144461970Y-49857200D02*
X144366732Y-49904819D01*
X144366732Y-49904819D02*
X144271494Y-49904819D01*
X144271494Y-49904819D02*
X144176256Y-49857200D01*
X144176256Y-49857200D02*
X144128637Y-49809580D01*
X144128637Y-49809580D02*
X144081018Y-49714342D01*
X144081018Y-49714342D02*
X144033399Y-49523866D01*
X144033399Y-49523866D02*
X144033399Y-49285771D01*
X144033399Y-49285771D02*
X144081018Y-49095295D01*
X144081018Y-49095295D02*
X144128637Y-49000057D01*
X144128637Y-49000057D02*
X144176256Y-48952438D01*
X144176256Y-48952438D02*
X144271494Y-48904819D01*
X145223875Y-48904819D02*
X145319113Y-48904819D01*
X145319113Y-48904819D02*
X145414351Y-48952438D01*
X145414351Y-48952438D02*
X145461970Y-49000057D01*
X145461970Y-49000057D02*
X145509589Y-49095295D01*
X145509589Y-49095295D02*
X145557208Y-49285771D01*
X145557208Y-49285771D02*
X145557208Y-49523866D01*
X145557208Y-49523866D02*
X145509589Y-49714342D01*
X145509589Y-49714342D02*
X145461970Y-49809580D01*
X145461970Y-49809580D02*
X145414351Y-49857200D01*
X145414351Y-49857200D02*
X145319113Y-49904819D01*
X145319113Y-49904819D02*
X145223875Y-49904819D01*
X145223875Y-49904819D02*
X145128637Y-49857200D01*
X145128637Y-49857200D02*
X145081018Y-49809580D01*
X145081018Y-49809580D02*
X145033399Y-49714342D01*
X145033399Y-49714342D02*
X144985780Y-49523866D01*
X144985780Y-49523866D02*
X144985780Y-49285771D01*
X144985780Y-49285771D02*
X145033399Y-49095295D01*
X145033399Y-49095295D02*
X145081018Y-49000057D01*
X145081018Y-49000057D02*
X145128637Y-48952438D01*
X145128637Y-48952438D02*
X145223875Y-48904819D01*
X146509589Y-49904819D02*
X145938161Y-49904819D01*
X146223875Y-49904819D02*
X146223875Y-48904819D01*
X146223875Y-48904819D02*
X146128637Y-49047676D01*
X146128637Y-49047676D02*
X146033399Y-49142914D01*
X146033399Y-49142914D02*
X145938161Y-49190533D01*
X147700066Y-49904819D02*
X147700066Y-49238152D01*
X147700066Y-49333390D02*
X147747685Y-49285771D01*
X147747685Y-49285771D02*
X147842923Y-49238152D01*
X147842923Y-49238152D02*
X147985780Y-49238152D01*
X147985780Y-49238152D02*
X148081018Y-49285771D01*
X148081018Y-49285771D02*
X148128637Y-49381009D01*
X148128637Y-49381009D02*
X148128637Y-49904819D01*
X148128637Y-49381009D02*
X148176256Y-49285771D01*
X148176256Y-49285771D02*
X148271494Y-49238152D01*
X148271494Y-49238152D02*
X148414351Y-49238152D01*
X148414351Y-49238152D02*
X148509590Y-49285771D01*
X148509590Y-49285771D02*
X148557209Y-49381009D01*
X148557209Y-49381009D02*
X148557209Y-49904819D01*
X149033399Y-49904819D02*
X149033399Y-49238152D01*
X149033399Y-49333390D02*
X149081018Y-49285771D01*
X149081018Y-49285771D02*
X149176256Y-49238152D01*
X149176256Y-49238152D02*
X149319113Y-49238152D01*
X149319113Y-49238152D02*
X149414351Y-49285771D01*
X149414351Y-49285771D02*
X149461970Y-49381009D01*
X149461970Y-49381009D02*
X149461970Y-49904819D01*
X149461970Y-49381009D02*
X149509589Y-49285771D01*
X149509589Y-49285771D02*
X149604827Y-49238152D01*
X149604827Y-49238152D02*
X149747684Y-49238152D01*
X149747684Y-49238152D02*
X149842923Y-49285771D01*
X149842923Y-49285771D02*
X149890542Y-49381009D01*
X149890542Y-49381009D02*
X149890542Y-49904819D01*
D11*
X94842898Y-61635861D02*
X94842898Y-50013580D01*
X194842948Y-61635861D02*
X194842948Y-50013580D01*
X94842898Y-50600000D02*
X194842948Y-50600000D01*
X94842898Y-50600000D02*
X194842948Y-50600000D01*
X94842898Y-50600000D02*
X95969402Y-50013579D01*
X94842898Y-50600000D02*
X95969402Y-51186421D01*
X194842948Y-50600000D02*
X193716444Y-51186421D01*
X194842948Y-50600000D02*
X193716444Y-50013579D01*
D10*
X85064820Y-112365065D02*
X85064820Y-112936493D01*
X85064820Y-112650779D02*
X84064820Y-112650779D01*
X84064820Y-112650779D02*
X84207677Y-112746017D01*
X84207677Y-112746017D02*
X84302915Y-112841255D01*
X84302915Y-112841255D02*
X84350534Y-112936493D01*
X84064820Y-111746017D02*
X84064820Y-111650779D01*
X84064820Y-111650779D02*
X84112439Y-111555541D01*
X84112439Y-111555541D02*
X84160058Y-111507922D01*
X84160058Y-111507922D02*
X84255296Y-111460303D01*
X84255296Y-111460303D02*
X84445772Y-111412684D01*
X84445772Y-111412684D02*
X84683867Y-111412684D01*
X84683867Y-111412684D02*
X84874343Y-111460303D01*
X84874343Y-111460303D02*
X84969581Y-111507922D01*
X84969581Y-111507922D02*
X85017201Y-111555541D01*
X85017201Y-111555541D02*
X85064820Y-111650779D01*
X85064820Y-111650779D02*
X85064820Y-111746017D01*
X85064820Y-111746017D02*
X85017201Y-111841255D01*
X85017201Y-111841255D02*
X84969581Y-111888874D01*
X84969581Y-111888874D02*
X84874343Y-111936493D01*
X84874343Y-111936493D02*
X84683867Y-111984112D01*
X84683867Y-111984112D02*
X84445772Y-111984112D01*
X84445772Y-111984112D02*
X84255296Y-111936493D01*
X84255296Y-111936493D02*
X84160058Y-111888874D01*
X84160058Y-111888874D02*
X84112439Y-111841255D01*
X84112439Y-111841255D02*
X84064820Y-111746017D01*
X84064820Y-110793636D02*
X84064820Y-110698398D01*
X84064820Y-110698398D02*
X84112439Y-110603160D01*
X84112439Y-110603160D02*
X84160058Y-110555541D01*
X84160058Y-110555541D02*
X84255296Y-110507922D01*
X84255296Y-110507922D02*
X84445772Y-110460303D01*
X84445772Y-110460303D02*
X84683867Y-110460303D01*
X84683867Y-110460303D02*
X84874343Y-110507922D01*
X84874343Y-110507922D02*
X84969581Y-110555541D01*
X84969581Y-110555541D02*
X85017201Y-110603160D01*
X85017201Y-110603160D02*
X85064820Y-110698398D01*
X85064820Y-110698398D02*
X85064820Y-110793636D01*
X85064820Y-110793636D02*
X85017201Y-110888874D01*
X85017201Y-110888874D02*
X84969581Y-110936493D01*
X84969581Y-110936493D02*
X84874343Y-110984112D01*
X84874343Y-110984112D02*
X84683867Y-111031731D01*
X84683867Y-111031731D02*
X84445772Y-111031731D01*
X84445772Y-111031731D02*
X84255296Y-110984112D01*
X84255296Y-110984112D02*
X84160058Y-110936493D01*
X84160058Y-110936493D02*
X84112439Y-110888874D01*
X84112439Y-110888874D02*
X84064820Y-110793636D01*
X85017201Y-109984112D02*
X85064820Y-109984112D01*
X85064820Y-109984112D02*
X85160058Y-110031731D01*
X85160058Y-110031731D02*
X85207677Y-110079350D01*
X84064820Y-109365065D02*
X84064820Y-109269827D01*
X84064820Y-109269827D02*
X84112439Y-109174589D01*
X84112439Y-109174589D02*
X84160058Y-109126970D01*
X84160058Y-109126970D02*
X84255296Y-109079351D01*
X84255296Y-109079351D02*
X84445772Y-109031732D01*
X84445772Y-109031732D02*
X84683867Y-109031732D01*
X84683867Y-109031732D02*
X84874343Y-109079351D01*
X84874343Y-109079351D02*
X84969581Y-109126970D01*
X84969581Y-109126970D02*
X85017201Y-109174589D01*
X85017201Y-109174589D02*
X85064820Y-109269827D01*
X85064820Y-109269827D02*
X85064820Y-109365065D01*
X85064820Y-109365065D02*
X85017201Y-109460303D01*
X85017201Y-109460303D02*
X84969581Y-109507922D01*
X84969581Y-109507922D02*
X84874343Y-109555541D01*
X84874343Y-109555541D02*
X84683867Y-109603160D01*
X84683867Y-109603160D02*
X84445772Y-109603160D01*
X84445772Y-109603160D02*
X84255296Y-109555541D01*
X84255296Y-109555541D02*
X84160058Y-109507922D01*
X84160058Y-109507922D02*
X84112439Y-109460303D01*
X84112439Y-109460303D02*
X84064820Y-109365065D01*
X84064820Y-108412684D02*
X84064820Y-108317446D01*
X84064820Y-108317446D02*
X84112439Y-108222208D01*
X84112439Y-108222208D02*
X84160058Y-108174589D01*
X84160058Y-108174589D02*
X84255296Y-108126970D01*
X84255296Y-108126970D02*
X84445772Y-108079351D01*
X84445772Y-108079351D02*
X84683867Y-108079351D01*
X84683867Y-108079351D02*
X84874343Y-108126970D01*
X84874343Y-108126970D02*
X84969581Y-108174589D01*
X84969581Y-108174589D02*
X85017201Y-108222208D01*
X85017201Y-108222208D02*
X85064820Y-108317446D01*
X85064820Y-108317446D02*
X85064820Y-108412684D01*
X85064820Y-108412684D02*
X85017201Y-108507922D01*
X85017201Y-108507922D02*
X84969581Y-108555541D01*
X84969581Y-108555541D02*
X84874343Y-108603160D01*
X84874343Y-108603160D02*
X84683867Y-108650779D01*
X84683867Y-108650779D02*
X84445772Y-108650779D01*
X84445772Y-108650779D02*
X84255296Y-108603160D01*
X84255296Y-108603160D02*
X84160058Y-108555541D01*
X84160058Y-108555541D02*
X84112439Y-108507922D01*
X84112439Y-108507922D02*
X84064820Y-108412684D01*
X84064820Y-107460303D02*
X84064820Y-107365065D01*
X84064820Y-107365065D02*
X84112439Y-107269827D01*
X84112439Y-107269827D02*
X84160058Y-107222208D01*
X84160058Y-107222208D02*
X84255296Y-107174589D01*
X84255296Y-107174589D02*
X84445772Y-107126970D01*
X84445772Y-107126970D02*
X84683867Y-107126970D01*
X84683867Y-107126970D02*
X84874343Y-107174589D01*
X84874343Y-107174589D02*
X84969581Y-107222208D01*
X84969581Y-107222208D02*
X85017201Y-107269827D01*
X85017201Y-107269827D02*
X85064820Y-107365065D01*
X85064820Y-107365065D02*
X85064820Y-107460303D01*
X85064820Y-107460303D02*
X85017201Y-107555541D01*
X85017201Y-107555541D02*
X84969581Y-107603160D01*
X84969581Y-107603160D02*
X84874343Y-107650779D01*
X84874343Y-107650779D02*
X84683867Y-107698398D01*
X84683867Y-107698398D02*
X84445772Y-107698398D01*
X84445772Y-107698398D02*
X84255296Y-107650779D01*
X84255296Y-107650779D02*
X84160058Y-107603160D01*
X84160058Y-107603160D02*
X84112439Y-107555541D01*
X84112439Y-107555541D02*
X84064820Y-107460303D01*
X85064820Y-106174589D02*
X85064820Y-106746017D01*
X85064820Y-106460303D02*
X84064820Y-106460303D01*
X84064820Y-106460303D02*
X84207677Y-106555541D01*
X84207677Y-106555541D02*
X84302915Y-106650779D01*
X84302915Y-106650779D02*
X84350534Y-106746017D01*
X85064820Y-104984112D02*
X84398153Y-104984112D01*
X84493391Y-104984112D02*
X84445772Y-104936493D01*
X84445772Y-104936493D02*
X84398153Y-104841255D01*
X84398153Y-104841255D02*
X84398153Y-104698398D01*
X84398153Y-104698398D02*
X84445772Y-104603160D01*
X84445772Y-104603160D02*
X84541010Y-104555541D01*
X84541010Y-104555541D02*
X85064820Y-104555541D01*
X84541010Y-104555541D02*
X84445772Y-104507922D01*
X84445772Y-104507922D02*
X84398153Y-104412684D01*
X84398153Y-104412684D02*
X84398153Y-104269827D01*
X84398153Y-104269827D02*
X84445772Y-104174588D01*
X84445772Y-104174588D02*
X84541010Y-104126969D01*
X84541010Y-104126969D02*
X85064820Y-104126969D01*
X85064820Y-103650779D02*
X84398153Y-103650779D01*
X84493391Y-103650779D02*
X84445772Y-103603160D01*
X84445772Y-103603160D02*
X84398153Y-103507922D01*
X84398153Y-103507922D02*
X84398153Y-103365065D01*
X84398153Y-103365065D02*
X84445772Y-103269827D01*
X84445772Y-103269827D02*
X84541010Y-103222208D01*
X84541010Y-103222208D02*
X85064820Y-103222208D01*
X84541010Y-103222208D02*
X84445772Y-103174589D01*
X84445772Y-103174589D02*
X84398153Y-103079351D01*
X84398153Y-103079351D02*
X84398153Y-102936494D01*
X84398153Y-102936494D02*
X84445772Y-102841255D01*
X84445772Y-102841255D02*
X84541010Y-102793636D01*
X84541010Y-102793636D02*
X85064820Y-102793636D01*
D11*
X96342898Y-57841231D02*
X85173581Y-57841231D01*
X96342898Y-157841281D02*
X85173581Y-157841281D01*
X85760001Y-57841231D02*
X85760001Y-157841281D01*
X85760001Y-57841231D02*
X85760001Y-157841281D01*
X85760001Y-57841231D02*
X86346422Y-58967735D01*
X85760001Y-57841231D02*
X85173580Y-58967735D01*
X85760001Y-157841281D02*
X85173580Y-156714777D01*
X85760001Y-157841281D02*
X86346422Y-156714777D01*
D12*
X180638258Y-94006511D02*
X189019238Y-94006511D01*
X98306948Y-102106571D02*
X98306948Y-100156361D01*
X187338346Y-132654608D02*
G75*
G02*
X186038351Y-133598144I-1280046J396308D01*
G01*
X97300598Y-126800701D02*
X100012308Y-135560911D01*
X112610536Y-74668669D02*
G75*
G02*
X112592167Y-75021392I-186436J-167131D01*
G01*
X111406998Y-100156361D02*
X111406998Y-102106571D01*
X111406998Y-115526151D02*
G75*
G02*
X110907128Y-116025998I-499798J-49D01*
G01*
X181055581Y-152800400D02*
G75*
G02*
X180409407Y-148914203I5787319J2959100D01*
G01*
X177138138Y-93233331D02*
X167342878Y-93233331D01*
X97256918Y-103406541D02*
G75*
G02*
X96756759Y-102906411I-18J500141D01*
G01*
X108468470Y-128941956D02*
X107380418Y-132678858D01*
X194342828Y-99006501D02*
G75*
G02*
X194842699Y-99506371I-28J-499899D01*
G01*
X178778718Y-99656481D02*
X179638258Y-99656481D01*
X113047588Y-99006501D02*
G75*
G02*
X112547399Y-98506371I112J500301D01*
G01*
X113047588Y-116676011D02*
X114371178Y-116676011D01*
X111406998Y-113576191D02*
X111406998Y-115526151D01*
X189673287Y-135560651D02*
G75*
G02*
X186807658Y-137673437I-2865687J887051D01*
G01*
X113006948Y-109676021D02*
X111507078Y-111176151D01*
X177138138Y-89768771D02*
G75*
G02*
X177272260Y-88881805I3000062J-29D01*
G01*
X191778698Y-112276221D02*
X192428678Y-112276221D01*
X137342938Y-155841281D02*
G75*
G02*
X136343019Y-154841291I-38J999881D01*
G01*
X188426399Y-128917706D02*
X187338347Y-132654608D01*
X113006948Y-106006481D02*
X114371178Y-106006481D01*
X105793858Y-155632751D02*
G75*
G02*
X101859650Y-156266470I-2951058J5791651D01*
G01*
X175314668Y-116676011D02*
X176638268Y-116676011D01*
X179984209Y-80121851D02*
G75*
G02*
X182849838Y-78009085I2865591J-886949D01*
G01*
X96842898Y-57841231D02*
X96302638Y-58381741D01*
X194342828Y-99006501D02*
X193019228Y-99006501D01*
X99137528Y-157841281D02*
X100148708Y-156830111D01*
X111507078Y-111176151D02*
X111507078Y-112276221D01*
X97166488Y-89768771D02*
X97166488Y-98506371D01*
X109128928Y-144493376D02*
X112606914Y-141010047D01*
X178278848Y-115526151D02*
X178278848Y-113576191D01*
X96666368Y-99006501D02*
X95343028Y-99006501D01*
X176728688Y-102906411D02*
X176728688Y-102606441D01*
X96302638Y-157301021D02*
X96842898Y-157841281D01*
X114871308Y-116176141D02*
G75*
G02*
X114371178Y-116676308I-500308J141D01*
G01*
X97475858Y-156127801D02*
X96302638Y-157301021D01*
X167342878Y-122449171D02*
X177138138Y-122449171D01*
X167342878Y-96733201D02*
X177138138Y-96733201D01*
X177138138Y-122449171D02*
X177138138Y-125913731D01*
X181189314Y-86732791D02*
X182337367Y-82995889D01*
X183577366Y-89971956D02*
G75*
G02*
X181189395Y-86732816I-66J2499756D01*
G01*
X97256918Y-113576191D02*
G75*
G02*
X96756709Y-113076071I-18J500191D01*
G01*
X179984208Y-80121851D02*
X177272248Y-88881801D01*
X112457038Y-103406541D02*
X111507078Y-103406541D01*
X183648344Y-133598175D02*
G75*
G02*
X182348365Y-132654603I-20044J1339675D01*
G01*
X106175418Y-89992661D02*
X103725418Y-89992661D01*
X107027528Y-64481551D02*
G75*
G02*
X104195204Y-61654193I-4184628J-1359649D01*
G01*
X176728688Y-113076071D02*
X176728688Y-112776091D01*
X108190848Y-72127201D02*
G75*
G02*
X108209110Y-71774620I186552J167101D01*
G01*
X189519368Y-116526151D02*
G75*
G02*
X190019238Y-116026268I499932J-49D01*
G01*
X177228818Y-102106571D02*
X178278848Y-102106571D01*
X108190803Y-72127261D02*
X111674132Y-75605247D01*
X112588674Y-140657532D02*
X112021667Y-140090422D01*
X106835758Y-78008831D02*
G75*
G02*
X109701589Y-80121869I42J-2999869D01*
G01*
X137342938Y-136341201D02*
X152342908Y-136341201D01*
X160142998Y-153841291D02*
G75*
G02*
X156143008Y-157841298I-3999998J-9D01*
G01*
X191378648Y-115526151D02*
G75*
G02*
X190878778Y-116026048I-499848J-49D01*
G01*
X110047588Y-99656481D02*
X110907128Y-99656481D01*
X102878188Y-137673681D02*
X106835758Y-137673681D01*
X167342878Y-91580811D02*
X184148278Y-72916631D01*
X153342908Y-137341191D02*
X153342908Y-154841291D01*
X136342938Y-154841291D02*
X136342938Y-137341191D01*
X112957158Y-102906411D02*
G75*
G02*
X112457038Y-103406558I-500158J11D01*
G01*
X182849838Y-137673681D02*
X186807658Y-137673681D01*
X186027366Y-89971956D02*
X183577366Y-89971956D01*
X180556978Y-71189431D02*
X177078992Y-74672760D01*
X111507078Y-103406541D02*
X111507078Y-104506361D01*
X194842948Y-116176141D02*
X194842948Y-110176151D01*
X176678648Y-106006481D02*
X178178778Y-104506361D01*
X108563470Y-86753496D02*
X107475418Y-83016594D01*
X110047588Y-99656481D02*
G75*
G02*
X109547419Y-99156361I112J500281D01*
G01*
X101242366Y-128941956D02*
X102390419Y-132678858D01*
X106080418Y-125702791D02*
G75*
G02*
X108468378Y-128941928I-18J-2499809D01*
G01*
X177097232Y-75025275D02*
G75*
G02*
X177078946Y-74672719I168168J185475D01*
G01*
X185485848Y-154026711D02*
X183883868Y-155628691D01*
X183891998Y-60049761D02*
G75*
G02*
X187826188Y-59416092I2951002J-5791839D01*
G01*
X192428678Y-112276221D02*
G75*
G02*
X192928579Y-112776091I22J-499879D01*
G01*
X101337366Y-86753496D02*
X102485419Y-83016594D01*
X178778718Y-116026021D02*
G75*
G02*
X178278879Y-115526151I-18J499821D01*
G01*
X192767268Y-155217211D02*
G75*
G02*
X193129138Y-155208401I185132J-167989D01*
G01*
X109918308Y-147146611D02*
X128582478Y-130341211D01*
X97166488Y-117176131D02*
X97166488Y-125913731D01*
X191378648Y-113576191D02*
X191378648Y-115526151D01*
X176638268Y-116676011D02*
G75*
G02*
X177138389Y-117176131I-68J-500189D01*
G01*
X192209988Y-156127541D02*
G75*
G02*
X192219073Y-155765807I176812J176541D01*
G01*
X152342908Y-136341201D02*
G75*
G02*
X153342899Y-137341191I-8J-999999D01*
G01*
X189519368Y-94506381D02*
X189519368Y-99156361D01*
X178278848Y-102106571D02*
X178278848Y-100156361D01*
X133892858Y-130341211D02*
X133892858Y-134341201D01*
X192519358Y-117176131D02*
G75*
G02*
X193019228Y-116676358I499842J-69D01*
G01*
X161103368Y-85341301D02*
X152493028Y-85341301D01*
X177228818Y-103406541D02*
G75*
G02*
X176728659Y-102906411I-18J500141D01*
G01*
X179638258Y-116026021D02*
X178778718Y-116026021D01*
X108629257Y-62880331D02*
G75*
G02*
X109276322Y-66768292I-5786557J-2960869D01*
G01*
X191378648Y-102106571D02*
X192428678Y-102106571D01*
X186038347Y-125678541D02*
X183588347Y-125678541D01*
X100012308Y-80121851D02*
X97300598Y-88881801D01*
X180409398Y-66768311D02*
G75*
G02*
X181056499Y-62880280I6433502J927111D01*
G01*
X97907158Y-112276221D02*
X97907158Y-111676021D01*
X194302438Y-156381541D02*
X194842948Y-155841281D01*
X112957158Y-113076071D02*
G75*
G02*
X112457038Y-113576158I-500058J-29D01*
G01*
X94842898Y-110176151D02*
X94842898Y-116176141D01*
X182849838Y-137673681D02*
G75*
G02*
X179984023Y-135560708I-38J2999881D01*
G01*
X96757038Y-102906411D02*
X96757038Y-102606441D01*
X97300599Y-126800701D02*
G75*
G02*
X97166467Y-125913731I2865101J886901D01*
G01*
X137192828Y-85341301D02*
X152493028Y-85341301D01*
X181476513Y-143907896D02*
X180909528Y-144475041D01*
X178178778Y-103406541D02*
X177228818Y-103406541D01*
X103725418Y-89992661D02*
G75*
G02*
X101337361Y-86753494I-18J2499861D01*
G01*
X153092968Y-134341201D02*
X153092968Y-130341211D01*
X99666358Y-116026021D02*
X98807078Y-116026021D01*
X194342828Y-109676021D02*
X193778688Y-109676021D01*
X108776319Y-71207472D02*
G75*
G02*
X109128873Y-71189187I185481J-168328D01*
G01*
X114871308Y-105506361D02*
X114871308Y-99506371D01*
X177228818Y-112276221D02*
X178178778Y-112276221D01*
X191778698Y-103406541D02*
X191778698Y-104006491D01*
X155792988Y-130341211D02*
X161103368Y-130341211D01*
X109701648Y-135560911D02*
X112413348Y-126800701D01*
X187820358Y-156267241D02*
G75*
G02*
X189537215Y-156830044I302542J-1977159D01*
G01*
X192519358Y-125913731D02*
G75*
G02*
X192385231Y-126800696I-2999958J31D01*
G01*
X177138138Y-98506371D02*
G75*
G02*
X176638268Y-99006238I-499838J-29D01*
G01*
X107028298Y-151198421D02*
X108630268Y-152800401D01*
X112547718Y-98506371D02*
X112547718Y-96733201D01*
X161103368Y-130341211D02*
X179767548Y-147146611D01*
X181476707Y-71774652D02*
G75*
G02*
X181494980Y-72127184I-168007J-185448D01*
G01*
X100666358Y-94006511D02*
X109047598Y-94006511D01*
X193129218Y-155208321D02*
X194302438Y-156381541D01*
X122342968Y-91580811D02*
X122342968Y-93233331D01*
X112588674Y-140657532D02*
G75*
G02*
X112606958Y-141010086I-168074J-185468D01*
G01*
X98306948Y-100156361D02*
G75*
G02*
X98807078Y-99656248I500152J-39D01*
G01*
X194842948Y-105506361D02*
X194842948Y-99506371D01*
X192385248Y-88881801D02*
X189673288Y-80121851D01*
X190019238Y-99656481D02*
G75*
G02*
X189519119Y-99156361I-38J500081D01*
G01*
X192769297Y-155214920D02*
G75*
G02*
X192216596Y-155767629I-5927997J5375220D01*
G01*
X95343028Y-106006481D02*
X95907158Y-106006481D01*
X177138138Y-96733201D02*
X177138138Y-98506371D01*
X183883868Y-60053821D02*
X185485848Y-61655801D01*
X96556378Y-60474191D02*
X95383158Y-59300961D01*
X194302438Y-59300961D02*
X193129218Y-60474191D01*
X101242367Y-128941956D02*
G75*
G02*
X103630418Y-125702764I2388133J739256D01*
G01*
X108209138Y-143907861D02*
G75*
G02*
X108190861Y-143555313I168062J185461D01*
G01*
X95907158Y-109676021D02*
X95343028Y-109676021D01*
X177097232Y-75025275D02*
X177664239Y-75592385D01*
X95854068Y-63147031D02*
G75*
G02*
X96416867Y-64863811I-1414268J-1414269D01*
G01*
X175314668Y-106006481D02*
X176678648Y-106006481D01*
X191778698Y-111676021D02*
X191778698Y-112276221D01*
X109701647Y-135560651D02*
G75*
G02*
X106835758Y-137673731I-2865847J886851D01*
G01*
X184148279Y-72916632D02*
G75*
G02*
X185919654Y-72275444I1486221J-1338468D01*
G01*
X181200295Y-128917706D02*
G75*
G02*
X183588347Y-125678572I2388005J739306D01*
G01*
X101865488Y-59415260D02*
G75*
G02*
X100148654Y-58852455I-302488J1977260D01*
G01*
X94842898Y-155841281D02*
X95383158Y-156381541D01*
X95343028Y-116676011D02*
G75*
G02*
X94843189Y-116176141I-28J499811D01*
G01*
X111507078Y-112276221D02*
X112457038Y-112276221D01*
X181055579Y-152800401D02*
X182657298Y-151198421D01*
X108776318Y-71207471D02*
G75*
G02*
X108213345Y-71769445I-5926018J5373571D01*
G01*
X97256918Y-102106571D02*
X98306948Y-102106571D01*
X180138128Y-121176131D02*
X180138128Y-116526151D01*
X103758808Y-72276551D02*
G75*
G02*
X96417494Y-64857950I-915908J6435351D01*
G01*
X100166488Y-99156361D02*
X100166488Y-94506381D01*
X109547718Y-94506381D02*
X109547718Y-99156361D01*
X97907158Y-104006491D02*
G75*
G02*
X95907158Y-106006458I-1999958J-9D01*
G01*
X192218879Y-59916910D02*
G75*
G02*
X192209986Y-59554959I167921J185210D01*
G01*
X111406998Y-102106571D02*
X112457038Y-102106571D01*
X180638258Y-121676001D02*
G75*
G02*
X180138399Y-121176131I-58J499801D01*
G01*
X97472048Y-59550901D02*
G75*
G02*
X97467027Y-59916976I-173048J-180699D01*
G01*
X189673288Y-135560911D02*
X192385248Y-126800701D01*
X167342878Y-118949311D02*
X167342878Y-96733201D01*
X96416937Y-150818691D02*
G75*
G02*
X95854115Y-152535518I-1977137J-302509D01*
G01*
X183648344Y-133598176D02*
X186038351Y-133598176D01*
X96842898Y-157841281D02*
X99137528Y-157841281D01*
X111670337Y-140073644D02*
G75*
G02*
X112023084Y-140091990I167163J-186256D01*
G01*
X94842898Y-99506371D02*
X94842898Y-105506361D01*
X111507078Y-104506361D02*
X113006948Y-106006481D01*
X109047598Y-121676001D02*
X100666358Y-121676001D01*
X174814548Y-110176151D02*
G75*
G02*
X175314668Y-109676048I500152J-49D01*
G01*
X176678648Y-109676021D02*
X175314668Y-109676021D01*
X194842948Y-105506361D02*
G75*
G02*
X194342828Y-106006448I-500048J-39D01*
G01*
X178178778Y-112276221D02*
X178178778Y-111176151D01*
X112547718Y-93233331D02*
X112547718Y-89768771D01*
X94842898Y-99506371D02*
G75*
G02*
X95343028Y-99006198I500202J-29D01*
G01*
X114371178Y-109676021D02*
X113006948Y-109676021D01*
X174814548Y-110176151D02*
X174814548Y-116176141D01*
X182658318Y-151200961D02*
G75*
G02*
X185490425Y-154028210I4184582J1359661D01*
G01*
X136342938Y-137341191D02*
G75*
G02*
X137342938Y-136341138I1000062J-9D01*
G01*
X99137528Y-57841231D02*
X96842898Y-57841231D01*
X192842958Y-157841281D02*
X193383218Y-157301021D01*
X192209988Y-59554961D02*
X193383218Y-58381741D01*
X167342878Y-93233331D02*
X167342878Y-91580811D01*
X190019238Y-99656481D02*
X190878778Y-99656481D01*
X174814548Y-99506371D02*
G75*
G02*
X175314668Y-99006248I500152J-29D01*
G01*
X110907128Y-99656481D02*
G75*
G02*
X111407019Y-100156361I-28J-499919D01*
G01*
X191378648Y-100156361D02*
X191378648Y-102106571D01*
X106080418Y-125702791D02*
X103630418Y-125702791D01*
X189019238Y-94006511D02*
G75*
G02*
X189519089Y-94506381I-38J-499889D01*
G01*
X94842898Y-110176151D02*
G75*
G02*
X95343028Y-109675998I500202J-49D01*
G01*
X114371178Y-99006501D02*
X113047588Y-99006501D01*
X94842898Y-59841221D02*
X94842898Y-62135861D01*
X109128878Y-144493331D02*
G75*
G02*
X108776111Y-144475001I-167178J186331D01*
G01*
X97466968Y-155765591D02*
G75*
G02*
X97476064Y-156127747I-167868J-185409D01*
G01*
X179767548Y-68535901D02*
X161103368Y-85341301D01*
X100166488Y-121176131D02*
X100166488Y-116526151D01*
X97907158Y-103406541D02*
X97256918Y-103406541D01*
X112026647Y-75587007D02*
X112593757Y-75020000D01*
X156143008Y-134341201D02*
G75*
G02*
X160142999Y-138341191I-8J-3999999D01*
G01*
X114871308Y-105506361D02*
G75*
G02*
X114371178Y-106006508I-500108J-39D01*
G01*
X160142998Y-153841291D02*
X160142998Y-138341191D01*
X112547718Y-96733201D02*
X122342968Y-96733201D01*
X184148278Y-142765871D02*
X167342878Y-124101701D01*
X109047598Y-94006511D02*
G75*
G02*
X109547489Y-94506381I2J-499889D01*
G01*
X177228818Y-113576191D02*
G75*
G02*
X176728709Y-113076071I-18J500091D01*
G01*
X129542858Y-138341191D02*
X129542858Y-153841291D01*
X182657298Y-64484091D02*
X181055578Y-62882361D01*
X156143008Y-134341201D02*
X155792988Y-134341201D01*
X112957158Y-112776091D02*
X112957158Y-113076071D01*
X112026647Y-75587007D02*
G75*
G02*
X111674119Y-75605262I-185447J168207D01*
G01*
X190548318Y-157841281D02*
X192842958Y-157841281D01*
X188415418Y-86732791D02*
X187327366Y-82995889D01*
X175314668Y-116676011D02*
G75*
G02*
X174814789Y-116176141I132J500011D01*
G01*
X97166488Y-98506371D02*
G75*
G02*
X96666368Y-99006488I-500088J-29D01*
G01*
X108209138Y-143907861D02*
X108776145Y-144474971D01*
X179638258Y-116026021D02*
G75*
G02*
X180138379Y-116526151I-58J-500179D01*
G01*
X194842948Y-155841281D02*
X194842948Y-153546651D01*
X122342968Y-122449171D02*
X122342968Y-124101701D01*
X96556638Y-155208321D02*
G75*
G02*
X96918397Y-155217384I176562J-176879D01*
G01*
X181494748Y-143555301D02*
G75*
G02*
X181476487Y-143907867I-186448J-167099D01*
G01*
X100166488Y-94506381D02*
G75*
G02*
X100666358Y-94006488I499912J-19D01*
G01*
X193831778Y-63147031D02*
X194842948Y-62135861D01*
X193778688Y-106006481D02*
X194342828Y-106006481D01*
X178278848Y-100156361D02*
G75*
G02*
X178778718Y-99656548I499852J-39D01*
G01*
X177138138Y-117176131D02*
X177138138Y-118949311D01*
X104200008Y-61655801D02*
X105801978Y-60053821D01*
X194842948Y-153546651D02*
X193831778Y-152535471D01*
X114371178Y-109676021D02*
G75*
G02*
X114871279Y-110176151I122J-499979D01*
G01*
X185919678Y-143407220D02*
G75*
G02*
X184148138Y-142765997I-285278J1979620D01*
G01*
X122342968Y-96733201D02*
X122342968Y-118949311D01*
X102485419Y-83016594D02*
G75*
G02*
X103785415Y-82073050I1279981J-396206D01*
G01*
X109276957Y-148918011D02*
G75*
G02*
X108629211Y-152802408I-6434057J-923289D01*
G01*
X103785415Y-82073026D02*
X106175422Y-82073026D01*
X187814768Y-156268260D02*
G75*
G02*
X183881843Y-155627661I-971868J6426560D01*
G01*
X110907128Y-116026021D02*
X110047588Y-116026021D01*
X96918588Y-60465301D02*
G75*
G02*
X96556456Y-60474373I-185388J168001D01*
G01*
X112457038Y-112276221D02*
G75*
G02*
X112956879Y-112776091I-38J-499879D01*
G01*
X192928808Y-102906411D02*
G75*
G02*
X192428678Y-103406608I-500308J111D01*
G01*
X189519368Y-121176131D02*
G75*
G02*
X189019238Y-121676268I-500168J31D01*
G01*
X179767548Y-147146611D02*
G75*
G02*
X180408745Y-148917989I-1338348J-1486189D01*
G01*
X194842948Y-62135861D02*
X194842948Y-59841221D01*
X112610536Y-74668669D02*
X109128833Y-71189231D01*
X191778698Y-111676021D02*
G75*
G02*
X193778688Y-109676098I1999802J121D01*
G01*
X101870828Y-59414251D02*
G75*
G02*
X105804024Y-60054829I972072J-6426749D01*
G01*
X108563469Y-86753496D02*
G75*
G02*
X106175418Y-89992689I-2388069J-739304D01*
G01*
X180138128Y-99156361D02*
X180138128Y-94506381D01*
X180138128Y-94506381D02*
G75*
G02*
X180638258Y-94006228I500172J-19D01*
G01*
X180909527Y-144475041D02*
G75*
G02*
X180557021Y-144493284I-185427J168141D01*
G01*
X175314668Y-106006481D02*
G75*
G02*
X174814519Y-105506361I132J500281D01*
G01*
X176638268Y-99006501D02*
X175314668Y-99006501D01*
X177138138Y-118949311D02*
X167342878Y-118949311D01*
X193383218Y-157301021D02*
X192209988Y-156127801D01*
X190548318Y-57841231D02*
X189537148Y-58852401D01*
X114371178Y-99006501D02*
G75*
G02*
X114870999Y-99506371I122J-499699D01*
G01*
X100012308Y-80121851D02*
G75*
G02*
X102878188Y-78009009I2865892J-887249D01*
G01*
X96916558Y-60467591D02*
G75*
G02*
X97469262Y-59914885I5926342J-5373609D01*
G01*
X183637363Y-82052321D02*
X186027370Y-82052321D01*
X192519358Y-98506371D02*
X192519358Y-89768771D01*
X96757038Y-102606441D02*
G75*
G02*
X97256918Y-102106638I499762J41D01*
G01*
X194342828Y-109676021D02*
G75*
G02*
X194842979Y-110176151I-28J-500179D01*
G01*
X189519368Y-116526151D02*
X189519368Y-121176131D01*
X177075325Y-141013838D02*
X180557028Y-144493276D01*
X107380418Y-132678858D02*
G75*
G02*
X106080423Y-133622375I-1279918J396158D01*
G01*
X112457038Y-102106571D02*
G75*
G02*
X112956829Y-102606441I-38J-499829D01*
G01*
X122342968Y-124101701D02*
X105537568Y-142765871D01*
X180556978Y-71189431D02*
G75*
G02*
X180909436Y-71207555I167122J-186169D01*
G01*
X100166488Y-99156361D02*
G75*
G02*
X99666358Y-99656388I-499988J-39D01*
G01*
X178015570Y-75609164D02*
G75*
G02*
X177662815Y-75590824I-167170J186264D01*
G01*
X136592878Y-130341211D02*
X136592878Y-134341201D01*
X103766168Y-72275281D02*
G75*
G02*
X105537701Y-72916511I285232J-1979719D01*
G01*
X152342908Y-155841281D02*
X137342938Y-155841281D01*
X153342908Y-154841291D02*
G75*
G02*
X152342908Y-155841308I-1000008J-9D01*
G01*
X95854068Y-152535471D02*
X94842898Y-153546651D01*
X186807658Y-78008831D02*
X182849838Y-78008831D01*
X136592878Y-134341201D02*
X153092968Y-134341201D01*
X105537567Y-142765870D02*
G75*
G02*
X103766199Y-143407010I-1486167J1338470D01*
G01*
X174814548Y-99506371D02*
X174814548Y-105506361D01*
X98306948Y-115526151D02*
X98306948Y-113576191D01*
X108630268Y-62882361D02*
X107028298Y-64484091D01*
X178015570Y-75609164D02*
X181495008Y-72127461D01*
X192385247Y-88881801D02*
G75*
G02*
X192519363Y-89768771I-2865447J-886899D01*
G01*
X194842948Y-59841221D02*
X194302438Y-59300961D01*
X177272249Y-126800701D02*
G75*
G02*
X177138140Y-125913731I2864951J886801D01*
G01*
X129542858Y-138341191D02*
G75*
G02*
X133542848Y-134341158I4000042J-9D01*
G01*
X97469259Y-155767620D02*
G75*
G02*
X96916560Y-155214920I5372441J5925120D01*
G01*
X99666358Y-116026021D02*
G75*
G02*
X100166479Y-116526151I-58J-500179D01*
G01*
X189537148Y-156830111D02*
X190548318Y-157841281D01*
X95343028Y-106006481D02*
G75*
G02*
X94842919Y-105506361I-28J500081D01*
G01*
X193269927Y-64869411D02*
G75*
G02*
X185915860Y-72274834I-6427027J-971789D01*
G01*
X189019238Y-121676001D02*
X180638258Y-121676001D01*
X186038347Y-125678541D02*
G75*
G02*
X188426343Y-128917689I-47J-2499859D01*
G01*
X94842898Y-153546651D02*
X94842898Y-155841281D01*
X180409397Y-66768311D02*
G75*
G02*
X179767650Y-68536016I-1980097J-281489D01*
G01*
X128582478Y-85341301D02*
X109918308Y-68535901D01*
X95383158Y-59300961D02*
X94842898Y-59841221D01*
X100148708Y-156830111D02*
G75*
G02*
X101865471Y-156267353I1414192J-1414189D01*
G01*
X178178778Y-104506361D02*
X178178778Y-103406541D01*
X193019228Y-99006501D02*
G75*
G02*
X192519099Y-98506371I-28J500101D01*
G01*
X97907158Y-104006491D02*
X97907158Y-103406541D01*
X96666368Y-116676011D02*
G75*
G02*
X97166489Y-117176131I-68J-500189D01*
G01*
X98807078Y-116026021D02*
G75*
G02*
X98307279Y-115526151I122J499921D01*
G01*
X137192828Y-85341301D02*
X128582478Y-85341301D01*
X95383158Y-156381541D02*
X96556378Y-155208321D01*
X109276959Y-148918011D02*
G75*
G02*
X109918196Y-147146486I1979741J285211D01*
G01*
X98306948Y-113576191D02*
X97256918Y-113576191D01*
X185927048Y-143406211D02*
G75*
G02*
X193268153Y-150824531I915952J-6435089D01*
G01*
X186807658Y-78008831D02*
G75*
G02*
X189673644Y-80121740I-58J-3000269D01*
G01*
X112957158Y-102606441D02*
X112957158Y-102906411D01*
X95343028Y-116676011D02*
X96666368Y-116676011D01*
X103690415Y-133622426D02*
X106080422Y-133622426D01*
X122342968Y-118949311D02*
X112547718Y-118949311D01*
X106835758Y-78008831D02*
X102878188Y-78008831D01*
X190878778Y-116026021D02*
X190019238Y-116026021D01*
X96757038Y-113076071D02*
X96757038Y-112776091D01*
X177075325Y-141013838D02*
G75*
G02*
X177093690Y-140661111I186375J167138D01*
G01*
X193831779Y-152535470D02*
G75*
G02*
X193268964Y-150818698I1413921J1414170D01*
G01*
X97256918Y-112276221D02*
X97907158Y-112276221D01*
X112547718Y-122449171D02*
X122342968Y-122449171D01*
X109547718Y-116526151D02*
G75*
G02*
X110047588Y-116026218I499982J-49D01*
G01*
X111670336Y-140073643D02*
X108190898Y-143555346D01*
X112413348Y-88881801D02*
X109701648Y-80121851D01*
X181495058Y-143555246D02*
X178011729Y-140077260D01*
X177138138Y-89768771D02*
X177138138Y-93233331D01*
X106175422Y-82073027D02*
G75*
G02*
X107475406Y-83016598I19978J-1339773D01*
G01*
X109918308Y-68535901D02*
G75*
G02*
X109277163Y-66764531I1337992J1486001D01*
G01*
X192928808Y-102606441D02*
X192928808Y-102906411D01*
X133542848Y-157841281D02*
X156143008Y-157841281D01*
X178278848Y-113576191D02*
X177228818Y-113576191D01*
X192216573Y-59914898D02*
G75*
G02*
X192767226Y-60465339I-5373873J-5926602D01*
G01*
X109547718Y-116526151D02*
X109547718Y-121176131D01*
X100148708Y-58852401D02*
X99137528Y-57841231D01*
X188415417Y-86732791D02*
G75*
G02*
X186027366Y-89971941I-2388017J-739309D01*
G01*
X192428678Y-103406541D02*
X191778698Y-103406541D01*
X192842958Y-57841231D02*
X190548318Y-57841231D01*
X112413347Y-88881801D02*
G75*
G02*
X112547479Y-89768771I-2865747J-886999D01*
G01*
X103690415Y-133622426D02*
G75*
G02*
X102390362Y-132678876I-20015J1339826D01*
G01*
X167342878Y-124101701D02*
X167342878Y-122449171D01*
X176728688Y-112776091D02*
G75*
G02*
X177228818Y-112275988I500112J-9D01*
G01*
X112457038Y-113576191D02*
X111406998Y-113576191D01*
X185483308Y-61656561D02*
G75*
G02*
X182655945Y-64488966I1359692J-4184639D01*
G01*
X133892858Y-134341201D02*
X133542848Y-134341201D01*
X96415919Y-150813351D02*
G75*
G02*
X103769981Y-143407712I6426921J972081D01*
G01*
X192428678Y-113576191D02*
X191378648Y-113576191D01*
X178178778Y-111176151D02*
X176678648Y-109676021D01*
X192928808Y-113076071D02*
G75*
G02*
X192428678Y-113576208I-500108J-29D01*
G01*
X97166488Y-89768771D02*
G75*
G02*
X97300604Y-88881803I3000212J-29D01*
G01*
X182337367Y-82995889D02*
G75*
G02*
X183637363Y-82052342I1280133J-396411D01*
G01*
X176728688Y-102606441D02*
G75*
G02*
X177228818Y-102106288I500212J-59D01*
G01*
X133542848Y-157841281D02*
G75*
G02*
X129542919Y-153841291I-48J3999881D01*
G01*
X96302638Y-58381741D02*
X97475858Y-59554961D01*
X194842948Y-116176141D02*
G75*
G02*
X194342828Y-116676348I-500148J-59D01*
G01*
X105537568Y-72916631D02*
X122342968Y-91580811D01*
X193268919Y-64863821D02*
G75*
G02*
X193831725Y-63146978I1977181J302521D01*
G01*
X181200295Y-128917706D02*
X182348348Y-132654608D01*
X112547718Y-125913731D02*
X112547718Y-122449171D01*
X153092968Y-130341211D02*
X136592878Y-130341211D01*
X177272248Y-126800701D02*
X179984208Y-135560911D01*
X94842898Y-62135861D02*
X95854068Y-63147031D01*
X128582478Y-130341211D02*
X133892858Y-130341211D01*
X177659215Y-140095500D02*
G75*
G02*
X178011769Y-140077215I185485J-168400D01*
G01*
X105801978Y-155628691D02*
X104200008Y-154026711D01*
X96757038Y-112776091D02*
G75*
G02*
X97256918Y-112276238I499862J-9D01*
G01*
X95907158Y-109676021D02*
G75*
G02*
X97907179Y-111676021I-58J-2000079D01*
G01*
X109547718Y-121176131D02*
G75*
G02*
X109047598Y-121676218I-500218J131D01*
G01*
X122342968Y-93233331D02*
X112547718Y-93233331D01*
X193383218Y-58381741D02*
X192842958Y-57841231D01*
X186027370Y-82052322D02*
G75*
G02*
X187327389Y-82995882I20230J-1339478D01*
G01*
X104202548Y-154025950D02*
G75*
G02*
X107029922Y-151193624I-1359648J4184650D01*
G01*
X180138128Y-99156361D02*
G75*
G02*
X179638258Y-99656228I-499928J61D01*
G01*
X193778688Y-106006481D02*
G75*
G02*
X191778719Y-104006491I12J1999981D01*
G01*
X192519358Y-125913731D02*
X192519358Y-117176131D01*
X192428678Y-102106571D02*
G75*
G02*
X192928529Y-102606441I122J-499729D01*
G01*
X155792988Y-134341201D02*
X155792988Y-130341211D01*
X192928808Y-112776091D02*
X192928808Y-113076071D01*
X193129218Y-60474191D02*
G75*
G02*
X192767189Y-60465372I-176818J176691D01*
G01*
X114871308Y-116176141D02*
X114871308Y-110176151D01*
X112547718Y-118949311D02*
X112547718Y-117176131D01*
X177659214Y-140095500D02*
X177092104Y-140662507D01*
X112547718Y-117176131D02*
G75*
G02*
X113047588Y-116676218I499782J131D01*
G01*
X98807078Y-99656481D02*
X99666358Y-99656481D01*
X193019228Y-116676011D02*
X194342828Y-116676011D01*
X112547718Y-125913731D02*
G75*
G02*
X112413568Y-126800769I-3000618J131D01*
G01*
X102878188Y-137673681D02*
G75*
G02*
X100012353Y-135560637I112J3000081D01*
G01*
X190878778Y-99656481D02*
G75*
G02*
X191378619Y-100156361I122J-499719D01*
G01*
X100666358Y-121676001D02*
G75*
G02*
X100166499Y-121176131I-58J499801D01*
G01*
X181476708Y-71774651D02*
G75*
G02*
X180909530Y-71207470I5365492J5932651D01*
G01*
X189537148Y-58852401D02*
G75*
G02*
X187820367Y-59415201I-1414248J1414201D01*
G01*
M02*
