%TF.GenerationSoftware,KiCad,Pcbnew,8.0.1*%
%TF.CreationDate,2024-05-11T18:36:51+02:00*%
%TF.ProjectId,Dron Wi-Fi ESP32,44726f6e-2057-4692-9d46-692045535033,rev?*%
%TF.SameCoordinates,Original*%
%TF.FileFunction,Legend,Top*%
%TF.FilePolarity,Positive*%
%FSLAX46Y46*%
G04 Gerber Fmt 4.6, Leading zero omitted, Abs format (unit mm)*
G04 Created by KiCad (PCBNEW 8.0.1) date 2024-05-11 18:36:51*
%MOMM*%
%LPD*%
G01*
G04 APERTURE LIST*
%ADD10C,0.120000*%
%ADD11C,0.200000*%
%ADD12C,0.100000*%
G04 APERTURE END LIST*
D10*
%TO.C,C15*%
X160744420Y-118900000D02*
X161025580Y-118900000D01*
X160744420Y-119920000D02*
X161025580Y-119920000D01*
%TO.C,R4*%
X134264665Y-96919322D02*
X133790149Y-96919322D01*
X134264665Y-97964322D02*
X133790149Y-97964322D01*
%TO.C,D1*%
X129194939Y-123547021D02*
X127314035Y-121666117D01*
X129194939Y-123547021D02*
X130397021Y-122344939D01*
X130397021Y-122344939D02*
X128516117Y-120464035D01*
%TO.C,R18*%
X146572258Y-101182500D02*
X146097742Y-101182500D01*
X146572258Y-102227500D02*
X146097742Y-102227500D01*
%TO.C,J7*%
X131170000Y-107670000D02*
X132500000Y-107670000D01*
X131170000Y-109000000D02*
X131170000Y-107670000D01*
X131170000Y-110270000D02*
X131170000Y-123030000D01*
X131170000Y-110270000D02*
X133830000Y-110270000D01*
X131170000Y-123030000D02*
X133830000Y-123030000D01*
X133830000Y-110270000D02*
X133830000Y-123030000D01*
%TO.C,J6*%
X159905223Y-126842767D02*
X161178015Y-125569975D01*
X160930527Y-127868072D02*
X159905223Y-126842767D01*
X161178015Y-125569975D02*
X160477979Y-124869939D01*
X163822594Y-128964087D02*
X166247970Y-126538711D01*
X164126650Y-122621340D02*
X162853858Y-123894132D01*
X165151955Y-123646644D02*
X164126650Y-122621340D01*
%TO.C,J1*%
X140730000Y-87350000D02*
X140730000Y-85450000D01*
X140730000Y-91250000D02*
X140730000Y-89250000D01*
X150130000Y-85450000D02*
X140730000Y-85450000D01*
X150130000Y-87350000D02*
X150130000Y-85450000D01*
X150130000Y-91250000D02*
X150130000Y-89250000D01*
%TO.C,R19*%
X124517500Y-107262742D02*
X124517500Y-107737258D01*
X125562500Y-107262742D02*
X125562500Y-107737258D01*
%TO.C,U5*%
X152762500Y-98740000D02*
X151962500Y-98740000D01*
X152762500Y-98740000D02*
X153562500Y-98740000D01*
X152762500Y-101860000D02*
X151962500Y-101860000D01*
X152762500Y-101860000D02*
X153562500Y-101860000D01*
X151462500Y-98790000D02*
X151222500Y-98460000D01*
X151702500Y-98460000D01*
X151462500Y-98790000D01*
G36*
X151462500Y-98790000D02*
G01*
X151222500Y-98460000D01*
X151702500Y-98460000D01*
X151462500Y-98790000D01*
G37*
%TO.C,R14*%
X136087258Y-108077500D02*
X135612742Y-108077500D01*
X136087258Y-109122500D02*
X135612742Y-109122500D01*
%TO.C,R5*%
X125712258Y-99317500D02*
X125237742Y-99317500D01*
X125712258Y-100362500D02*
X125237742Y-100362500D01*
%TO.C,C1*%
X139695000Y-97275580D02*
X139695000Y-96994420D01*
X140715000Y-97275580D02*
X140715000Y-96994420D01*
D11*
%TO.C,SW1*%
X135075000Y-84000000D02*
X135075000Y-85500000D01*
X136375000Y-84000000D02*
X135075000Y-84000000D01*
X136375000Y-85500000D02*
X136375000Y-84000000D01*
D12*
X137325000Y-89975000D02*
X137325000Y-89975000D01*
X137325000Y-90075000D02*
X137325000Y-90075000D01*
D11*
X137775000Y-85500000D02*
X132075000Y-85500000D01*
D12*
X137325000Y-89975000D02*
G75*
G02*
X137325000Y-90075000I0J-50000D01*
G01*
X137325000Y-90075000D02*
G75*
G02*
X137325000Y-89975000I0J50000D01*
G01*
D10*
%TO.C,D3*%
X130127401Y-91160517D02*
X128246497Y-93041421D01*
X131329483Y-92362599D02*
X129448579Y-94243503D01*
X131329483Y-92362599D02*
X130127401Y-91160517D01*
%TO.C,C12*%
X156089420Y-128640000D02*
X156370580Y-128640000D01*
X156089420Y-129660000D02*
X156370580Y-129660000D01*
%TO.C,R6*%
X136122742Y-104832500D02*
X136597258Y-104832500D01*
X136122742Y-105877500D02*
X136597258Y-105877500D01*
%TO.C,J5*%
X162040000Y-102965000D02*
X162040000Y-105290000D01*
X162040000Y-105290000D02*
X159650000Y-105290000D01*
X162040000Y-111135000D02*
X162040000Y-108810000D01*
X162890000Y-102965000D02*
X162040000Y-102965000D01*
X162890000Y-111135000D02*
X162040000Y-111135000D01*
X166410000Y-102965000D02*
X167260000Y-102965000D01*
X167260000Y-102965000D02*
X167260000Y-111135000D01*
X167260000Y-111135000D02*
X166410000Y-111135000D01*
%TO.C,LED1*%
X156982500Y-85385000D02*
X156982500Y-86855000D01*
X156982500Y-86855000D02*
X159267500Y-86855000D01*
X159267500Y-85385000D02*
X156982500Y-85385000D01*
D11*
%TO.C,T2*%
X124050000Y-98750000D02*
X124050000Y-97450000D01*
X124090000Y-97000000D02*
X127010000Y-97000000D01*
X124090000Y-97100000D02*
X124090000Y-97000000D01*
X127010000Y-97000000D02*
X127010000Y-97100000D01*
X127010000Y-97100000D02*
X124090000Y-97100000D01*
D10*
%TO.C,J4*%
X159500450Y-88627945D02*
X160773243Y-89900737D01*
X160525755Y-87602639D02*
X159500450Y-88627945D01*
X162449086Y-91576579D02*
X161749051Y-92276616D01*
X163721879Y-92849372D02*
X162449086Y-91576579D01*
X164747183Y-91824067D02*
X163721879Y-92849372D01*
X165843199Y-88932000D02*
X163417823Y-86506624D01*
%TO.C,R15*%
X133912258Y-90052500D02*
X133437742Y-90052500D01*
X133912258Y-91097500D02*
X133437742Y-91097500D01*
D11*
%TO.C,T3*%
X163365000Y-98055000D02*
X163365000Y-96755000D01*
X163405000Y-96305000D02*
X166325000Y-96305000D01*
X163405000Y-96405000D02*
X163405000Y-96305000D01*
X166325000Y-96305000D02*
X166325000Y-96405000D01*
X166325000Y-96405000D02*
X163405000Y-96405000D01*
D10*
%TO.C,R10*%
X156467258Y-126977500D02*
X155992742Y-126977500D01*
X156467258Y-128022500D02*
X155992742Y-128022500D01*
%TO.C,C16*%
X143425580Y-101195000D02*
X143144420Y-101195000D01*
X143425580Y-102215000D02*
X143144420Y-102215000D01*
%TO.C,U6*%
X135722407Y-110570000D02*
X136722407Y-110570000D01*
X135722407Y-111350000D02*
X135722407Y-110570000D01*
X153962407Y-110570000D02*
X152962407Y-110570000D01*
X153962407Y-111350000D02*
X153962407Y-110570000D01*
X153967407Y-129925000D02*
X153967407Y-129425000D01*
X154467407Y-129425000D01*
X153967407Y-129925000D01*
G36*
X153967407Y-129925000D02*
G01*
X153967407Y-129425000D01*
X154467407Y-129425000D01*
X153967407Y-129925000D01*
G37*
%TO.C,C5*%
X139399420Y-99350000D02*
X139680580Y-99350000D01*
X139399420Y-100370000D02*
X139680580Y-100370000D01*
%TO.C,R13*%
X161457742Y-112952500D02*
X161932258Y-112952500D01*
X161457742Y-113997500D02*
X161932258Y-113997500D01*
%TO.C,J2*%
X123652119Y-126447505D02*
X126077495Y-128872881D01*
X124748134Y-123555438D02*
X125773439Y-122530134D01*
X125773439Y-122530134D02*
X127046231Y-123802926D01*
X127046231Y-123802926D02*
X127746267Y-123102890D01*
X128969562Y-127776866D02*
X129994866Y-126751561D01*
X129994866Y-126751561D02*
X128722074Y-125478769D01*
%TO.C,C17*%
X140020000Y-108170580D02*
X140020000Y-107889420D01*
X141040000Y-108170580D02*
X141040000Y-107889420D01*
%TO.C,U3*%
X131952407Y-98776822D02*
X131952407Y-99501822D01*
X131952407Y-103996822D02*
X131952407Y-103271822D01*
X132677407Y-98776822D02*
X131952407Y-98776822D01*
X132677407Y-103996822D02*
X131952407Y-103996822D01*
X136447407Y-98776822D02*
X137172407Y-98776822D01*
X136447407Y-103996822D02*
X136872407Y-103996822D01*
X137172407Y-98776822D02*
X137172407Y-99501822D01*
X137172407Y-103271822D02*
X137172407Y-103756822D01*
X137412407Y-104326822D02*
X136932407Y-104326822D01*
X137172407Y-103996822D01*
X137412407Y-104326822D01*
G36*
X137412407Y-104326822D02*
G01*
X136932407Y-104326822D01*
X137172407Y-103996822D01*
X137412407Y-104326822D01*
G37*
D11*
%TO.C,T1*%
X122990000Y-119100000D02*
X125910000Y-119100000D01*
X122990000Y-119200000D02*
X122990000Y-119100000D01*
X125910000Y-119100000D02*
X125910000Y-119200000D01*
X125910000Y-119200000D02*
X122990000Y-119200000D01*
X125950000Y-117450000D02*
X125950000Y-118750000D01*
D10*
%TO.C,R1*%
X124212742Y-115702500D02*
X124687258Y-115702500D01*
X124212742Y-116747500D02*
X124687258Y-116747500D01*
%TO.C,U8*%
X157337742Y-105547500D02*
X157812258Y-105547500D01*
X157337742Y-106592500D02*
X157812258Y-106592500D01*
%TO.C,R12*%
X155107742Y-87177500D02*
X155582258Y-87177500D01*
X155107742Y-88222500D02*
X155582258Y-88222500D01*
%TO.C,R17*%
X149747742Y-106432500D02*
X150222258Y-106432500D01*
X149747742Y-107477500D02*
X150222258Y-107477500D01*
%TO.C,R20*%
X149752742Y-107987500D02*
X150227258Y-107987500D01*
X149752742Y-109032500D02*
X150227258Y-109032500D01*
%TO.C,U2*%
X156977500Y-92287258D02*
X156977500Y-91812742D01*
X158022500Y-92287258D02*
X158022500Y-91812742D01*
%TO.C,U4*%
X158662500Y-93765000D02*
X158012500Y-93765000D01*
X158662500Y-93765000D02*
X159312500Y-93765000D01*
X158662500Y-96885000D02*
X158012500Y-96885000D01*
X158662500Y-96885000D02*
X159312500Y-96885000D01*
X157500000Y-93815000D02*
X157260000Y-93485000D01*
X157740000Y-93485000D01*
X157500000Y-93815000D01*
G36*
X157500000Y-93815000D02*
G01*
X157260000Y-93485000D01*
X157740000Y-93485000D01*
X157500000Y-93815000D01*
G37*
%TO.C,J3*%
X124737639Y-92099245D02*
X125762944Y-93124549D01*
X125762944Y-93124549D02*
X127035736Y-91851757D01*
X126067000Y-86781802D02*
X123641624Y-89207178D01*
X128711579Y-90175914D02*
X129411615Y-90875950D01*
X128959067Y-87877817D02*
X129984371Y-88903122D01*
X129984371Y-88903122D02*
X128711579Y-90175914D01*
%TO.C,C7*%
X152148080Y-102420000D02*
X151866920Y-102420000D01*
X152148080Y-103440000D02*
X151866920Y-103440000D01*
%TO.C,C13*%
X156089420Y-125440000D02*
X156370580Y-125440000D01*
X156089420Y-126460000D02*
X156370580Y-126460000D01*
%TO.C,J8*%
X155945000Y-107670000D02*
X157275000Y-107670000D01*
X155945000Y-109000000D02*
X155945000Y-107670000D01*
X155945000Y-110270000D02*
X155945000Y-123030000D01*
X155945000Y-110270000D02*
X158605000Y-110270000D01*
X155945000Y-123030000D02*
X158605000Y-123030000D01*
X158605000Y-110270000D02*
X158605000Y-123030000D01*
%TO.C,R16*%
X124527500Y-110337742D02*
X124527500Y-110812258D01*
X125572500Y-110337742D02*
X125572500Y-110812258D01*
%TO.C,R2*%
X133775149Y-95389322D02*
X134249665Y-95389322D01*
X133775149Y-96434322D02*
X134249665Y-96434322D01*
%TO.C,C14*%
X159545580Y-97630000D02*
X159264420Y-97630000D01*
X159545580Y-98650000D02*
X159264420Y-98650000D01*
%TO.C,R21*%
X124507500Y-103837742D02*
X124507500Y-104312258D01*
X125552500Y-103837742D02*
X125552500Y-104312258D01*
%TO.C,R3*%
X135784907Y-96899080D02*
X135784907Y-96424564D01*
X136829907Y-96899080D02*
X136829907Y-96424564D01*
%TO.C,C4*%
X138155000Y-97285580D02*
X138155000Y-97004420D01*
X139175000Y-97285580D02*
X139175000Y-97004420D01*
%TO.C,R7*%
X136122742Y-106357500D02*
X136597258Y-106357500D01*
X136122742Y-107402500D02*
X136597258Y-107402500D01*
%TO.C,R8*%
X151775242Y-103937500D02*
X152249758Y-103937500D01*
X151775242Y-104982500D02*
X152249758Y-104982500D01*
D11*
%TO.C,U9*%
X147750000Y-107275000D02*
X147750000Y-107275000D01*
X147850000Y-107275000D02*
X147850000Y-107275000D01*
X147850000Y-107275000D02*
X147850000Y-107275000D01*
X147750000Y-107275000D02*
G75*
G02*
X147850000Y-107275000I50000J0D01*
G01*
X147750000Y-107275000D02*
G75*
G02*
X147850000Y-107275000I50000J0D01*
G01*
X147850000Y-107275000D02*
G75*
G02*
X147750000Y-107275000I-50000J0D01*
G01*
D10*
%TO.C,D5*%
X159227979Y-122619939D02*
X160430061Y-123822021D01*
X159227979Y-122619939D02*
X161108883Y-120739035D01*
X160430061Y-123822021D02*
X162310965Y-121941117D01*
%TO.C,LED4*%
X122685000Y-109777500D02*
X122685000Y-112062500D01*
X122685000Y-112062500D02*
X124155000Y-112062500D01*
X124155000Y-112062500D02*
X124155000Y-109777500D01*
D11*
%TO.C,IC1*%
X151190000Y-96263000D02*
X151190000Y-94738000D01*
D10*
%TO.C,C11*%
X160859420Y-99240000D02*
X161140580Y-99240000D01*
X160859420Y-100260000D02*
X161140580Y-100260000D01*
%TO.C,C10*%
X158030000Y-128765580D02*
X158030000Y-128484420D01*
X159050000Y-128765580D02*
X159050000Y-128484420D01*
%TO.C,LED2*%
X151492500Y-86855000D02*
X153777500Y-86855000D01*
X153777500Y-85385000D02*
X151492500Y-85385000D01*
X153777500Y-86855000D02*
X153777500Y-85385000D01*
%TO.C,Rprog1*%
X153012258Y-96877500D02*
X152537742Y-96877500D01*
X153012258Y-97922500D02*
X152537742Y-97922500D01*
%TO.C,C6*%
X130508781Y-93729970D02*
X130309970Y-93928781D01*
X131230030Y-94451219D02*
X131031219Y-94650030D01*
%TO.C,C18*%
X140000000Y-104020580D02*
X140000000Y-103739420D01*
X141020000Y-104020580D02*
X141020000Y-103739420D01*
%TO.C,LED6*%
X122675000Y-103272500D02*
X122675000Y-105557500D01*
X122675000Y-105557500D02*
X124145000Y-105557500D01*
X124145000Y-105557500D02*
X124145000Y-103272500D01*
%TO.C,D4*%
X161175000Y-94515000D02*
X161175000Y-97175000D01*
X162875000Y-94515000D02*
X161175000Y-94515000D01*
X162875000Y-94515000D02*
X162875000Y-97175000D01*
%TO.C,U1*%
X129040000Y-104540000D02*
X130450000Y-104540000D01*
X129050000Y-106860000D02*
X130450000Y-106860000D01*
X128670000Y-104590000D02*
X128430000Y-104260000D01*
X128910000Y-104260000D01*
X128670000Y-104590000D01*
G36*
X128670000Y-104590000D02*
G01*
X128430000Y-104260000D01*
X128910000Y-104260000D01*
X128670000Y-104590000D01*
G37*
%TO.C,C2*%
X128115580Y-117190000D02*
X127834420Y-117190000D01*
X128115580Y-118210000D02*
X127834420Y-118210000D01*
%TO.C,C8*%
X156311248Y-100365000D02*
X156833752Y-100365000D01*
X156311248Y-101835000D02*
X156833752Y-101835000D01*
%TO.C,LED5*%
X122675000Y-106697500D02*
X122675000Y-108982500D01*
X122675000Y-108982500D02*
X124145000Y-108982500D01*
X124145000Y-108982500D02*
X124145000Y-106697500D01*
%TO.C,R9*%
X165002258Y-98632500D02*
X164527742Y-98632500D01*
X165002258Y-99677500D02*
X164527742Y-99677500D01*
%TO.C,U7*%
X157812258Y-104027500D02*
X157337742Y-104027500D01*
X157812258Y-105072500D02*
X157337742Y-105072500D01*
%TO.C,C3*%
X149352500Y-99939420D02*
X149352500Y-100220580D01*
X150372500Y-99939420D02*
X150372500Y-100220580D01*
%TO.C,C9*%
X156226920Y-98820000D02*
X156508080Y-98820000D01*
X156226920Y-99840000D02*
X156508080Y-99840000D01*
%TO.C,LED3*%
X151512500Y-88465000D02*
X153797500Y-88465000D01*
X153797500Y-86995000D02*
X151512500Y-86995000D01*
X153797500Y-88465000D02*
X153797500Y-86995000D01*
%TO.C,D2*%
X148460000Y-95825000D02*
X142950000Y-95825000D01*
X148460000Y-99125000D02*
X142950000Y-99125000D01*
X148460000Y-99125000D02*
X148460000Y-95825000D01*
D11*
%TO.C,T4*%
X160140000Y-116325000D02*
X163060000Y-116325000D01*
X160140000Y-116425000D02*
X160140000Y-116325000D01*
X163060000Y-116325000D02*
X163060000Y-116425000D01*
X163060000Y-116425000D02*
X160140000Y-116425000D01*
X163100000Y-114675000D02*
X163100000Y-115975000D01*
D10*
%TO.C,R11*%
X155092742Y-85597500D02*
X155567258Y-85597500D01*
X155092742Y-86642500D02*
X155567258Y-86642500D01*
%TD*%
M02*
